<svg xmlns="http://www.w3.org/2000/svg" width="26.983" height="18.374" viewBox="0 0 26.983 18.374"><defs><style>.a{fill:#051f43;}</style></defs><path class="a" d="M267.141,349.023q.007-.142.007-.284a5.444,5.444,0,0,0-10.168-2.7,4.766,4.766,0,0,0-4.4.87,4.79,4.79,0,0,0-1.485,2.124,5.444,5.444,0,1,0-.648,10.849h4.59a.608.608,0,1,0,0-1.217h-4.59a4.227,4.227,0,1,1,.949-8.346.608.608,0,0,0,.731-.466,3.562,3.562,0,0,1,3.468-2.8,3.52,3.52,0,0,1,1.438.3.608.608,0,0,0,.8-.311,4.228,4.228,0,0,1,8.03,2.454.608.608,0,0,0,.136.5.616.616,0,0,0,.474.214h.065a4.227,4.227,0,0,1,0,8.453h-4.606a.608.608,0,1,0,0,1.217h4.606a5.444,5.444,0,0,0,.6-10.854Z" transform="translate(-245 -343.295)"/><path class="a" d="M430.242,516.7a.608.608,0,0,0,.86-.86l-3.458-3.458a.608.608,0,0,0-.86,0l-3.458,3.458a.608.608,0,1,0,.861.86l2.419-2.419v6.752a.608.608,0,0,0,1.217,0v-6.752Z" transform="translate(-413.723 -503.27)"/></svg>