<svg xmlns="http://www.w3.org/2000/svg" width="29.333" height="22" viewBox="0 0 29.333 22"><defs><style>.a{fill:#fff;}</style></defs><g transform="translate(-960 -1012)"><g transform="translate(968.626 1015.4)"><path class="a" d="M967.669,1028.564a.612.612,0,0,1-.433-1.044l12.558-12.558a.611.611,0,0,1,.865.864l-12.56,12.558A.607.607,0,0,1,967.669,1028.564Z" transform="translate(-967.058 -1014.782)"/></g><g transform="translate(967.333 1015.667)"><path class="a" d="M969.056,1021.111a3.056,3.056,0,1,1,3.056-3.055A3.058,3.058,0,0,1,969.056,1021.111Zm0-4.889a1.833,1.833,0,1,0,1.833,1.833A1.836,1.836,0,0,0,969.056,1016.222Z" transform="translate(-966 -1015)"/></g><g transform="translate(960 1019.333)"><path class="a" d="M960.611,1026.556a.611.611,0,1,1,0-1.222,3.056,3.056,0,0,0,0-6.111.611.611,0,1,1,0-1.222,4.278,4.278,0,0,1,0,8.556Z" transform="translate(-960 -1018)"/></g><g transform="translate(984.444 1019.333)"><path class="a" d="M984.278,1026.556a4.278,4.278,0,0,1,0-8.556.611.611,0,0,1,0,1.222,3.056,3.056,0,1,0,0,6.111.611.611,0,0,1,0,1.222Z" transform="translate(-980 -1018)"/></g><g transform="translate(977.111 1024.222)"><path class="a" d="M977.056,1028.111a3.056,3.056,0,1,1,3.056-3.056A3.058,3.058,0,0,1,977.056,1028.111Zm0-4.889a1.833,1.833,0,1,0,1.833,1.833A1.836,1.836,0,0,0,977.056,1023.222Z" transform="translate(-974 -1022)"/></g><g transform="translate(960 1012)"><path class="a" d="M988.722,1020.556a.611.611,0,0,1-.611-.611v-6.111a.613.613,0,0,0-.611-.611H961.833a.613.613,0,0,0-.611.611v6.111a.611.611,0,1,1-1.222,0v-6.111a1.836,1.836,0,0,1,1.833-1.833H987.5a1.836,1.836,0,0,1,1.833,1.833v6.111A.611.611,0,0,1,988.722,1020.556Z" transform="translate(-960 -1012)"/></g><g transform="translate(960 1026.667)"><path class="a" d="M987.5,1031.333H961.833A1.836,1.836,0,0,1,960,1029.5v-4.889a.611.611,0,0,1,1.222,0v4.889a.613.613,0,0,0,.611.611H987.5a.613.613,0,0,0,.611-.611v-4.889a.611.611,0,0,1,1.222,0v4.889A1.835,1.835,0,0,1,987.5,1031.333Z" transform="translate(-960 -1024)"/></g></g></svg>