<svg xmlns="http://www.w3.org/2000/svg" width="40" height="40" viewBox="0 0 40 40"><defs><style>.a{fill:#bc0000;}.b{fill:#fff;}</style></defs><g transform="translate(-901 -366)"><g transform="translate(901 366)"><circle class="a" cx="20" cy="20" r="20"/><g transform="translate(17.943 7.34)"><g transform="translate(0 0)"><path class="b" d="M953.219,783.936a2.274,2.274,0,0,0-1.658.716,2.438,2.438,0,0,0-.663,1.791l.754,16.056a1.567,1.567,0,0,0,3.133,0l.754-16.056a2.437,2.437,0,0,0-.663-1.791A2.275,2.275,0,0,0,953.219,783.936Z" transform="translate(-950.895 -783.936)"/><circle class="b" cx="2.064" cy="2.064" r="2.064" transform="translate(0.259 21.746)"/></g></g></g></g></svg>