<svg xmlns="http://www.w3.org/2000/svg" width="20.001" height="20" viewBox="0 0 20.001 20"><defs><style>.a{fill:#051f44;}</style></defs><g transform="translate(-1176 -912.416)"><g transform="translate(1176 912.416)"><path class="a" d="M1176.424,932.416a.423.423,0,0,1-.42-.483l.848-5.936a.43.43,0,0,1,.12-.241l12.969-12.968a1.276,1.276,0,0,1,1.8,0l3.888,3.888a1.274,1.274,0,0,1,0,1.8l-12.968,12.969a.431.431,0,0,1-.241.12l-5.936.848A.463.463,0,0,1,1176.424,932.416Zm1.248-6.161-.749,5.238,5.237-.749,12.868-12.868a.424.424,0,0,0,0-.6l-3.888-3.888a.424.424,0,0,0-.6,0Z" transform="translate(-1176 -912.416)"/></g><g transform="translate(1182.784 914.607)"><path class="a" d="M1184.424,926.024a.424.424,0,0,1-.3-.724l10.176-10.176a.425.425,0,0,1,.6.6L1184.724,925.9A.426.426,0,0,1,1184.424,926.024Z" transform="translate(-1184 -915)"/></g><g transform="translate(1176.848 925.632)"><path class="a" d="M1182.512,933.936a.426.426,0,0,1-.3-.124l-5.088-5.088a.425.425,0,1,1,.6-.6l5.088,5.088a.424.424,0,0,1-.3.724Z" transform="translate(-1177 -928)"/></g></g></svg>