<svg xmlns="http://www.w3.org/2000/svg" width="30" height="30" viewBox="0 0 30 30"><defs><style>.a{fill:#0a6bb9;}</style></defs><g transform="translate(-62.937 -55.579)"><path class="a" d="M77.937,85.579a15,15,0,1,1,15-15A15.017,15.017,0,0,1,77.937,85.579Zm0-28.8a13.8,13.8,0,1,0,13.8,13.8A13.814,13.814,0,0,0,77.937,56.78Z" transform="translate(0 0)"/><path class="a" d="M95.212,78.265c.053-.052.232-.174.753-.174a5.6,5.6,0,0,1,.937.086l.515.089.445-2.49-.512-.1a5.432,5.432,0,0,0-3.783.311,2.7,2.7,0,0,0-1.1,1.315,4.884,4.884,0,0,0-.218,1.667V79.5H90.715v2.356h1.539v7.257h2.785V81.855h2V79.5h-2v-.387C95.038,78.469,95.182,78.294,95.212,78.265Z" transform="translate(-16.351 -11.73)"/></g></svg>