<svg xmlns="http://www.w3.org/2000/svg" width="24" height="18" viewBox="0 0 24 18"><defs><style>.a{fill:#051f44;}</style></defs><g transform="translate(-1488 -867)"><path class="a" d="M1509.5,885h-19a2.5,2.5,0,0,1-2.5-2.5v-13a2.5,2.5,0,0,1,2.5-2.5h19a2.5,2.5,0,0,1,2.5,2.5v13A2.5,2.5,0,0,1,1509.5,885Zm-19-17a1.5,1.5,0,0,0-1.5,1.5v13a1.5,1.5,0,0,0,1.5,1.5h19a1.5,1.5,0,0,0,1.5-1.5v-13a1.5,1.5,0,0,0-1.5-1.5Z"/><path class="a" d="M1507.441,873.75a2.5,2.5,0,1,1,2.5-2.5A2.5,2.5,0,0,1,1507.441,873.75Zm0-4a1.5,1.5,0,1,0,1.5,1.5A1.5,1.5,0,0,0,1507.441,869.75Z"/><path class="a" d="M1488.5,878.833a.5.5,0,0,1-.4-.8l5.412-7.083a.5.5,0,0,1,.8.608l-5.413,7.083A.5.5,0,0,1,1488.5,878.833Z"/><path class="a" d="M1505.5,885a.5.5,0,0,1-.376-.171l-11.588-13.25a.5.5,0,1,1,.752-.658l11.588,13.25a.5.5,0,0,1-.376.829Z"/><path class="a" d="M1499.323,877.417a.5.5,0,0,1-.361-.846l2.706-2.834a.5.5,0,0,1,.723.692l-2.706,2.834A.5.5,0,0,1,1499.323,877.417Z"/><path class="a" d="M1510.147,884.5a.493.493,0,0,1-.386-.184l-8.118-9.917a.5.5,0,1,1,.773-.632l8.118,9.917a.5.5,0,0,1-.387.816Z"/></g></svg>