<svg xmlns="http://www.w3.org/2000/svg" xmlns:xlink="http://www.w3.org/1999/xlink" width="30" height="30" viewBox="0 0 30 30"><defs><style>.a{fill:url(#a);}.b{fill:url(#b);}</style><linearGradient id="a" x1="0.296" y1="0.815" x2="1" gradientUnits="objectBoundingBox"><stop offset="0" stop-color="#fbb637"/><stop offset="0.5" stop-color="#fa6169"/><stop offset="1" stop-color="#ee0789"/></linearGradient><linearGradient id="b" x1="-0.018" y1="0.899" x2="1.026" y2="0.096" xlink:href="#a"/></defs><g transform="translate(-1156.072 -322)"><path class="a" d="M77.937,85.579a15,15,0,1,1,15-15A15.017,15.017,0,0,1,77.937,85.579Zm0-28.8a13.8,13.8,0,1,0,13.8,13.8A13.814,13.814,0,0,0,77.937,56.78Z" transform="translate(1093.135 266.421)"/><g transform="translate(1078.984 59.394)"><path class="b" d="M96.531,270.606h-8.6a2.915,2.915,0,0,0-2.911,2.912v8.177a2.915,2.915,0,0,0,2.911,2.911h8.6a2.915,2.915,0,0,0,2.911-2.911v-8.177A2.915,2.915,0,0,0,96.531,270.606Zm1.639,11.089a1.641,1.641,0,0,1-1.639,1.639h-8.6a1.641,1.641,0,0,1-1.639-1.639v-8.177a1.64,1.64,0,0,1,1.639-1.639h8.6a1.64,1.64,0,0,1,1.639,1.639Z"/><path class="b" d="M95.509,276.76a3.914,3.914,0,1,0,3.914,3.915A3.919,3.919,0,0,0,95.509,276.76Zm0,6.556a2.641,2.641,0,1,1,2.642-2.641A2.644,2.644,0,0,1,95.509,283.316Z" transform="translate(-3.28 -3.068)"/><path class="b" d="M106.508,275.167a.664.664,0,1,0,.663.663A.664.664,0,0,0,106.508,275.167Z" transform="translate(-10.384 -2.274)"/></g></g></svg>