<svg xmlns="http://www.w3.org/2000/svg" width="16.042" height="20" viewBox="0 0 16.042 20"><defs><style>.a{fill:#051d3f;}</style></defs><path class="a" d="M358.622,140.9a8.024,8.024,0,0,0-13.324,8.084,8.183,8.183,0,0,0,1.091,2.205,57.881,57.881,0,0,0,4.149,4.933l.11.122c.656.728,1.294,1.433,1.866,2.1l.064.067a.571.571,0,0,0,.368.139l.049,0a.561.561,0,0,0,.386-.2c.551-.641,1.164-1.32,1.793-2.019l.183-.2a58.765,58.765,0,0,0,4.152-4.935A7.942,7.942,0,0,0,360.6,149a8.046,8.046,0,0,0,.363-2.06l.012-.363A7.974,7.974,0,0,0,358.622,140.9Zm-5.675-1.207a6.88,6.88,0,0,1,6.879,6.879,6.817,6.817,0,0,1-1.25,3.961,56.836,56.836,0,0,1-4.065,4.825l-.215.241c-.47.516-.926,1.024-1.346,1.506-.461-.525-.963-1.082-1.474-1.651l-.09-.1a57.263,57.263,0,0,1-4.059-4.825,7.083,7.083,0,0,1-.94-1.895,6.887,6.887,0,0,1,6.56-8.945Z" transform="translate(-344.93 -138.553)"/><path class="a" d="M350.427,148.23a4.176,4.176,0,1,0-2.951-1.224A4.16,4.16,0,0,0,350.427,148.23Zm0-7.207h0a3.034,3.034,0,0,1,2.144,5.176,3.1,3.1,0,0,1-4.286,0,3.03,3.03,0,0,1-.891-2.014v-.131a3.036,3.036,0,0,1,3.029-3.032Z" transform="translate(-342.41 -136.032)"/></svg>