<svg xmlns="http://www.w3.org/2000/svg" xmlns:xlink="http://www.w3.org/1999/xlink" width="50" height="73.024" viewBox="0 0 50 73.024"><defs><style>.a,.b,.c{fill:#fff;}.a{font-size:6px;font-family:AlmoniNeueDL4.0AAA-Light, 'Almoni Neue DL 4.0 AAA';font-weight:300;letter-spacing:-0.02em;}.b{font-size:20px;font-family:Montserrat-Regular, Montserrat;letter-spacing:-0.06em;}.d{fill:url(#a);}</style><linearGradient id="a" x1="0.077" y1="0.08" x2="0.785" y2="0.94" gradientUnits="objectBoundingBox"><stop offset="0" stop-color="#fbb637"/><stop offset="0.5" stop-color="#fa6169"/><stop offset="1" stop-color="#ee0789"/></linearGradient></defs><g transform="translate(-1247.999 -1391.753)"><g transform="translate(1247.999 1435.035)"><text class="a" transform="translate(1 27.741)"><tspan x="0" y="0">חנות דיגיטלית בקליק</tspan></text><g transform="translate(0 0)"><text class="b" transform="translate(0 19)"><tspan x="0" y="0">Store</tspan></text></g></g><g transform="translate(1258.172 1391.753)"><path class="c" d="M1374.993,1549.247l-4.143,6.121-4.8-8.22h-7.533l3.955,23.382,1.314.657-.727,1.342a1.186,1.186,0,0,0,.35,1.527l3.861,2.78.377-.094,5.085-7.722,9.6-19.586Z" transform="translate(-1355.549 -1528.671)"/><path class="d" d="M1363.884,1431.559q-.581-10.219-1.162-20.422c-.093-1.625-.185-3.266-.277-4.892a2.582,2.582,0,0,0-2.578-2.435H1355.9a27.716,27.716,0,0,0-.585-4.755c-.624-2.787-1.738-4.812-3.311-6.017a4.783,4.783,0,0,0-4.927-.958,8.066,8.066,0,0,0-3.623,3.7,15.4,15.4,0,0,0-1.677,5.043q-.216,1.572-.3,2.983h-3.909a2.582,2.582,0,0,0-2.578,2.435c-.093,1.626-.185,3.266-.278,4.892q-.581,10.211-1.162,20.422a2.582,2.582,0,0,0,2.578,2.729h5.643l4.111-7.713-8.8-15.725h6.432l5.428,10.238,4.068-8.035h6.347l-11.365,21.235h.017l-2.8,5.145a.422.422,0,0,0,.708.455l4.209-5.6h11.183A2.583,2.583,0,0,0,1363.884,1431.559Zm-22.036-24.94a.879.879,0,0,1-.416-1.653q-.007.285-.007.564a.358.358,0,0,0,.358.359h.005a.358.358,0,0,0,.358-.357c0-.2,0-.406.009-.613a.878.878,0,0,1-.307,1.7Zm.354-2.808c.055-.916.15-1.882.288-2.885a14.861,14.861,0,0,1,1.6-4.8,7.386,7.386,0,0,1,3.266-3.384,3.483,3.483,0,0,1,1.337-.27,4.781,4.781,0,0,1,2.883,1.133c2.175,1.666,3.362,5.009,3.61,10.2Zm13.388,2.808a.879.879,0,0,1-.369-1.676q.006.292.009.59a.358.358,0,0,0,.716-.005c0-.19,0-.39-.008-.595a.879.879,0,0,1-.349,1.686Z" transform="translate(-1333.551 -1391.753)"/></g></g></svg>