<svg xmlns="http://www.w3.org/2000/svg" width="24" height="24" viewBox="0 0 24 24"><defs><style>.a{fill:#fff;}</style></defs><g transform="translate(-600 -913)"><g transform="translate(601 921.348)"><path class="a" d="M621.5,936.652h-19a1.535,1.535,0,0,1-1.5-1.565V921.522a.5.5,0,1,1,1,0v13.565a.512.512,0,0,0,.5.522h19a.512.512,0,0,0,.5-.522V921.522a.5.5,0,1,1,1,0v13.565A1.535,1.535,0,0,1,621.5,936.652Z" transform="translate(-601 -921)"/></g><g transform="translate(600 913)"><path class="a" d="M621.2,922.391a2.919,2.919,0,0,0-4.6,0,2.919,2.919,0,0,0-4.6,0,2.919,2.919,0,0,0-4.6,0,2.919,2.919,0,0,0-4.6,0,2.712,2.712,0,0,1-2.8-2.609v-3.13a.535.535,0,0,1,.033-.187l1.15-3.13a.5.5,0,0,1,.467-.335h20.7a.5.5,0,0,1,.467.335l1.15,3.13a.535.535,0,0,1,.033.187v3.13A2.712,2.712,0,0,1,621.2,922.391Zm-1.8-2.609a1.818,1.818,0,0,0,3.6,0v-3.033l-.994-2.706H601.994L601,916.749v3.033a1.818,1.818,0,0,0,3.6,0,.5.5,0,1,1,1,0,1.818,1.818,0,0,0,3.6,0,.5.5,0,1,1,1,0,1.818,1.818,0,0,0,3.6,0,.5.5,0,1,1,1,0,1.818,1.818,0,0,0,3.6,0,.5.5,0,1,1,1,0Z" transform="translate(-600 -913)"/></g><g transform="translate(604 924.478)"><path class="a" d="M610.5,936.522h-6A.511.511,0,0,1,604,936V925.565A1.536,1.536,0,0,1,605.5,924h4a1.536,1.536,0,0,1,1.5,1.565V936A.511.511,0,0,1,610.5,936.522Zm-5.5-1.043h5v-9.913a.512.512,0,0,0-.5-.522h-4a.512.512,0,0,0-.5.522Z" transform="translate(-604 -924)"/></g><g transform="translate(614 925.522)"><path class="a" d="M618.5,930.217h-4a.511.511,0,0,1-.5-.522v-4.174a.511.511,0,0,1,.5-.522h4a.511.511,0,0,1,.5.522V929.7A.511.511,0,0,1,618.5,930.217Zm-3.5-1.043h3v-3.13h-3Z" transform="translate(-614 -925)"/></g></g></svg>