<svg xmlns="http://www.w3.org/2000/svg" width="24.619" height="25" viewBox="0 0 24.619 25"><defs><style>.a{fill:#fff;}</style></defs><g transform="translate(-552.554 -620.263)"><path class="a" d="M576.813,626.18a2.027,2.027,0,0,0-1.7-.7h-2.565a5.557,5.557,0,0,0-11.092,0h-3.67l-.5-1.97a.646.646,0,0,0-.309-.443l-3.555-2.052a.594.594,0,0,0-.841.707.587.587,0,0,0,.288.345l3.31,1.91.984,3.864,2.161,8.609a1.367,1.367,0,0,0,.043.144,2.13,2.13,0,0,0,.833,4.09l13.979,0a.585.585,0,0,0,0-1.169H560.2a.958.958,0,0,1,0-1.917H573.5a1.5,1.5,0,0,0,1.41-1.142l2.2-8.607A1.911,1.911,0,0,0,576.813,626.18Zm-9.807-4.753a4.394,4.394,0,1,1-4.394,4.394A4.4,4.4,0,0,1,567.005,621.426Zm8.96,6.139-2.2,8.607a.346.346,0,0,1-.272.25H560.734a.346.346,0,0,1-.27-.251l-2.362-9.522h3.408a5.558,5.558,0,0,0,10.991,0h2.615a1.008,1.008,0,0,1,.776.255A.778.778,0,0,1,575.966,627.566Z"/><path class="a" d="M921.268,735.287a.508.508,0,0,0,.39.181h.015a.509.509,0,0,0,.382-.172l2.778-3.15a.511.511,0,0,0-.769-.674l-2.383,2.7-1.19-1.467a.512.512,0,0,0-.9.284.5.5,0,0,0,.115.371Z" transform="translate(-355.045 -107.409)"/><g transform="translate(559.901 641.19)"><path class="a" d="M779.525,1261.013a2.037,2.037,0,1,0,2.037,2.037A2.039,2.039,0,0,0,779.525,1261.013Zm0,3.189a1.152,1.152,0,1,1,1.152-1.152A1.153,1.153,0,0,1,779.525,1264.2Z" transform="translate(-777.488 -1261.013)"/><path class="a" d="M1058.179,1261.013a2.037,2.037,0,1,0,2.037,2.037A2.039,2.039,0,0,0,1058.179,1261.013Zm0,3.189a1.152,1.152,0,1,1,1.152-1.152A1.153,1.153,0,0,1,1058.179,1264.2Z" transform="translate(-1047.041 -1261.013)"/><path class="a" d="M922.172,1311.085h-3.151a.4.4,0,0,0,0,.8h3.151a.4.4,0,1,0,0-.8Z" transform="translate(-914.011 -1309.45)"/></g></g></svg>