<svg xmlns="http://www.w3.org/2000/svg" width="15.068" height="20" viewBox="0 0 15.068 20"><defs><style>.a{fill:#051d3f;}</style></defs><path class="a" d="M347.851,117.043a2.87,2.87,0,0,0-1.581-1.509l-3.021-1.174a.592.592,0,0,0-.471.012.613.613,0,0,0-.319.335l-1.986,4.992a.612.612,0,0,0,.347.784l1.308.511c-.514,1.082-1.091,2.179-1.72,3.273-.61,1.06-1.271,2.1-1.962,3.1l-1.091-.877a.613.613,0,0,0-.88.121l-3.31,4.193a.617.617,0,0,0,.1.855l2.532,2.027a2.849,2.849,0,0,0,1.791.629,2.494,2.494,0,0,0,.3-.015,2.874,2.874,0,0,0,1.924-1.035,50.614,50.614,0,0,0,8.1-14.041A2.835,2.835,0,0,0,347.851,117.043Zm-11.293,15.693-2.061-1.652,2.572-3.257,1.227.985h.034a.608.608,0,0,0,.738-.208c.849-1.193,1.655-2.445,2.4-3.74q1.106-1.911,2.052-3.982a.612.612,0,0,0-.009-.468.6.6,0,0,0-.338-.322l-1.336-.521,1.534-3.855,2.458.958a1.655,1.655,0,0,1,.942,2.12,48.763,48.763,0,0,1-3.4,7.168,49.432,49.432,0,0,1-4.509,6.53,1.635,1.635,0,0,1-1.1.6A1.565,1.565,0,0,1,336.558,132.736Z" transform="translate(-333.035 -114.316)"/></svg>