<svg xmlns="http://www.w3.org/2000/svg" width="25.043" height="24" viewBox="0 0 25.043 24"><defs><style>.a{fill:#fbb637;}</style></defs><g transform="translate(-504 -816)"><g transform="translate(505.043 827.478)"><path class="a" d="M522.842,839.522H510.114a2.615,2.615,0,0,1-2.451-1.718l-2.646-10.151a.521.521,0,0,1,.505-.653h21.913a.521.521,0,0,1,.505.653l-2.632,10.105A2.627,2.627,0,0,1,522.842,839.522ZM506.2,828.043l2.461,9.452a1.56,1.56,0,0,0,1.457.983h12.728a1.569,1.569,0,0,0,1.471-1.03l2.447-9.4Z" transform="translate(-505 -827)"/></g><g transform="translate(506.087 818.087)"><path class="a" d="M526.348,825.3H506.522a.522.522,0,0,1-.471-.748l2.369-4.936a2.571,2.571,0,0,1,2.411-1.62h1.951a.522.522,0,0,1,0,1.043h-1.951a1.55,1.55,0,0,0-1.455.992l-2.026,4.225h18.169l-2.011-4.188a1.567,1.567,0,0,0-1.47-1.029h-1.951a.522.522,0,1,1,0-1.043h1.951a2.588,2.588,0,0,1,2.427,1.657l2.353,4.9a.522.522,0,0,1-.471.748Z" transform="translate(-506 -818)"/></g><g transform="translate(512.348 816)"><path class="a" d="M518.261,820.174h-4.174a2.087,2.087,0,1,1,0-4.174h4.174a2.087,2.087,0,1,1,0,4.174Zm-4.174-3.13a1.043,1.043,0,1,0,0,2.087h4.174a1.043,1.043,0,0,0,0-2.087Z" transform="translate(-512 -816)"/></g><g transform="translate(504 824.348)"><path class="a" d="M527.478,828.174H505.565A1.567,1.567,0,0,1,504,826.609v-1.043A1.567,1.567,0,0,1,505.565,824h21.913a1.567,1.567,0,0,1,1.565,1.565v1.043A1.567,1.567,0,0,1,527.478,828.174Zm-21.913-3.13a.523.523,0,0,0-.522.522v1.043a.523.523,0,0,0,.522.522h21.913a.523.523,0,0,0,.522-.522v-1.043a.523.523,0,0,0-.522-.522Z" transform="translate(-504 -824)"/></g><g transform="translate(511.304 830.609)"><path class="a" d="M511.522,836.261a.522.522,0,0,1-.522-.522v-5.217a.522.522,0,0,1,1.043,0v5.217A.522.522,0,0,1,511.522,836.261Z" transform="translate(-511 -830)"/></g><g transform="translate(516.522 830.609)"><path class="a" d="M516.522,836.261a.522.522,0,0,1-.522-.522v-5.217a.522.522,0,0,1,1.044,0v5.217A.522.522,0,0,1,516.522,836.261Z" transform="translate(-516 -830)"/></g><g transform="translate(521.739 830.609)"><path class="a" d="M521.522,836.261a.522.522,0,0,1-.522-.522v-5.217a.522.522,0,0,1,1.043,0v5.217A.522.522,0,0,1,521.522,836.261Z" transform="translate(-521 -830)"/></g></g></svg>