<svg xmlns="http://www.w3.org/2000/svg" width="24" height="24" viewBox="0 0 24 24"><defs><style>.a{fill:#fff;}</style></defs><g transform="translate(-768 -1176)"><path class="a" d="M781.5,1200h-3a.5.5,0,0,1-.485-.379l-.761-3.054a8.5,8.5,0,0,1-1.368-.568l-2.7,1.622a.5.5,0,0,1-.611-.075l-2.121-2.121a.5.5,0,0,1-.075-.612l1.622-2.7a8.415,8.415,0,0,1-.568-1.368l-3.054-.761a.5.5,0,0,1-.379-.485v-3a.5.5,0,0,1,.379-.485l3.054-.761a8.415,8.415,0,0,1,.568-1.368l-1.622-2.7a.5.5,0,0,1,.075-.612l2.121-2.121a.5.5,0,0,1,.611-.075l2.7,1.622a8.5,8.5,0,0,1,1.368-.568l.761-3.054a.5.5,0,0,1,.485-.379h3a.5.5,0,0,1,.485.379l.761,3.054a8.5,8.5,0,0,1,1.368.568l2.7-1.622a.5.5,0,0,1,.611.075l2.121,2.121a.5.5,0,0,1,.075.612l-1.622,2.7a8.415,8.415,0,0,1,.568,1.368l3.054.761a.5.5,0,0,1,.379.485v3a.5.5,0,0,1-.379.485l-3.054.761a8.415,8.415,0,0,1-.568,1.368l1.622,2.7a.5.5,0,0,1-.075.612l-2.121,2.121a.5.5,0,0,1-.611.075l-2.7-1.622a8.5,8.5,0,0,1-1.368.568l-.761,3.054A.5.5,0,0,1,781.5,1200Zm-2.609-1h2.218l.736-2.951a.5.5,0,0,1,.35-.361,7.474,7.474,0,0,0,1.687-.7.5.5,0,0,1,.52.014l.04.029,2.552,1.534,1.569-1.569-1.544-2.569a.428.428,0,0,1-.029-.044.5.5,0,0,1,0-.5,7.44,7.44,0,0,0,.7-1.687.5.5,0,0,1,.361-.35l2.951-.736v-2.218l-2.951-.736a.5.5,0,0,1-.361-.35,7.44,7.44,0,0,0-.7-1.687.5.5,0,0,1,0-.5.606.606,0,0,1,.041-.059l1.535-2.554-1.569-1.568-2.568,1.542-.024.017a.5.5,0,0,1-.52.017,7.474,7.474,0,0,0-1.687-.7.5.5,0,0,1-.35-.361l-.736-2.951h-2.218l-.736,2.951a.5.5,0,0,1-.35.361,7.474,7.474,0,0,0-1.687.7.5.5,0,0,1-.52-.014l-.04-.029-2.552-1.533-1.568,1.568,1.534,2.554a.606.606,0,0,1,.041.059.5.5,0,0,1,0,.5,7.44,7.44,0,0,0-.7,1.687.5.5,0,0,1-.361.35l-2.951.736v2.218l2.951.736a.5.5,0,0,1,.361.35,7.44,7.44,0,0,0,.7,1.687.5.5,0,0,1,0,.5.606.606,0,0,1-.041.059l-1.534,2.554,1.568,1.569,2.568-1.543.024-.017a.5.5,0,0,1,.52-.017,7.474,7.474,0,0,0,1.687.7.5.5,0,0,1,.35.361Z"/><path class="a" d="M780,1193a5,5,0,1,1,5-5A5.006,5.006,0,0,1,780,1193Zm0-9a4,4,0,1,0,4,4A4,4,0,0,0,780,1184Z"/></g></svg>