<svg xmlns="http://www.w3.org/2000/svg" width="23" height="24" viewBox="0 0 23 24"><defs><style>.a{fill:#fff;}</style></defs><g transform="translate(-960.5 -815.999)"><g transform="translate(960.5 824)"><path class="a" d="M980.8,827a2.826,2.826,0,0,0-4.4,0,2.826,2.826,0,0,0-4.4,0,2.826,2.826,0,0,0-4.4,0,2.826,2.826,0,0,0-4.4,0,2.608,2.608,0,0,1-2.7-2.5.5.5,0,0,1,1,0,1.713,1.713,0,0,0,3.4,0,.5.5,0,0,1,1,0,1.713,1.713,0,0,0,3.4,0,.5.5,0,0,1,1,0,1.713,1.713,0,0,0,3.4,0,.5.5,0,0,1,1,0,1.713,1.713,0,0,0,3.4,0,.5.5,0,0,1,1,0,1.713,1.713,0,0,0,3.4,0,.5.5,0,0,1,1,0A2.608,2.608,0,0,1,980.8,827Z" transform="translate(-960.5 -824)"/></g><g transform="translate(960.5 816)"><path class="a" d="M983,825a.5.5,0,0,1-.477-.35l-2.293-7.274a.506.506,0,0,0-.484-.376H964.254a.5.5,0,0,0-.48.362l-2.3,7.288a.5.5,0,0,1-.954-.3l2.293-7.275A1.5,1.5,0,0,1,964.254,816h15.491a1.5,1.5,0,0,1,1.442,1.089l2.289,7.261a.5.5,0,0,1-.327.627A.515.515,0,0,1,983,825Z" transform="translate(-960.5 -816)"/></g><g transform="translate(962 826)"><path class="a" d="M980.5,840h-17a1.5,1.5,0,0,1-1.5-1.5v-12a.5.5,0,1,1,1,0v12a.5.5,0,0,0,.5.5h17a.5.5,0,0,0,.5-.5v-12a.5.5,0,1,1,1,0v12A1.5,1.5,0,0,1,980.5,840Z" transform="translate(-962 -826)"/></g><g transform="translate(969 825)"><path class="a" d="M969.5,840a.5.5,0,0,1-.5-.5v-14a.5.5,0,1,1,1,0v14A.5.5,0,0,1,969.5,840Z" transform="translate(-969 -825)"/></g><g transform="translate(967 831)"><path class="a" d="M967.5,833a.5.5,0,0,1-.5-.5v-1a.5.5,0,0,1,1,0v1A.5.5,0,0,1,967.5,833Z" transform="translate(-967 -831)"/></g><g transform="translate(971.999 828.999)"><path class="a" d="M972.5,833a.5.5,0,0,1-.354-.854l3-3a.5.5,0,1,1,.708.708l-3,3A.5.5,0,0,1,972.5,833Z" transform="translate(-972 -829)"/></g><g transform="translate(972.999 830.999)"><path class="a" d="M973.5,836a.5.5,0,0,1-.354-.854l4-4a.5.5,0,0,1,.708.708l-4,4A.5.5,0,0,1,973.5,836Z" transform="translate(-973 -831)"/></g><g transform="translate(976.895 816.001)"><path class="a" d="M978.6,825a.5.5,0,0,1-.494-.426l-1.2-8a.5.5,0,0,1,.989-.148l1.2,8a.5.5,0,0,1-.42.568A.48.48,0,0,1,978.6,825Z" transform="translate(-976.895 -816.002)"/></g><g transform="translate(972.958 816.001)"><path class="a" d="M974.2,825a.5.5,0,0,1-.5-.454l-.742-8a.5.5,0,0,1,.452-.544.508.508,0,0,1,.544.452l.742,8a.5.5,0,0,1-.452.544Z" transform="translate(-972.958 -816.001)"/></g><g transform="translate(969.3 816.001)"><path class="a" d="M969.8,825l-.043,0a.5.5,0,0,1-.456-.54l.679-8a.52.52,0,0,1,.54-.456.5.5,0,0,1,.457.54l-.68,8A.5.5,0,0,1,969.8,825Z" transform="translate(-969.3 -816.001)"/></g><g transform="translate(964.9 815.999)"><path class="a" d="M965.4,825a.44.44,0,0,1-.08-.007.5.5,0,0,1-.415-.572l1.287-8a.5.5,0,0,1,.989.158l-1.287,8A.5.5,0,0,1,965.4,825Z" transform="translate(-964.9 -815.999)"/></g></g></svg>