<svg xmlns="http://www.w3.org/2000/svg" width="17.5" height="20" viewBox="0 0 17.5 20"><defs><style>.a{fill:#051f43;}</style></defs><g transform="translate(-1681 -336)"><g transform="translate(1681 338.5)"><path class="a" d="M1698.083,342.333h-16.667a.417.417,0,0,1-.417-.417v-.833a2.086,2.086,0,0,1,2.083-2.083h13.333a2.086,2.086,0,0,1,2.083,2.083v.833A.417.417,0,0,1,1698.083,342.333Zm-16.25-.833h15.833v-.417a1.252,1.252,0,0,0-1.25-1.25h-13.333a1.252,1.252,0,0,0-1.25,1.25Z" transform="translate(-1681 -339)"/></g><g transform="translate(1685.167 336)"><path class="a" d="M1694.75,339.333h-8.333a.417.417,0,0,1-.417-.417,2.92,2.92,0,0,1,2.917-2.917h3.333a2.92,2.92,0,0,1,2.917,2.917A.417.417,0,0,1,1694.75,339.333Zm-7.875-.833h7.417a2.087,2.087,0,0,0-2.042-1.667h-3.333A2.087,2.087,0,0,0,1686.875,338.5Z" transform="translate(-1686 -336)"/></g><g transform="translate(1682.667 342.667)"><path class="a" d="M1695.083,357.333h-10A2.086,2.086,0,0,1,1683,355.25V344.417a.417.417,0,1,1,.833,0V355.25a1.252,1.252,0,0,0,1.25,1.25h10a1.251,1.251,0,0,0,1.25-1.25V344.417a.417.417,0,0,1,.833,0V355.25A2.086,2.086,0,0,1,1695.083,357.333Z" transform="translate(-1683 -344)"/></g><g transform="translate(1686 345.167)"><path class="a" d="M1687.417,355.333a.417.417,0,0,1-.417-.417v-7.5a.417.417,0,0,1,.833,0v7.5A.417.417,0,0,1,1687.417,355.333Z" transform="translate(-1687 -347)"/></g><g transform="translate(1692.667 345.167)"><path class="a" d="M1695.417,355.333a.417.417,0,0,1-.417-.417v-7.5a.417.417,0,1,1,.833,0v7.5A.417.417,0,0,1,1695.417,355.333Z" transform="translate(-1695 -347)"/></g><g transform="translate(1689.333 345.167)"><path class="a" d="M1691.417,355.333a.417.417,0,0,1-.417-.417v-7.5a.417.417,0,0,1,.833,0v7.5A.417.417,0,0,1,1691.417,355.333Z" transform="translate(-1691 -347)"/></g></g></svg>