<svg xmlns="http://www.w3.org/2000/svg" width="20" height="20" viewBox="0 0 20 20"><defs><style>.a,.b{fill:none;}.b{stroke:#2c3e50;stroke-linecap:round;stroke-linejoin:round;stroke-width:1.5px;}</style></defs><path class="a" d="M0,0H20V20H0Z"/><path class="b" d="M14,3V6.333a.833.833,0,0,0,.833.833h3.333" transform="translate(-2.333 -0.5)"/><path class="b" d="M15,18H6.667A1.667,1.667,0,0,1,5,16.333V4.667A1.667,1.667,0,0,1,6.667,3H12.5l4.167,4.167v9.167A1.667,1.667,0,0,1,15,18Z" transform="translate(-0.833 -0.5)"/><line class="b" y2="5" transform="translate(10 9.167)"/><path class="b" d="M9,13.5,11.5,11,14,13.5" transform="translate(-1.5 -1.833)"/></svg>