<svg xmlns="http://www.w3.org/2000/svg" width="24" height="16" viewBox="0 0 24 16"><defs><style>.a{fill:#051f44;}</style></defs><g transform="translate(-1488 -340)"><g transform="translate(1488 340)"><path class="a" d="M1500,356c-7.711,0-11.772-7.448-11.941-7.765a.5.5,0,0,1,0-.47c.169-.317,4.23-7.765,11.941-7.765s11.772,7.448,11.941,7.765a.5.5,0,0,1,0,.47C1511.772,348.552,1507.711,356,1500,356Zm-10.923-8c.749,1.245,4.556,7,10.923,7s10.176-5.753,10.923-7c-.749-1.245-4.556-7-10.923-7S1489.824,346.753,1489.077,348Z" transform="translate(-1488 -340)"/></g><g transform="translate(1495 343)"><path class="a" d="M1500,353a5,5,0,1,1,5-5A5.006,5.006,0,0,1,1500,353Zm0-9a4,4,0,1,0,4,4A4,4,0,0,0,1500,344Z" transform="translate(-1495 -343)"/></g></g></svg>