<svg xmlns="http://www.w3.org/2000/svg" width="529.622" height="420.101" viewBox="0 0 529.622 420.101"><defs><style>.a,.h{fill:#b1bee8;}.a{opacity:0.7;}.b{fill:#ededf2;}.c{fill:#d7d7e2;}.d,.q{fill:#fff;}.e{fill:#76a0ff;}.f{fill:#597def;}.g{fill:#9faed3;}.i{fill:#518de5;}.j{fill:#e89c82;}.k{fill:#99beff;}.l{fill:#002560;}.m{fill:#063e8e;}.n{fill:#f4ae92;}.o{fill:#0944ad;}.p{fill:#001430;}.ac,.q{opacity:0.5;}.ab,.r,.y{fill:none;stroke-miterlimit:10;}.r{stroke:#fff;stroke-width:5px;}.s{fill:#f2f2f2;}.t{fill:#061230;}.u{fill:#02294f;}.v{fill:#03336d;}.w{fill:#7aa9e2;}.x{fill:#c19476;}.y{stroke:#99beff;stroke-width:3px;}.z{fill:#ff3364;}.aa,.ac{fill:#eff1f4;}.ab{stroke:#eff1f4;stroke-width:2px;}</style></defs><g transform="translate(-113 -117.552)"><ellipse class="a" cx="122.807" cy="36.357" rx="122.807" ry="36.357" transform="translate(255.178 426.471)"/><g transform="translate(330.35 409.399)"><path class="b" d="M453.053,543.416s.981,15.318-2.314,25.878c-5.416,17.359-20.581,19.183-20.581,28.4,0,.173,95.27.21,95.27,0,0-8.8-14.365-11.6-19.356-27.771-3.738-12.118-1.577-26.509-1.577-26.509Z" transform="translate(-430.158 -543.416)"/><rect class="c" width="95.254" height="4.208" transform="translate(0.016 54.123)"/></g><g transform="translate(210.321 188.374)"><rect class="d" width="335.783" height="229.747" rx="15"/><rect class="e" width="306.749" height="179.253" transform="translate(14.289 15.262)"/></g><circle class="a" cx="7.574" cy="7.574" r="7.574" transform="translate(370.411 392.988)"/><path class="f" d="M12.5,0H277.819a12.75,12.75,0,0,1,12.75,12.75V168.242a0,0,0,0,1,0,0H0a0,0,0,0,1,0,0V12.5A12.5,12.5,0,0,1,12.5,0Z" transform="translate(232.243 214.144)"/><path class="d" d="M12.5,0H277.819a12.75,12.75,0,0,1,12.75,12.75v1.984a0,0,0,0,1,0,0H0a0,0,0,0,1,0,0V12.5A12.5,12.5,0,0,1,12.5,0Z" transform="translate(232.243 214.144)"/><circle class="e" cx="2.227" cy="2.227" r="2.227" transform="translate(238.068 218.941)"/><circle class="e" cx="2.227" cy="2.227" r="2.227" transform="translate(244.921 218.941)"/><circle class="e" cx="2.227" cy="2.227" r="2.227" transform="translate(251.774 218.941)"/><g transform="translate(113 248.23)"><ellipse class="a" cx="34.951" cy="14.88" rx="34.951" ry="14.88" transform="translate(0 195.592)"/><g transform="translate(0.822)"><path class="g" d="M179.9,517.19c0,5.3-14.48,9.6-32.344,9.6S114.2,523,114.2,517.695s15.491-10.107,33.354-10.107S179.9,511.887,179.9,517.19Z" transform="translate(-114.2 -370.972)"/><path class="h" d="M142.955,484.9c6.064-20.214-2.426-49.669-5.529-59.04-4.032-12.178-3.423-25.356-5.535-38.009-2.462-14.755-8.588-28.609-14.659-42.281-4.335,22.743,1.055,46.069,5.979,68.692s3.573,44.36,10.648,68.617" transform="translate(-114.654 -319.987)"/><path class="h" d="M170.243,482.732c7.623-7.882,9.229-19.8,8.764-30.753s-2.587-21.982-.822-32.8c1.323-8.119,4.779-15.722,6.92-23.665,3.368-12.5,3.431-25.613,3.472-38.556a174.24,174.24,0,0,0-13.265,26.958c-3.7,9.5-6.55,19.31-9.4,29.1-1.891,6.5-3.794,13.063-4.277,19.817-.656,9.18,1.332,18.32,2.008,27.5s-.173,19.036-5.689,26.4" transform="translate(-127.969 -323.569)"/><g transform="translate(13.603)"><path class="h" d="M154.811,393.307c0-31.333-10.107-67.719-20.367-85.069-2.567,15.969,8.238,45.65,7.871,82.274-.3,30.339,9.34,61.732,9.09,86.058C160.988,449.9,154.811,421.679,154.811,393.307Z" transform="translate(-134.05 -308.238)"/></g><path class="d" d="M192.48,358.628c-3.017,9.662-5.738,19.406-8.307,29.191L176.531,417.2c-.676,2.449-1.36,4.859-1.85,7.325s-.868,4.953-1.127,7.457a148.5,148.5,0,0,0-.608,15.114c-.008,5.054.117,10.121-.1,15.191a49.715,49.715,0,0,1-2.6,14.93,51.517,51.517,0,0,0,2.107-14.946c.115-5.049-.1-10.1-.182-15.168a130.27,130.27,0,0,1,.469-15.212c.247-2.531.6-5.054,1.1-7.554s1.164-4.969,1.821-7.4c2.678-9.752,5.134-19.574,7.869-29.324S189.066,368.159,192.48,358.628Z" transform="translate(-131.837 -324.095)"/><path class="d" d="M117.887,347.567c.631,5.282,1.492,10.53,2.478,15.753.963,5.227,2.018,10.438,3.106,15.643,2.172,10.41,4.368,20.822,6.228,31.31.922,5.245,1.625,10.535,2.379,15.789s1.621,10.506,2.442,15.759c1.619,10.507,3.6,20.98,4.592,31.581-.67-5.277-1.615-10.51-2.562-15.743l-2.808-15.707c-.935-5.238-1.772-10.493-2.579-15.754-.783-5.271-1.53-10.521-2.452-15.754-1.771-10.477-3.99-20.881-5.99-31.331C120.74,368.665,118.758,358.18,117.887,347.567Z" transform="translate(-115.36 -320.615)"/><path class="d" d="M135.217,309.589c2.991,12.539,6.039,25.04,8.825,37.643,1.3,6.327,2.214,12.717,3.015,19.117s1.417,12.824,1.837,19.265a160.82,160.82,0,0,1,.123,19.363,92.052,92.052,0,0,0,.175,9.611c.182,3.207.472,6.412.754,9.617.591,6.41,1.336,12.809,1.99,19.22.613,6.412,1.231,12.843,1.221,19.289-.155-6.443-.937-12.843-1.713-19.235-.755-6.4-1.585-12.785-2.271-19.2-.336-3.207-.665-6.416-.853-9.641a93.037,93.037,0,0,1-.221-9.7,160.453,160.453,0,0,0-.213-19.264c-.387-6.418-.983-12.828-1.74-19.217s-1.69-12.758-2.865-19.077Z" transform="translate(-120.814 -308.663)"/><path class="h" d="M196.321,423.809c-3.653,18.375-10.554,31.038-15.05,46.806-2.412,8.46-4.583,19.218-2.122,27.664l5.024-1.371c.606-9.781,6.4-18.346,10.127-27.407A68.009,68.009,0,0,0,196.321,423.809Z" transform="translate(-134.298 -344.608)"/><path class="h" d="M127.13,474.307c-4.821-10.066-9.685-21.059-7.5-32.005-3.938,5.45-5.119,12.527-4.472,19.219s2.973,13.1,5.52,19.324c3.439,8.4,7.394,17.52,4.855,26.236l9.62-.838C136.985,495.234,131.951,484.373,127.13,474.307Z" transform="translate(-114.448 -350.427)"/><path class="d" d="M197.466,424.627a33.859,33.859,0,0,1,.913,10.152,54.284,54.284,0,0,1-1.718,10.093,135.556,135.556,0,0,1-7.231,19.1c-1.378,3.1-2.723,6.211-3.864,9.391a58.067,58.067,0,0,0-2.6,9.761,50.716,50.716,0,0,0-.709,10.088,53.215,53.215,0,0,0,1.2,10.082,49.063,49.063,0,0,1-1.262-20.291c.958-6.815,3.61-13.22,6.312-19.435a146.8,146.8,0,0,0,7.41-18.906C197.8,438.2,198.775,431.336,197.466,424.627Z" transform="translate(-135.433 -344.865)"/><path class="d" d="M120.14,442.694c-2.124,5.331-2.1,11.191-1.069,16.717a63.008,63.008,0,0,0,2.092,8.21c.89,2.684,1.972,5.308,3.081,7.926,2.148,5.25,4.555,10.5,5.726,16.152a57.519,57.519,0,0,1,1.1,8.514,82.492,82.492,0,0,1-.069,8.558,75.7,75.7,0,0,0-1.8-16.9c-1.3-5.508-3.66-10.692-5.894-15.935-1.088-2.636-2.151-5.3-3.028-8.029a54.092,54.092,0,0,1-1.991-8.367,37.287,37.287,0,0,1-.372-8.592,29.437,29.437,0,0,1,.743-4.236A23.957,23.957,0,0,1,120.14,442.694Z" transform="translate(-115.338 -350.551)"/><path class="d" d="M171.812,585.548s-7.581,7.58-24.763,7.58-22.741-7.58-22.741-7.58L114.2,520.861s10.108,8.086,34.365,8.086c19.2,0,31.333-8.086,31.333-8.086Z" transform="translate(-114.2 -375.15)"/></g></g><g transform="translate(575.915 395.579)"><ellipse class="a" cx="26.515" cy="9.632" rx="26.515" ry="9.632" transform="translate(2.157 56.612)"/><g transform="translate(0)"><path class="d" d="M816.307,543.93c-.923,0-1.833-.015-2.734-.039-.3-.008-.59-.021-.887-.031-.6-.021-1.191-.044-1.776-.076-.345-.018-.685-.04-1.027-.062q-.78-.05-1.544-.112c-.362-.029-.72-.059-1.076-.093-.469-.043-.93-.092-1.388-.142-.365-.04-.729-.079-1.086-.123-.429-.052-.846-.112-1.264-.17-.363-.051-.732-.1-1.085-.153-.21-.032-.406-.07-.614-.1q-1.451-.238-2.787-.522c-.2-.042-.4-.081-.592-.124-.462-.1-.9-.212-1.344-.323-.167-.042-.335-.084-.5-.127-.451-.119-.884-.242-1.307-.369l-.341-.1c-.453-.141-.89-.286-1.308-.436l-.075-.028a12.878,12.878,0,0,1-5.089-2.933c0,27.329,9.714,55.045,10.2,55.289,17.236,8.618,35.62,1.149,35.62,1.149s10.341-29.492,9.834-56.453C841.016,541.337,829.758,543.93,816.307,543.93Z" transform="translate(-788.487 -527.843)"/><path class="g" d="M844.353,531.645c0,4.442-12.177,7.693-28.041,7.693S788.5,536.944,788.5,532.5s11.946-9.251,27.811-9.251S844.353,527.2,844.353,531.645Z" transform="translate(-788.491 -523.251)"/><path class="d" d="M857.07,583.478a21.8,21.8,0,0,1-5.771-.786l1.147-4.065c1.914.534,8.525,1.943,13.239-2.641,4.9-4.772,5.785-14.021,4.534-20.6-.777-4.094-2.13-5.879-2.663-6.1-.035-.021-2.621-.662-10.254,11.523l-3.582-2.241c6.84-10.921,11.472-14.845,15.468-13.182,3.243,1.36,4.64,6.355,5.183,9.21,1.5,7.906.312,18.522-5.74,24.417A16.165,16.165,0,0,1,857.07,583.478Z" transform="translate(-808.253 -530.102)"/></g></g><path class="h" d="M847.766,430.97c-2.786-2.531-6.215-5.039-6.671-8.775-.559-4.574,3.725-8.947,2.486-13.386-1.467-5.255-9.558-6.574-10.625-11.924-.554-2.78,1.091-5.465,1.782-8.215a12.755,12.755,0,0,0-6.5-14.089c.779,4.724-2.268,9.124-4.971,13.075s-5.313,8.822-3.631,13.3c1.253,3.34,4.78,6.07,4.219,9.592-.809,5.076-8.849,5.491-10.94,10.185-2.641,5.928,6.321,11.759,5,18.111-.729,3.491-4.285,5.574-6.155,8.61-2.417,3.925-1.717,9.155.555,13.167a15.878,15.878,0,0,0,9.984,7.1,17.75,17.75,0,0,0,11.047-1.927c3.354-1.725,5.942-5.566,4.961-9.208-.623-2.307-2.56-4.3-2.374-6.68.247-3.146,3.9-4.72,7.01-5.271s6.752-1.07,8.292-3.825C853.065,437.527,850.551,433.5,847.766,430.97Z" transform="translate(-219.418 -80.886)"/><path class="i" d="M594.413,509.027l74.765,148.164,3.671-1.852L660.666,631.2h51.013l13.118,26,3.67-1.852L653.7,507.175l-3.67,1.852,17.589,34.857H616.608l-18.524-36.709ZM669.7,548l10.922,21.645H629.606L618.683,548Zm13,25.757,11.5,22.786H643.178l-11.5-22.786Zm-24.1,53.33-13.338-26.433h51.013L709.6,627.084Z" transform="translate(-151.498 -122.612)"/><g transform="translate(303.515 117.552)"><g transform="translate(0)"><path class="j" d="M408.8,170.254c-.336,2.936-2,13.207-.754,16.355a17.8,17.8,0,0,0,3.857,5.619c1.062-.447,4.138-7.856,5.2-8.3l-1.174-12.5C413.752,171.037,410.984,170.645,408.8,170.254Z" transform="translate(-396.222 -134.137)"/><path class="j" d="M461.038,170.387c.384,3.087,1.771,13.679.214,16.682a26.1,26.1,0,0,1-5.451,6.207c-1.011-.554-3.122-9.528-4.133-10.082l2.448-12.31C456.325,170.719,458.829,170.553,461.038,170.387Z" transform="translate(-410.092 -134.179)"/><path class="k" d="M442.452,190.74h-22.9s-2.89-19.2,1.258-23.567c4.474-4.715,18.08-4.479,21.3-.5C445.91,171.351,442.452,190.74,442.452,190.74Z" transform="translate(-399.678 -132.062)"/><path class="l" d="M405.6,205.28a94.979,94.979,0,0,0,19.992,1.841c13.177-.188,20.131-3.057,20.889-.762.855,2.595-6.6,10.582-15.3,12.319-3.715.742-8.508-.966-18.093-4.381-2.775-.989-6.171-2.347-7.227-5.778A8.063,8.063,0,0,1,405.6,205.28Z" transform="translate(-395.577 -145.159)"/><path class="k" d="M409.108,165.865a14.878,14.878,0,0,1,2.191-7.377c1.933-1.4,4-2.292,8.4-3.506a33.5,33.5,0,0,1,11.123-.967c7.056.615,12.037,2.784,14.508,4.533a14.684,14.684,0,0,1,2.525,6.981C448.123,168.484,409.31,167.7,409.108,165.865Z" transform="translate(-396.695 -128.993)"/><path class="d" d="M410.71,199.055l35.32-.1c.556-1.1,1.044-21.363,1.044-21.363l-37.789.1S410.18,198.062,410.71,199.055Z" transform="translate(-396.754 -136.448)"/><rect class="m" width="17.532" height="13.559" transform="translate(22.569 12.77)"/><path class="j" d="M440,147.961c-.322,2.3-1.149,4.957-.3,7.375-2.015.161-4.876-.343-6.891-.182a19.524,19.524,0,0,0-1.088-7.617C434.578,147.779,437.137,147.719,440,147.961Z" transform="translate(-403.813 -126.988)"/><path class="n" d="M441.725,134.538c0,5.215-3.32,9.443-7.414,9.443s-7.414-4.228-7.414-9.443,3.32-9.442,7.414-9.442S441.725,129.324,441.725,134.538Z" transform="translate(-402.296 -119.926)"/><path class="j" d="M436.223,154.016a34.068,34.068,0,0,0-9.973.678c.038,2.667,3.472,4.822,7.706,4.822,4.1,0,7.452-2.022,7.693-4.573A33.377,33.377,0,0,0,436.223,154.016Z" transform="translate(-402.093 -128.993)"/><path class="o" d="M433.821,123.24a6.013,6.013,0,0,1-1.756,3.375c-2.75,2.8-5.132,3.276-6.711,5.26-1.377,1.73-1.315,6.861,2.205,14.381a6.226,6.226,0,0,1-6.736-.6c-2.807-1.986-2.048-11.771,0-17.706,1.221-3.546,2.638-7.658,6.71-9.491.422-.19,4.276-1.856,7.919-.121,3.616,1.721,5.005,5.734,6.533,11.384.931,3.442,1.9,12.22.821,14.423-1.245,2.538-4.174,2.736-6.266,2.182,3.243-3.133,2.984-12.738,2.6-15.569A9.332,9.332,0,0,0,433.821,123.24Z" transform="translate(-399.809 -117.552)"/><path class="h" d="M438.18,191.033a2.3,2.3,0,1,1-2.3-2.3A2.3,2.3,0,0,1,438.18,191.033Z" transform="translate(-404.399 -139.952)"/><path class="j" d="M437.91,231.8a3.229,3.229,0,0,0,.836,1.752c.948,1.149,2.585,1.271,2.979,1.568,1.288.972,3.993,2.791,10.443,5.161.713.262,4.292,1.336,5.428-1.341,1.094-2.578-1.564-4.567-4.624-5.849-2.935-1.23-4.456-.94-6.373-2.158-.861-.548-1.463-1.508-2-1.579a1.305,1.305,0,0,0-1.393.563" transform="translate(-405.762 -152.73)"/><path class="o" d="M414.205,210.295c-2.333-2.05-5.787-5.245-10.679-7.213a19.684,19.684,0,0,0-8.946-1.677A6.142,6.142,0,0,0,391,206.493c-.112,4.25,6.2,10.366,12.133,12.8,8.6,3.538,22.22,7.657,23.818,7.268,2.069-.5,3.467-4.7,3.467-4.7A139.336,139.336,0,0,1,414.205,210.295Z" transform="translate(-391 -143.929)"/><path class="j" d="M423.561,233.619a3.231,3.231,0,0,1-.981,1.676c-1.042,1.064-2.682,1.049-3.1,1.312-1.365.86-4.214,2.445-10.841,4.263-.733.2-4.389.97-5.3-1.793-.873-2.661,1.942-4.42,5.1-5.44,3.028-.979,4.52-.561,6.532-1.614.9-.473,1.584-1.379,2.128-1.4a1.3,1.3,0,0,1,1.34.678" transform="translate(-394.833 -153.133)"/><path class="o" d="M461.153,201.4a19.684,19.684,0,0,0-8.946,1.677c-4.892,1.968-8.346,5.162-10.679,7.213a92.862,92.862,0,0,1-15.935,11.854s.561,5.256,2.908,4.864c3.643-.607,15.493-4.178,24.1-7.716,5.928-2.438,12.245-8.555,12.133-12.8A6.143,6.143,0,0,0,461.153,201.4Z" transform="translate(-401.886 -143.929)"/><path class="l" d="M408.639,242.2c.593-.162,1.154-.323,1.689-.482a4.926,4.926,0,0,1-1.487-6.872c-.13.039-.26.077-.4.121-3.158,1.02-5.973,2.779-5.1,5.44C404.25,243.171,407.906,242.4,408.639,242.2Z" transform="translate(-394.833 -154.464)"/><path class="l" d="M460.361,235.921c-.543-.29-1.06-.559-1.557-.811a4.924,4.924,0,0,1-3.648,6.01c.121.062.243.123.372.186,2.994,1.431,6.247,2.092,7.444-.441C464.214,238.236,461.031,236.28,460.361,235.921Z" transform="translate(-411.19 -154.547)"/></g></g><g transform="translate(367.248 416.595)"><g transform="translate(0 2.795)"><g transform="translate(40.241 82.67)"><path class="p" d="M551.4,679.51a6.346,6.346,0,0,1,2.3-.879c1.1.061,3.113,1.54,3.98,1.967,2,.983,6.048,1.893,8.034,2.9,2.8,1.423,3.175,4.924,3.175,4.924l-6.611-3.306-8.368-3.933Z" transform="translate(-545.452 -678.629)"/><path class="l" d="M542.719,684.127a3.733,3.733,0,0,0,1.133,1.937c1.2,1.23,3.1,1.212,3.583,1.516,1.578.994,5.027,3.318,12.686,5.42.848.232,4.917.628,5.965-2.564,1.009-3.076-2.244-5.108-5.894-6.288-3.5-1.131-4.385-1.062-6.71-2.279-1.045-.547-2.385-2.063-3.012-2.092-.575-.026-2.671-.174-3.013.5" transform="translate(-542.719 -678.98)"/><path class="o" d="M547.157,683.981a66.2,66.2,0,0,1,13.1,4.126c1.162.5,2.509,1.374,2.353,2.631a2.056,2.056,0,0,1-1.737,1.6,5.565,5.565,0,0,1-2.488-.291,98.412,98.412,0,0,1-12.749-4.933" transform="translate(-543.636 -680.313)"/><path class="d" d="M561.609,692.78h0a.167.167,0,0,1-.159-.12l-.611-2.106-1.513,1.4a.167.167,0,0,1-.159.038.169.169,0,0,1-.116-.117l-.548-1.949-1.164,1.612a.167.167,0,0,1-.3-.06l-.563-2.43-1.09,1.54a.168.168,0,0,1-.3-.062l-.5-2.357-1.433,1.813a.167.167,0,0,1-.3-.084l-.326-2.684-1.964,1.729a.168.168,0,0,1-.265-.191l1.9-4.463a.17.17,0,0,1,.177-.1.167.167,0,0,1,.143.145l.268,2.208,1.3-1.141a.167.167,0,0,1,.163-.034.168.168,0,0,1,.111.124l.408,1.913,1.082-1.368a.171.171,0,0,1,.168-.06.169.169,0,0,1,.127.126l.5,2.143,1.045-1.477a.171.171,0,0,1,.165-.069.169.169,0,0,1,.133.12l.66,2.349,1.331-1.844a.164.164,0,0,1,.164-.067.169.169,0,0,1,.133.118l.744,2.563,1.827-1.691a.167.167,0,0,1,.273.173l-1.339,4.24A.168.168,0,0,1,561.609,692.78Zm-.5-2.481.5,1.737.982-3.112Zm-2.36-.719.546,1.942,1.435-1.328-.695-2.394Zm-2.017-.9.547,2.362,1.1-1.529-.637-2.266Zm-1.883-.852.482,2.254,1.042-1.472-.485-2.095Zm-2.021-.884.3,2.513,1.357-1.715-.406-1.9Zm-.574-1.95-1.364,3.209,1.584-1.395Z" transform="translate(-545.1 -680.378)"/></g><path class="j" d="M502.366,613.115c-.417,3.506-2.157,15.4-.615,19.162a21.259,21.259,0,0,0,4.793,6.712c1.319-.535,3.817-9.184,5.136-9.719.822-4.653.35-10.148-.136-15.123C508.835,613.679,505.075,613.583,502.366,613.115Z" transform="translate(-489.389 -575.342)"/><path class="j" d="M568.857,612.6c.478,3.687,1.876,16.427-.057,20.014-1.289,2.391-4.631,5.678-6.772,7.413-1.255-.661-.863-11.138-2.119-11.8-1.187-4.916-1.461-10.447.026-14.945C562.679,613.087,566.113,612.8,568.857,612.6Z" transform="translate(-507.576 -575.181)"/><path class="o" d="M545.041,638.691H516.6l-.073-28.148,30.134-.6Z" transform="translate(-494.236 -574.344)"/><path class="l" d="M502.013,652.109a108.135,108.135,0,0,0,22.76,2.1c15-.214,22.919-3.48,23.781-.867.974,2.954-7.517,12.047-17.416,14.025-4.229.845-9.685-1.1-20.6-4.988-3.159-1.125-7.025-2.672-8.227-6.578A9.168,9.168,0,0,1,502.013,652.109Z" transform="translate(-489.648 -587.613)"/><path class="o" d="M502.029,607.357c-.138-1.2.862-6.918,2.9-9.661,2.4-1.674,6.5-2.417,10.99-3.336a56.224,56.224,0,0,1,13.817-1.155c8.765.735,15.682,3.326,18.753,5.415a17.1,17.1,0,0,1,3.135,8.338C551.956,610.484,502.281,609.548,502.029,607.357Z" transform="translate(-489.67 -569.053)"/><path class="h" d="M507.83,645.022l40.21-.108c.634-1.247,1.189-24.321,1.189-24.321l-43.021.108S507.227,643.891,507.83,645.022Z" transform="translate(-490.989 -577.695)"/><path class="j" d="M541.375,585.946a14.308,14.308,0,0,0,.7,8.335c-2.9.193-9.64.31-12.541.5.087-2.671,1.4-6.166-.08-9.342C533.571,585.729,537.255,585.658,541.375,585.946Z" transform="translate(-498.303 -566.633)"/><ellipse class="n" cx="9.647" cy="11.278" rx="9.647" ry="11.278" transform="translate(27.773)"/><path class="j" d="M536.823,593.179a40.723,40.723,0,0,0-11.911.81c.045,3.186,4.147,5.76,9.2,5.76,4.9,0,8.947-2.543,9.234-5.59A40.976,40.976,0,0,0,536.823,593.179Z" transform="translate(-496.875 -569.028)"/><path class="d" d="M539.1,635.888a2.619,2.619,0,1,1-2.619-2.618A2.619,2.619,0,0,1,539.1,635.888Z" transform="translate(-499.692 -581.685)"/><path class="l" d="M511.228,657.2a61.014,61.014,0,0,0-12.247-8.532c-3.971-2.053-6.612-2.936-9.792-2.51-2,.839-5.119,4.666-5.188,7.281-.129,4.912,7.58,11.349,14.432,14.166,9.945,4.09,25.48,9.966,27.328,9.517,2.391-.581,4.519-7.531,4.519-7.531C521.879,664.23,515.392,660.864,511.228,657.2Z" transform="translate(-484 -585.709)"/><path class="n" d="M525.461,573.524a1.975,1.975,0,0,1-.768,2.621c-.842.309-1.863-.363-2.281-1.5a1.976,1.976,0,0,1,.768-2.621C524.022,571.715,525.043,572.387,525.461,573.524Z" transform="translate(-496.032 -562.387)"/><path class="n" d="M550.341,573.524a1.975,1.975,0,0,0,.768,2.621c.842.309,1.863-.363,2.281-1.5a1.976,1.976,0,0,0-.768-2.621C551.781,571.715,550.759,572.387,550.341,573.524Z" transform="translate(-504.821 -562.387)"/><g transform="translate(10.057 82.183)"><path class="p" d="M516.33,679.286s-1.883-1.409-2.636-1.367c-1.1.061-2.592,1.916-3.459,2.343-2,.983-6.159,1.893-8.146,2.9-2.8,1.422-3.25,5.035-3.25,5.035l6.611-3.306,8.369-3.933Z" transform="translate(-498.727 -677.918)"/><path class="l" d="M522.23,684.127a3.737,3.737,0,0,1-1.133,1.937c-1.2,1.23-3.1,1.212-3.584,1.516-1.578.994-5.026,3.318-12.686,5.42-.848.232-4.918.628-5.966-2.564-1.009-3.076,2.245-5.108,5.9-6.288,3.5-1.131,4.385-1.062,6.71-2.279,1.044-.547,2.384-2.063,3.012-2.092.574-.026,2.671-.174,3.013.5" transform="translate(-498.676 -678.493)"/><path class="o" d="M520.808,683.981a66.215,66.215,0,0,0-13.095,4.126c-1.162.5-2.509,1.374-2.353,2.631a2.055,2.055,0,0,0,1.737,1.6,5.565,5.565,0,0,0,2.488-.291,98.422,98.422,0,0,0,12.749-4.933" transform="translate(-500.775 -679.826)"/><path class="d" d="M508.263,692.78a.167.167,0,0,1-.16-.117l-1.339-4.24a.167.167,0,0,1,.273-.173l1.827,1.691.744-2.563a.168.168,0,0,1,.132-.118.164.164,0,0,1,.164.066l1.331,1.844.659-2.348a.167.167,0,0,1,.3-.052l1.045,1.477.5-2.144a.168.168,0,0,1,.295-.066l1.081,1.368.409-1.913a.168.168,0,0,1,.111-.124.166.166,0,0,1,.163.034l1.3,1.142.267-2.208a.167.167,0,0,1,.32-.045l1.9,4.463a.167.167,0,0,1-.264.191l-1.965-1.73-.325,2.684a.167.167,0,0,1-.3.084l-1.433-1.813-.5,2.357a.168.168,0,0,1-.3.062l-1.09-1.541-.563,2.43a.17.17,0,0,1-.13.127.167.167,0,0,1-.169-.067l-1.164-1.612-.548,1.949a.167.167,0,0,1-.275.078l-1.513-1.4-.611,2.106a.167.167,0,0,1-.158.121Zm-.99-3.855.983,3.111.5-1.737Zm1.866,1.27,1.435,1.328.546-1.942-1.286-1.781Zm2.346-.679,1.1,1.529.547-2.361-1.014-1.434Zm2.011-.9,1.042,1.472.481-2.255-1.038-1.312Zm1.883-.867,1.356,1.715.305-2.514-1.255-1.1Zm2.014-.933,1.584,1.395L517.615,685Z" transform="translate(-501.219 -679.891)"/></g><path class="l" d="M565.167,646.149c-3.347-.837-5.365-.368-9.373,1.506a67.4,67.4,0,0,0-13.725,9.121,73.625,73.625,0,0,1-18.745,11.633s1.3,9.49,4.017,9.038c4.211-.7,18.111-5.846,28.057-9.935,6.852-2.818,14.753-9.506,14.623-14.417C569.952,650.481,567.17,646.989,565.167,646.149Z" transform="translate(-496.375 -585.612)"/></g><path class="l" d="M538.331,554.777a10.635,10.635,0,0,0-10.921,1.507c-4.391,3.649-3.361,9.916-3.361,9.916.976-.07,1.338,1.442,1.157,2.469-.1.55,1.449,1.312,1.491.875.225-2.382.086-9.035,6.427-8.32A7.7,7.7,0,0,1,536,562.64a21.381,21.381,0,0,0,3.928,2.754,5.046,5.046,0,0,0,1.545.395,11.55,11.55,0,0,1,.458,3.843s1.343-.425,1.423-.837S546.909,558.292,538.331,554.777Z" transform="translate(-496.57 -553.917)"/></g><rect class="o" width="290.398" height="17.761" transform="translate(232.243 228.707)"/><path class="q" d="M303.98,290.24a4.74,4.74,0,1,1-4.739-4.74A4.739,4.739,0,0,1,303.98,290.24Z" transform="translate(-57.117 -52.853)"/><path class="q" d="M515.432,295.594H414.464a4.8,4.8,0,0,1-4.8-4.8h0a4.8,4.8,0,0,1,4.8-4.8H515.432a4.8,4.8,0,0,1,4.8,4.8h0A4.8,4.8,0,0,1,515.432,295.594Z" transform="translate(-93.36 -53.01)"/><rect class="q" width="28.783" height="9.594" transform="translate(487.862 232.99)"/><path class="d" d="M490.684,353c-.966,5.469-6.51,9.661-13.205,9.661S465.24,358.469,464.273,353H453.042s-18.462,15.543-18.375,15.913c2.056,8.758,10.987,13.071,10.987,13.071l7.015-6.515s-.467,47.276,0,47.433a80.733,80.733,0,0,0,49.929,0V375.468l7.843,6.515s9.432-6.826,11.366-13.45c.034-.118-19.322-15.534-19.322-15.534Z" transform="translate(-101.227 -74.094)"/><g transform="translate(320.648 259.032)"><line class="r" x2="98.684"/><line class="r" x2="62.363" transform="translate(0 7.538)"/></g><g transform="translate(354.57 364.911)"><circle class="d" cx="2.741" cy="2.741" r="2.741" transform="translate(0 0)"/><circle class="q" cx="2.741" cy="2.741" r="2.741" transform="translate(13.706 0)"/><circle class="q" cx="2.741" cy="2.741" r="2.741" transform="translate(27.412 0)"/><circle class="q" cx="2.741" cy="2.741" r="2.741" transform="translate(41.118 0)"/></g><g transform="translate(214.946 295.01)"><path class="j" d="M326.805,480.3c1.358-3.692,3.123-6.922,4.776-10.821,1.059-2.5,2.538-5.711,3.623-8.06.3-2.5-1.134-3.975-.816-6.7.476-4.072,1.781-5.887,3.049-6.551.556,2.025-1.63,7.335.893,7.6.657.069,1.445-3.743,1.867-3.606,1.107.36-1.757,6.891-2.125,9.468-.221,1.543-1.249,5.288-2.057,9.622-1.712,9.181-1.1,11.413-3.35,12.135C331.726,483.688,329.975,483.573,326.805,480.3Z" transform="translate(-282.229 -399.052)"/><path class="s" d="M351.589,459.817c-.209.583.559,1.417,1.75,1.844s2.274.519,2.483-.062-.452-1.17-1.643-1.6S351.8,459.236,351.589,459.817Z" transform="translate(-290.018 -402.622)"/><path class="o" d="M313.813,693.692c-3.262,7.094-2.417,10.4-2.417,10.4s3.468,2.479,9.781,2.9c7.21.478,9.237-1.087,9.237-1.087a2.647,2.647,0,0,0-1.871-3.26c-3.683-1.026-8.407-1.766-9.154-2.287-1-.7-.219-2.465,1.378-6.8Z" transform="translate(-277.349 -476.278)"/><path class="n" d="M313.989,693.692a30.065,30.065,0,0,0-2.131,6.112,9.291,9.291,0,0,0,4.544,1.151,5.94,5.94,0,0,0,3.094-.619c-.572-1.042.11-3.148,1.446-6.773Z" transform="translate(-277.525 -476.278)"/><path class="t" d="M311.3,709.434c-.271-.151.03-1.781.03-1.781s3.109,2.173,10.807,2.867a74.2,74.2,0,0,0,8.241-.3s.151,1-.3,1.208c-.591.276-2.958.768-8.211.6A23.381,23.381,0,0,1,311.3,709.434Z" transform="translate(-277.314 -480.712)"/><path class="u" d="M326.008,598.676l-.644.9A103.828,103.828,0,0,1,328.712,631c-.7,14.9-5.456,29.544-8.57,37.17-2.173,1.268-6.973.543-8.965-.453,0-6.181,4.563-25.353,5.3-31.052.7-5.39-1.4-13.447-2.189-16.482Z" transform="translate(-277.311 -446.418)"/><path class="k" d="M338.317,468.044a5.919,5.919,0,0,1-3.673-.661l-8.227,18.29,1.1,5.95,8.3-9.035S338.389,468.03,338.317,468.044Z" transform="translate(-282.107 -405.1)"/><path class="o" d="M273.628,705.762c-1.087,1.419-2.179,4.047-1.056,6.233,1.765,3.441,10.474,2.837,7.018,8.829a12.536,12.536,0,0,1-8.377-3.079c-3.409-3.174-8.853-1.3-8.754-5.382.054-2.216,3.98-7.306,4.379-9.953C268.218,702.942,272.248,705.231,273.628,705.762Z" transform="translate(-261.979 -479.063)"/><path class="n" d="M322.012,498.585c.363-1.121,1.4-4.337-.386-7.339-1.867-3.132-5.415-3.683-6.567-3.863-.639-.1-5.739-.893-7.725,1.932-2.23,3.171,1.13,8.538,3.477,11.009,1.115,1.174,4.108,4.325,7.146,3.477C320.56,503.072,321.6,499.849,322.012,498.585Z" transform="translate(-275.871 -411.338)"/><path class="v" d="M310.436,486.189c1.973-2.832-1.922-6-1.922-6a13.191,13.191,0,0,1-4.18,2.791,10.866,10.866,0,0,0-6.19,8.578c-.3,4.146,1.624,8.389,5.129,10.258,2.653,1.415,6.517,1,7.6.922a4.986,4.986,0,0,0,1.112-3.413c.116-2.667-2.855-3.838-3.477-6.825C308.237,491.212,308.315,489.157,310.436,486.189Z" transform="translate(-273.2 -409.13)"/><path class="n" d="M267.513,702.411c-.238,1.58-1.731,4.03-2.909,6.22a9.894,9.894,0,0,0,6.99,2.73,10.9,10.9,0,0,0,1.367-.095,6.615,6.615,0,0,1,1.342-5.5C272.924,705.231,268.893,702.942,267.513,702.411Z" transform="translate(-262.655 -479.063)"/><path class="v" d="M293.764,583.645c-.921,2.729-2.834,3.995-4.378,9.4-3.091,10.816-2.4,22.041-5.8,31.033-3.2,8.48-4.833,8.318-10.043,19.315a175.255,175.255,0,0,0-9.591,25.206,19.19,19.19,0,0,0,10.505,3.622,393.513,393.513,0,0,1,20.719-37.972c5.457-8.892,10.175-15.682,14.036-26.654a94.774,94.774,0,0,0,5.022-23.693C307.714,583.773,300.288,583.773,293.764,583.645Z" transform="translate(-262.451 -441.687)"/><path class="n" d="M315.107,501.965a1.069,1.069,0,0,0-1.514-.18,1.444,1.444,0,0,0-.385,1.567,2.275,2.275,0,0,0,1.144,1.226,2.612,2.612,0,0,0,1.783.257,1.9,1.9,0,0,0,1.345-1.144" transform="translate(-277.924 -415.853)"/><path class="t" d="M262.254,716.2s-.8,2.249-.362,2.943c.317.5,4.437,2.9,8.015,4.392,2.126.888,8.2,2.717,8.875,2.49.411-.137.95-1.449.95-1.449s-7.061-2.175-9.282-3.169A27.478,27.478,0,0,1,262.254,716.2Z" transform="translate(-261.759 -483.401)"/><rect class="l" width="84.978" height="51.741" rx="9.5" transform="translate(13.871)"/><path class="n" d="M336.968,487.75c6.072-7.691,5.894-8.905,7.556-13.339,1.861-4.963,3.457-13.736,4.237-17.22.409-1.829.422-2.326,1.011-3.079a23.234,23.234,0,0,0,3.35-5.018c.591-1.3,1.89-5.672.118-6.558-2.346-1.173-3.976,2.994-4.638,5.642-.177.709-2.3,1.329-2.3,1.329s-.07,3.2-.177,3.634c-1.177,4.755-3.368,7.444-8.065,18.7-1.664,3.988-3.449,3.012-6.752,9.213Z" transform="translate(-283.644 -397.217)"/><path class="k" d="M337.033,459.88c.441,1.616,2.939,2.277,4.261,1.837-.562,1.07-2.088,12.934-5.656,21.3a47.46,47.46,0,0,1-9.42,14.034,35.962,35.962,0,0,1,6.112,14.326c3.322,14.922-3.3,32.137-5.433,38.74a44.538,44.538,0,0,1-13.1-.162c-3.345-.513-7.227-1.252-8.494-2.519,2.771-10.482,1.415-19.822,1.345-25.275-.1-7.524-.4-13.8-.515-18.285a12.555,12.555,0,0,1,3.136-7.351c2.022-2.335,3.57-2.122,6.006-3.337,1.364-.68,7.675-7.013,13.019-14.139C330.056,476.7,336.773,461.666,337.033,459.88Z" transform="translate(-275.462 -402.739)"/><path class="w" d="M336.379,533.518c-.14-6.288-1.763-14.443-2.918-19.278l.216.138a35.86,35.86,0,0,1,5.965,14.107c3.322,14.922-3.374,32.32-5.506,38.924a29.773,29.773,0,0,1-5.6.276C332.194,559.18,336.7,548.082,336.379,533.518Z" transform="translate(-282.773 -419.846)"/><path class="s" d="M350.4,463.262a6.073,6.073,0,0,0,4.577,1.386l-.069.34c-.19.014-.376.023-.555.023a6.357,6.357,0,0,1-4.08-1.427C350.315,463.474,350.358,463.366,350.4,463.262Z" transform="translate(-289.614 -403.804)"/><path class="s" d="M337.017,470.369a6.108,6.108,0,0,0,4.243.818c-.018.111-.038.227-.058.345-.135.019-.27.039-.4.05a6.361,6.361,0,0,1-3.921-.913Z" transform="translate(-285.4 -406.04)"/><path class="x" d="M304.658,587.781s8.264,5.014,21.486,4.3a17.351,17.351,0,0,0,.551-2.755c-12.891-.165-21.1-4.572-21.1-4.572Z" transform="translate(-275.259 -442.035)"/><rect class="k" width="84.978" height="11.308" transform="translate(13.871 11.993)"/><line class="y" x2="39.062" transform="translate(21.409 30.839)"/><line class="y" x2="28.098" transform="translate(21.409 35.636)"/></g><path class="z" d="M559.739,419.409l-13.162.267L543.5,432.15l17.125,20.427,15.79-13.165Zm-8.015,9.314a2.741,2.741,0,1,1,2.741-2.741A2.741,2.741,0,0,1,551.724,428.723Z" transform="translate(-135.476 -94.993)"/><g transform="translate(394.031 316.907)"><path class="aa" d="M530.08,409.461a36.549,36.549,0,0,1,11.734,5.158c.675.459,1.457.981,2.216,1.557l1.617-.029c-4.083-3.9-10.044-6.358-15.295-7.677A.514.514,0,0,0,530.08,409.461Z" transform="translate(-525.169 -408.452)"/><path class="aa" d="M545.608,420.862a1.731,1.731,0,0,0-.512-.008c2.06,4.612-3.541,4.809-6.2,4.271a22.5,22.5,0,0,1-9.363-3.974c-2.449-1.972-5.475-5.568-5.423-8.879a.514.514,0,0,0-1.028,0c-.13,8.4,12.541,15.415,19.92,14.118,2.86-.5,3.777-3.076,3.209-5.38A1.825,1.825,0,0,0,545.608,420.862Z" transform="translate(-523.082 -409.498)"/></g><line class="ab" x2="49.685" transform="translate(450.855 264.514)"/><line class="ab" x2="49.685" transform="translate(450.855 269.997)"/><line class="ab" x2="49.685" transform="translate(450.855 275.479)"/><line class="ab" x2="49.685" transform="translate(450.855 280.962)"/><path class="z" d="M343.286,338.189H305.594A9.594,9.594,0,0,1,296,328.594h0A9.594,9.594,0,0,1,305.594,319h37.692a9.594,9.594,0,0,1,9.594,9.594h0A9.594,9.594,0,0,1,343.286,338.189Z" transform="translate(-57.589 -63.395)"/><line class="ab" x2="49.685" transform="translate(450.855 286.444)"/><g transform="translate(256.23 261.72)"><path class="d" d="M322.236,334.1a3.291,3.291,0,0,0,1.665.469c.949,0,1.5-.5,1.5-1.227,0-.672-.384-1.056-1.355-1.43-1.174-.417-1.9-1.024-1.9-2.038a2.071,2.071,0,0,1,2.326-1.953,3.264,3.264,0,0,1,1.59.352l-.256.757a2.858,2.858,0,0,0-1.366-.341c-.981,0-1.355.587-1.355,1.078,0,.672.437,1,1.43,1.387,1.216.469,1.836,1.057,1.836,2.113,0,1.109-.822,2.07-2.518,2.07a3.715,3.715,0,0,1-1.835-.459Z" transform="translate(-322.002 -327.922)"/><path class="d" d="M331.125,333.024l-.747,2.262h-.96l2.444-7.192h1.12l2.454,7.192h-.992l-.769-2.262Zm2.358-.726-.7-2.071c-.16-.469-.267-.9-.373-1.312h-.022c-.106.427-.223.865-.363,1.3l-.7,2.081Z" transform="translate(-324.336 -327.976)"/><path class="d" d="M339.747,328.093h.928v6.414h3.074v.779h-4Z" transform="translate(-327.586 -327.976)"/><path class="d" d="M350.825,331.914h-2.8v2.593h3.116v.779H347.1v-7.192h3.885v.779h-2.956v2.273h2.8Z" transform="translate(-329.9 -327.976)"/></g><g transform="translate(419.035 335.336)"><path class="d" d="M565.047,437.627l-1.39-1.49-1.144.786a2.9,2.9,0,0,1,.321.3,2.261,2.261,0,0,1,.574,1.038,1.524,1.524,0,0,1-.482,1.5,1.853,1.853,0,0,1-2.691-.21,2.62,2.62,0,0,1-.668-1.2l.526-.244a2.383,2.383,0,0,0,.563,1.038,1.179,1.179,0,0,0,1.71.134c.5-.477.545-1.15-.183-1.93a5.445,5.445,0,0,0-.547-.5l2.11-1.5,1.744,1.869Z" transform="translate(-559.567 -435.344)"/><path class="d" d="M568.273,443.887c-1.327,1.239-2.521,1.43-3.328.565-.712-.763-.48-1.947.8-3.165,1.31-1.222,2.559-1.33,3.3-.537C569.813,441.573,569.517,442.725,568.273,443.887Zm-2.039-2.065c-1.016.948-1.3,1.8-.853,2.279.5.541,1.377.21,2.374-.72.961-.9,1.363-1.732.852-2.279C568.177,440.638,567.3,440.829,566.234,441.821Z" transform="translate(-561.135 -436.886)"/><path class="d" d="M572.494,446.65c-.823.768-1.635.717-2.106.212-.454-.487-.456-1.271.325-2.012s1.618-.712,2.1-.195C573.323,445.2,573.239,445.955,572.494,446.65Zm-1.37-1.4c-.51.454-.715.993-.406,1.323.325.349.843.158,1.36-.325.474-.443.743-.951.4-1.318C572.169,444.6,571.616,444.793,571.123,445.253Zm-2.41,3.1,6.181-1.473.314.336-6.181,1.473Zm4.537,2.343c-.824.769-1.636.718-2.1.218s-.456-1.271.32-2.007,1.624-.717,2.106-.2C574.084,449.257,573.995,450,573.25,450.7Zm-1.371-1.4c-.5.459-.7,1-.4,1.329.325.349.844.157,1.36-.325.475-.443.742-.951.4-1.318C572.93,448.66,572.371,448.844,571.878,449.3Z" transform="translate(-562.445 -438.157)"/></g><rect class="ac" width="17.133" height="23.643" transform="translate(450.855 300.493)"/><rect class="ac" width="17.133" height="23.643" transform="translate(473.471 300.493)"/><rect class="ac" width="17.133" height="23.643" transform="translate(450.855 329.961)"/><rect class="ac" width="17.133" height="23.643" transform="translate(473.471 329.961)"/><g transform="translate(452.868 269.132)"><path class="n" d="M625.732,369.43c-2.032-1.1-2.231-2.109-4.228-4.766a45.152,45.152,0,0,0-6.381-6.842,7.693,7.693,0,0,0,.231-3.921c-.272-1.325-.629-2.534-1.23-2.844l-.008,0a10.077,10.077,0,0,0-.446-2.89c-.128-.411-.367-.883-.8-.914a.782.782,0,0,0-.722.52,2.293,2.293,0,0,0-.107.939q.03,1.189.06,2.378a4.76,4.76,0,0,0-2.67,1.815c-1.163,1.787-.077,4.342,1.076,6.688a84.865,84.865,0,0,0,10.3,15.836c2,1.076,5.018,2.512,7.687,3.921a25.123,25.123,0,0,0,4.3,2q.231-5.342.461-10.685C630.807,370.584,628.168,370.752,625.732,369.43Z" transform="translate(-608.937 -341.417)"/><path class="n" d="M664.327,353.8c-1.515.255-1.416,4.624-1.371,7.525.051,3.337,1.168,7.364,3.59,8.634,1.3.681,2.55.379,3.8-.745,5.9-5.3,2.256-10.565-.018-12.825C669.332,355.4,666.009,353.521,664.327,353.8Z" transform="translate(-625.93 -343.47)"/><path class="v" d="M687.672,549.833c.147.993-.72,2.346-.154,3.843,1.076,2.845.441,3.878.154,4.074-2.46,1.691-6.173-.089-9.248-1.115-3.71-1.237-9.763-3.075-9.763-3.075a2.686,2.686,0,0,1,.23-1.96c.461-1,4.058-.437,6.48-.462a6.682,6.682,0,0,0,3.921-.845c.869-.572.7-1.547,1-2.076C682.291,548.654,685.673,549.4,687.672,549.833Z" transform="translate(-627.704 -404.661)"/><path class="v" d="M650.7,551.115c-.538,1.922,1.633,5.527-.384,7.457-1.768,1.691-5,.077-8.764-.615-4.933-.906-6.476-.776-7.765-2.229-1.15-1.3-2.1-2.68-1.368-3.613.476-.6,2.128-1.231,4.827-1.076,2.86.164,3.767.956,4.914.507,1.266-.5,1.683-1.869,2.159-2.66C646.373,549.68,648.654,550.321,650.7,551.115Z" transform="translate(-616.247 -404.871)"/><path class="n" d="M701.615,413.381c.256,2.613-.307,6,.051,9.429.311,2.969-.867,5.717-1.588,7.79-2.23,6.409-2.717,7.432-4.408,10.66-1.265,2.415.045,3.745-.82,6.56-.685,2.23-1.9,4.237-3.538,4.289-2.1-1.384-.722-3.579-.732-8.79a12.053,12.053,0,0,1,1.3-5.534,71.276,71.276,0,0,0,2.763-12.924,15.852,15.852,0,0,0-1.691-8.661C695.755,415.345,698.813,414.235,701.615,413.381Z" transform="translate(-634.492 -362.228)"/><path class="n" d="M672.149,378.446c-.307-1.46.914-3.376-1.7-4.376.5-.785.389-2.691,3.8-3.9a11.2,11.2,0,0,1,7.636.1,6.857,6.857,0,0,0-.513,3.28c.186,2.016,1.97,3.873,2.383,4.356C680.119,377.959,675.788,378.394,672.149,378.446Z" transform="translate(-628.294 -348.433)"/><path class="v" d="M662.164,341.936c2.614-3.535,7.865-3.6,10.557-2.735a11.226,11.226,0,0,1,6.8,6.71s2.592.933,3.248,3.077c.941,3.072-.061,5.5-2.231,8.231-1.158,1.459-.955,5.591-2.384,6.471-1.112.684-3.858-.133-5.727-.855a25.753,25.753,0,0,1,.04-4.412c.184-1.044-1.791-3.6-2.229-4.1a7.325,7.325,0,0,0-3.69-1.871,9.1,9.1,0,0,1-5.4-4.32C660.8,347.453,659.952,344.93,662.164,341.936Z" transform="translate(-625.224 -338.739)"/><path class="n" d="M674.642,361.08a1.286,1.286,0,0,1,1.249-1.032,1.853,1.853,0,0,1,1.486.818,3.429,3.429,0,0,1,.557,1.654,3.545,3.545,0,0,1-.178,1.681,1.957,1.957,0,0,1-1.173,1.163,1.364,1.364,0,0,1-1.518-.478" transform="translate(-629.614 -345.445)"/><path class="t" d="M688.153,559.117s-.342,1.8-.846,2c-.769.308-6.458-.538-10.378-1.691-2.081-.612-7-2.152-7.995-2.844-.333-.231-.346-1.576-.346-1.576a81.434,81.434,0,0,0,8.8,2.96A33.335,33.335,0,0,0,688.153,559.117Z" transform="translate(-627.709 -406.796)"/><path class="t" d="M651.051,559.406s.1,1.887-.359,2.2c-1.486,1.025-7.665-.038-9.993-.769-2.181-.685-7.431-2.153-8.1-3.28a9.213,9.213,0,0,1-.358-2.767s.81,2.66,9.225,4.458C648.181,560.688,651.051,559.406,651.051,559.406Z" transform="translate(-616.271 -406.73)"/><path class="s" d="M695.958,405.435a38.538,38.538,0,0,0,1.026-6.838,31,31,0,0,0-.057-6.9c-.253-1.525-.673-3.759-1.083-5.243.441.28,1.529.957,2.005,1.332,1.82,1.435,3.126,3.972,4.2,8.3.3,1.192.994,15.1.322,20.033-.343,2.513-4.854,15.02-6.4,17.59-.515.374-5.47.157-4.683-2.4,2.741-8.909,4.178-20.157,2.4-19.874C694.025,410.451,695.71,406.455,695.958,405.435Z" transform="translate(-634.828 -353.756)"/><g transform="translate(26.717 75.848)"><path class="v" d="M674.523,468.215a12.851,12.851,0,0,0,2.849-3.419,19.762,19.762,0,0,0,2.735-4.5,25.093,25.093,0,0,0,1.425-4.73c.183-1.04.421-4.185.514-5.234,1.7.031,4.388-.913,5.939-.913,2.364,5.981,1.764,14.118,1.948,17.841.335,6.745-1.477,17.52.774,26.772,2.052,8.434-1.254,27.923-1.482,28.151-1.029.5-5.291.34-8.776-2.735,0,0,1.368-16.982-.912-24.732C676.876,485.665,674.881,470.935,674.523,468.215Z" transform="translate(-656.293 -449.417)"/><path class="o" d="M649.352,491.69c-.234-9.113-.594-13.883,1.307-21.6,2-8.918,1.873-14.263,2.4-18.922,6.2,0,14.1.045,20.9.171a42.722,42.722,0,0,1-1.314,9.651,12.939,12.939,0,0,1-6.459,8.151,82.293,82.293,0,0,0-5.254,19.679c-1.014,6.774-.321,9.3-1.64,19.167-.657,4.927-1.7,11.068-2.6,15.428-2.2.743-7.648-1.272-8.776-2.963C648.9,508.56,649.519,498.211,649.352,491.69Z" transform="translate(-647.922 -449.968)"/></g><path class="d" d="M616.531,363.083c2.142,1.628,9.169,10.028,10.223,10.794,1.256.914,16.233,1.787,17.8,1.843,1.414.051,4.227.233,7.3.284,1.092.018.985-1.114,1.242-2.185a25.355,25.355,0,0,0,6.1.629,12.226,12.226,0,0,0,4.569-1.314c.343,1.5,3.288,3.213,4.929,4.431,1.157.859,1.959,1.334,2.7,1.8.332,1.56.648,3.122.855,4.7a35.628,35.628,0,0,1,.291,7.011,45.367,45.367,0,0,1-.915,6.971c-.221,1.073-.493,2.135-.793,3.191l-.035.01a43.6,43.6,0,0,0-2.562,8.814c-1.262,7.045,1.358,14.133.844,14.476-1.307,1.1-7.081,2.056-13.364,1.713-5.434-.3-12.621-.857-15.077-1.713.171-2.227,1.372-9.267,1.885-16.276.565-7.72,1.256-13.881.446-19.058-11.582-2.415-19.432-6.665-21.234-7.9-2.17-1.485-9.152-13.392-9.666-15.4C612.876,364.654,614.818,363.655,616.531,363.083Z" transform="translate(-609.92 -346.4)"/><path class="s" d="M619.223,365.954a12.629,12.629,0,0,0-5.176,3.775q.129.241.265.494a12.327,12.327,0,0,1,5.3-3.861C619.48,366.223,619.351,366.086,619.223,365.954Z" transform="translate(-610.545 -347.303)"/><path class="s" d="M673.016,381.474a11.541,11.541,0,0,1-1.8-.622,3.7,3.7,0,0,1-.716.373,14.3,14.3,0,0,0,2.4.749,18.136,18.136,0,0,0,8.5-.472,4.962,4.962,0,0,0,1.884-1.5c-.134-.111-.271-.222-.4-.333a4.462,4.462,0,0,1-1.7,1.362C679.532,381.781,675.255,382.012,673.016,381.474Z" transform="translate(-628.31 -351.62)"/></g></g></svg>