<svg xmlns="http://www.w3.org/2000/svg" xmlns:xlink="http://www.w3.org/1999/xlink" width="1920" height="977" viewBox="0 0 1920 977"><defs><style>.a,.ac,.ad,.f{fill:#fff;}.a{stroke:#707070;}.b{fill:none;}.c{clip-path:url(#a);}.d{fill:#07254f;}.e{opacity:0.059;}.g{fill:url(#b);}.h{opacity:0.318;mix-blend-mode:multiply;}.ac,.h,.y{isolation:isolate;}.i{clip-path:url(#c);}.j{fill:url(#d);}.k{fill:url(#e);}.l{fill:url(#f);}.m{fill:url(#g);}.n{fill:url(#h);}.o{fill:url(#i);}.p{fill:url(#j);}.q{fill:url(#k);}.r{fill:url(#m);}.s{fill:url(#n);}.t{fill:url(#p);}.u{fill:url(#q);}.v{fill:url(#r);}.w{fill:url(#s);}.x{fill:url(#u);}.y{mix-blend-mode:overlay;}.z{fill:url(#v);}.aa{fill:url(#w);}.ab{fill:url(#x);}.ac,.ad{fill-rule:evenodd;}.ac{mix-blend-mode:soft-light;}.ae{opacity:0.2;}.ae,.af{fill:url(#y);}.af{opacity:0.1;}</style><clipPath id="a"><rect class="a" width="1920" height="977"/></clipPath><linearGradient id="b" x1="0.077" y1="0.08" x2="0.785" y2="0.94" gradientUnits="objectBoundingBox"><stop offset="0" stop-color="#fbb637"/><stop offset="0.5" stop-color="#fa6169"/><stop offset="1" stop-color="#ee0789"/></linearGradient><clipPath id="c"><rect class="b" width="1344.132" height="1939.983"/></clipPath><linearGradient id="d" y1="0.5" x2="1" y2="0.5" gradientUnits="objectBoundingBox"><stop offset="0" stop-color="#041ebf"/><stop offset="1" stop-color="#00e1ff"/></linearGradient><linearGradient id="e" x1="-0.831" y1="0.5" x2="1.016" y2="0.5" gradientUnits="objectBoundingBox"><stop offset="0" stop-color="#8e58f4"/><stop offset="1" stop-color="#0bd5fd"/></linearGradient><linearGradient id="f" x1="0" y1="0.5" x2="3.671" y2="0.5" xlink:href="#e"/><linearGradient id="g" x1="-0.376" y1="0.5" x2="1" y2="0.5" gradientUnits="objectBoundingBox"><stop offset="0" stop-color="#2e9eff"/><stop offset="1" stop-color="#003cd4"/></linearGradient><linearGradient id="h" x1="-2.062" y1="0.5" x2="11.37" y2="0.5" xlink:href="#g"/><linearGradient id="i" x1="0" y1="0.5" x2="1" y2="0.5" xlink:href="#g"/><linearGradient id="j" x1="0" y1="0.5" x2="1" y2="0.5" xlink:href="#e"/><linearGradient id="k" x1="0" y1="0.5" x2="1.631" y2="0.5" xlink:href="#g"/><linearGradient id="m" x1="-0.735" y1="0.5" x2="1" y2="0.5" xlink:href="#g"/><linearGradient id="n" x1="0" y1="0.5" x2="1.052" y2="0.5" xlink:href="#e"/><linearGradient id="p" x1="-5.766" y1="0.5" x2="1" y2="0.5" gradientUnits="objectBoundingBox"><stop offset="0" stop-color="#ebb3ff"/><stop offset="1" stop-color="#ff1451"/></linearGradient><linearGradient id="q" x1="0" y1="0.5" x2="1.322" y2="0.5" xlink:href="#e"/><linearGradient id="r" x1="-0.377" y1="0.5" x2="1" y2="0.5" xlink:href="#p"/><linearGradient id="s" x1="0" y1="0.5" x2="1" y2="0.5" xlink:href="#p"/><linearGradient id="u" x1="-0.626" y1="0.5" x2="2.125" y2="0.5" xlink:href="#g"/><linearGradient id="v" x1="-4.446" y1="0.5" x2="1.81" y2="0.5" xlink:href="#e"/><linearGradient id="w" x1="-4.13" y1="0.5" x2="2.127" y2="0.5" xlink:href="#e"/><linearGradient id="x" x1="-4.588" y1="0.5" x2="1.668" y2="0.5" xlink:href="#p"/><radialGradient id="y" cx="0.5" cy="0.5" r="0.5" gradientUnits="objectBoundingBox"><stop offset="0" stop-color="#fff"/><stop offset="1" stop-color="#fff" stop-opacity="0"/></radialGradient></defs><g class="c"><rect class="d" width="1920" height="977"/><g class="e" transform="matrix(0.995, 0.105, -0.105, 0.995, -29.006, -447.14)"><path class="f" d="M1714.59,1592.52,1625.041,1724.8l-103.709-177.656H1358.518L1444,2052.515l28.4,14.2-15.713,29.013a25.631,25.631,0,0,0,7.564,33.012l83.453,60.086,8.143-2.035,109.9-166.888,207.59-423.316Z" transform="translate(-1294.356 -1147.797)"/><path class="g" d="M1989.151,2252.105q-12.558-220.86-25.118-441.388c-2-35.129-4-70.579-6-105.722a55.8,55.8,0,0,0-55.721-52.626h-85.625c-1.408-31.5-4.772-67.636-12.637-102.763-13.489-60.242-37.57-104-71.57-130.049-36.364-27.859-72.2-34.826-106.5-20.705-37.093,15.265-63.058,51.963-78.308,80.063-18.115,33.375-31.322,73.122-36.238,108.991q-4.655,33.986-6.482,64.463h-84.471A55.8,55.8,0,0,0,1364.76,1705c-2,35.143-4,70.593-6,105.722q-12.562,220.706-25.12,441.388a55.82,55.82,0,0,0,55.719,58.991h121.956l88.852-166.7-190.3-339.866h139.008l117.33,221.285,87.927-173.67h137.189L1645.693,2311.1h.376l-60.606,111.2c-5.409,9.923,8.5,18.877,15.3,9.842l90.977-121.039h241.7A55.818,55.818,0,0,0,1989.151,2252.105Zm-476.264-539.032a19,19,0,0,1-8.983-35.739q-.144,6.163-.161,12.189a7.739,7.739,0,0,0,7.747,7.75h.116a7.731,7.731,0,0,0,7.736-7.723c.008-4.34.079-8.771.188-13.256a18.988,18.988,0,0,1-6.643,36.779Zm7.658-60.7c1.186-19.8,3.248-40.683,6.219-62.364,4.6-33.59,17.5-72.364,34.509-103.7,14.05-25.892,37.707-59.609,70.6-73.145a75.272,75.272,0,0,1,28.9-5.832c20.15,0,41.007,8.163,62.309,24.484,47,36,72.661,108.258,78.026,220.553Zm289.363,60.7a18.989,18.989,0,0,1-7.972-36.227q.135,6.3.193,12.754a7.741,7.741,0,0,0,15.482-.112c-.029-4.11-.087-8.423-.169-12.853a19,19,0,0,1-7.534,36.438Z" transform="translate(-1333.551 -1391.753)"/></g><g class="h" transform="translate(-0.171 1344.301) rotate(-90)"><g class="i"><rect class="j" width="1478.543" height="2078.551" transform="translate(-67.206 -69.284)"/><g transform="translate(-55.184 -49.42)"><path class="k" d="M0,312.637V0C96.316,20.877,196.335,37.394,286.483,59.3c-34.058,59.718-59.965,122.991-67.07,194.5a423.043,423.043,0,0,0-1.918,58.835Z" transform="translate(0 1753.367)"/><path class="l" d="M112.8,257.929C68.733,240.878,33.068,206.679,12.366,146.7-1.015,107.5-2.125,69.863,2.4,33.153,36.931,21.518,68.461,10.839,94.717,4.1Q103.78,1.773,112.8,0Z" transform="translate(1324.414 1558.806)"/><path class="m" d="M408.673,0c31.77,94.9,52.979,197.073,64.785,299,8.439,72.944,17.664,149.755,32.346,225.668C385.561,429.35,219.824,408.07,94.516,318.978a493.851,493.851,0,0,1-56.474-46.829c-7.94-51.733-14.049-103.18-19.8-152.834C13.628,79.43,7.569,39.511,0,0Z" transform="translate(98.61 0)"/><path class="n" d="M0,41.074C23.323,25.905,47.9,12.6,72.949,0V41.074Z" transform="translate(1364.268 2024.93)"/><path class="o" d="M184.178,243.949C132.781,187.389,68.185,152.375,0,123.041,6.094,81.182,18.927,40.48,28.579,0,66.107,67.819,115.84,128.191,182.932,175.887c84.5,60.08,187.381,89.314,282.3,131.21-67.209,22.62-147.214,50.277-222.276,59.621C238.323,326.709,221.842,286.081,184.178,243.949Z" transform="translate(669.051 801.948)"/><path class="p" d="M265.313,0c-8.864,34.019-18.382,68.34-22.717,103.517C168.108,128.617,79.657,158.155,0,162.184,71.732,83.169,173.355,49.154,265.313,0Z" transform="translate(1084.221 1488.441)"/><path class="q" d="M58.949,474.045c-82.548-116.6-89.609-254.24,51.6-413.258.636-.715,1.288-1.411,1.932-2.121C192.14,54.638,280.592,25.1,355.079,0c-4.527,36.71-3.418,74.352,9.963,113.55,20.7,59.977,56.367,94.175,100.439,111.227V432.972c-25.052,12.6-49.626,25.9-72.949,41.074Z" transform="translate(971.738 1591.959)"/><path class="o" d="M12.366,121.662C-2,79.57-2.222,39.277,3.5,0,71.68,29.334,136.276,64.347,187.673,120.908c37.664,42.131,54.146,82.759,58.782,122.768C144.448,256.376,51.572,235.249,12.366,121.662Z" transform="translate(665.556 924.99)"/><path class="r" d="M98.61,0c7.569,39.507,13.628,79.426,18.246,119.311,5.747,49.654,11.855,101.1,19.8,152.834C74.625,212.416,31.283,139.569,0,60.328V0Z" transform="translate(0 0.004)"/><path class="s" d="M.306,253.332A423.044,423.044,0,0,1,2.224,194.5C9.33,122.991,35.237,59.718,69.295,0,169.5,24.355,257.5,55.372,314.637,106.464c52.3,46.771,86.314,95.912,106,146.869Z" transform="translate(217.188 1812.672)"/><path class="o" d="M45.171,42.058c73.234,81.926,66.415,158.174,48.046,235.219C46.584,193.011,18.807,97.247,0,0A378.239,378.239,0,0,1,45.171,42.058Z" transform="translate(604.413 524.671)"/><path class="t" d="M0,0C53.641,100.872,87.089,210.664,73.607,321.063,64.267,393.367,35.968,457.3,0,517.822Z" transform="translate(0 861.231)"/><path class="u" d="M302.93,358.036c-27.149,22.133-56.873,40.3-87.685,56.768,22.556-86.557,40.886-171.151-41.091-262.856C125.282,98.168,64.477,63.868,0,35.408,30.182,25.252,57.784,16.108,81.2,10.1c82.1-21.095,162.258-7.7,221.734,26.727Z" transform="translate(1134.287 1073.637)"/><path class="v" d="M0,0A1456.939,1456.939,0,0,1,284.456,251.081C413.3,399.14,554.194,604.787,528.818,812.584c-22.729,175.961-157.73,302.344-242.335,450.69-90.147-21.911-190.167-38.427-286.483-59.3V829.654C35.968,769.129,64.267,705.2,73.607,632.9,87.089,522.5,53.641,412.7,0,311.832Z" transform="translate(0 549.399)"/><path class="w" d="M260.122,526C88.882,404.271,30.7,199.978,0,0A493.824,493.824,0,0,0,56.474,46.83C181.782,135.921,347.519,157.2,467.762,252.522c18.807,97.247,46.584,193.011,93.217,277.277-9.652,40.48-22.485,81.182-28.579,123.042C440.3,613.221,341.654,583.966,260.122,526Z" transform="translate(136.651 272.149)"/><path class="p" d="M215.021,541.58C125.739,546.1,47.5,518.563,12.371,416.776c-43.845-128.427,44-240.133,30.441-357.155C117.875,50.277,197.879,22.62,265.088,0c64.477,28.46,125.282,62.76,174.154,116.541,81.977,91.7,63.646,176.3,41.091,262.856C388.376,428.551,286.753,462.566,215.021,541.58Z" transform="translate(869.2 1109.045)"/><path class="x" d="M637.824,2005.672c-19.684-50.957-53.7-100.1-106-146.869-57.139-51.091-145.14-82.108-245.343-106.464,84.605-148.346,219.605-274.728,242.335-450.69,25.376-207.8-115.515-413.444-244.362-561.5A1456.947,1456.947,0,0,0,0,489.066V0C31.283,79.241,74.625,152.087,136.652,211.817c30.7,199.978,88.882,404.27,260.122,526,81.532,57.968,180.179,87.224,272.277,126.843-5.717,39.277-5.5,79.57,8.871,121.662C717.128,1099.907,810,1121.033,912.011,1108.334c13.563,117.022-74.286,228.728-30.441,357.155,35.133,101.788,113.368,129.321,202.65,124.8-.644.709-1.3,1.406-1.932,2.121-141.212,159.019-134.15,296.656-51.6,413.259Z" transform="translate(0 60.332)"/><g class="y" transform="translate(0 0.004)"><path class="z" d="M1437.217,1657c-84.649,28.22-192.369,67.477-284.57,67.424-40.418,0-77.693-7.511-108.785-26.495s-56.243-49.455-72.414-96.249a229.45,229.45,0,0,1-12.169-75.078c-.141-87.5,44.1-169.753,44.252-255.322.046-49.033-14.918-99.128-61.2-150.832-61.065-67.183-140.32-104.1-221.7-136.859-81.41-32.741-165.021-61.393-235.361-111.425C271.443,720.336,234.808,437.621,206.909,195.957A1585.193,1585.193,0,0,0,171.944,0h-7.712a1574.3,1574.3,0,0,1,35.241,196.817C227.5,438.325,263.691,723.66,480.938,878.271c71.554,50.85,155.76,79.6,236.907,112.273,81.173,32.655,159.194,69.17,218.928,134.921,45.138,50.571,59.222,98.3,59.269,145.819.15,82.956-44.12,165.341-44.254,255.322a237.029,237.029,0,0,0,12.579,77.509c16.581,48.119,42.934,80.3,75.592,100.21s71.372,27.588,112.688,27.588c93.234-.051,200.531-38.914,284.57-67.031ZM0,1591.195q2.81-3.976,5.627-7.953c70.218-99.274,141.9-198.791,158.028-323.422a412.552,412.552,0,0,0,3.02-50.079C166.6,1061.47,89.647,917.267,0,796.427v12.612c86.527,118.495,159.264,258.38,159.186,400.7a405.235,405.235,0,0,1-2.958,49.149C140.515,1380.8,70.157,1479.135,0,1578.237Z" transform="translate(0 0)"/><path class="aa" d="M311.768,2066c16.929-114.789,82.334-208.8,149.066-303.066,70.222-99.278,141.9-198.795,158.033-323.424a413.421,413.421,0,0,0,3.019-50.081c-.1-192.328-129.539-377.81-248.267-514.335C266.21,751.688,139.373,648.629,0,568.079v8.657c137.208,79.825,262.094,181.62,367.968,303.273C486.384,1016,614.5,1200.571,614.393,1389.429a405.929,405.929,0,0,1-2.953,49.145c-15.755,122.2-86.395,220.7-156.715,320.032C387.842,1853.162,321.24,1948.492,304.208,2066Zm1125.449-520.985c-12.93,52.128-30.137,105.232-30.219,161.281a236.982,236.982,0,0,0,12.578,77.508,230.592,230.592,0,0,0,17.641,39.406v-16.088a237.861,237.861,0,0,1-10.561-25.752,229.451,229.451,0,0,1-12.172-75.074c-.069-44.693,11.437-88.015,22.732-131.108Zm0-187.437c-9.4-18.94-22.339-38.075-39.669-57.437-61.07-67.185-140.324-104.1-221.7-136.857-81.4-32.745-165.018-61.4-235.357-111.427C726.65,900.025,690.014,617.31,662.124,375.646,647.063,245.722,616.79,115.369,568.8,0h-8.113c48.337,115.258,78.9,246.068,94,376.506C682.7,618.013,718.9,903.351,936.149,1057.959c71.556,50.854,155.763,79.6,236.9,112.271,81.175,32.66,159.2,69.176,218.931,134.923,21.525,24.116,35.99,47.588,45.234,70.7Z"/><path class="ab" d="M686.512,2066c-17.685-24.787-39.478-49.013-65.857-72.584-88.435-78.887-247.475-109.885-411.8-142.03-70.388-13.711-141.742-27.6-208.854-45.309v7.747c119.438,31.346,251.4,50.586,367.252,78.425,101.944,24.443,191.3,55.621,248.41,106.75,24.438,21.875,44.83,44.222,61.6,67Zm392.847,0a258.719,258.719,0,0,1-17.549-92.9c0-73.507,32.257-153.669,109.609-240.792,49.056-55.026,112.911-88.347,178.529-120.082,29.151-14.111,58.637-27.9,87.269-43.181v-8.5c-29.485,15.914-60.1,30.229-90.529,44.943-65.711,31.8-130.6,65.507-180.863,121.847-78.162,87.989-111.5,169.978-111.5,245.767a265.564,265.564,0,0,0,17.035,92.9Zm357.858-913.871a307.03,307.03,0,0,0-56.228-5.157,321.792,321.792,0,0,0-80.1,10.214c-87.715,22.583-232.753,88.141-351.886,88.075-40.421,0-77.692-7.51-108.789-26.493-31.089-19-56.241-49.457-72.414-96.253a229.515,229.515,0,0,1-12.166-75.078c-.139-87.5,44.106-169.753,44.25-255.318.051-49.034-14.916-99.13-61.192-150.835-61.066-67.185-140.322-104.1-221.7-136.859C435.586,471.685,351.976,443.032,281.63,393,148.87,298.734,84.413,154.018,47.943,0H40.235c36.6,155.638,101.671,302.754,237.053,399.1,71.556,50.851,155.763,79.6,236.91,112.271,81.176,32.659,159.2,69.173,218.928,134.922,45.135,50.575,59.223,98.3,59.271,145.824.146,82.956-44.121,165.341-44.256,255.318a237.007,237.007,0,0,0,12.581,77.508c16.579,48.125,42.932,80.3,75.592,100.211s71.371,27.59,112.688,27.59c121.587-.071,267.1-66.146,353.752-88.309a314.518,314.518,0,0,1,78.236-9.978,298.8,298.8,0,0,1,56.228,5.29Z"/></g></g><g transform="translate(-25.524 601.67)"><path class="ac" d="M9.36,1.8C7.9,2.155,7.188,3.13,7.486,4.97,3.879,4.326,6.01-1.162,0,.223,1.9,2.3,1.832,6.055,3.739,8.131H9.36C12.48,4.991,9.2,6.125,9.36,1.8Z" transform="translate(35.531 422.795)"/><path class="ac" d="M5.7,9.5C4.346,4.655,7.617,3.723,7.569,0H.086C-.923,2.278,7.38,3.862,1.95,4.749c.1,2.021,2.4,2.19,1.872,4.747Z" transform="translate(419.739 391.674)"/><path class="ac" d="M14.985,1.584c-2.2-.245-5.319.271-5.619-1.584C4.537.141,7.4,6.778,0,4.745c1.887,6.164,6.446.245,13.109,1.583C13.217,4.307,15.512,4.139,14.985,1.584Z" transform="translate(439.087 64.585)"/><path class="ac" d="M1.293,6.328c1.445-.356,3.686-.045,3.743-1.583C7.822,6.083,7.741,9.834,8.78,12.651c1.455-.35,2.175-1.323,1.868-3.158V3.161C10.66,1.572,9.137,1.282,8.78,0,7.1,3.206-3.66,2.167,1.293,6.328Z" transform="translate(590.901 202.829)"/><path class="ac" d="M.233,7.908C-1.134,12.226,3.961,11.1,3.98,14.237,9.871,10.939,5.1,7.79,7.727,3.163c-1.144.092-2.226.23-1.879,1.58C3.673,4.479,3.82,2.25,3.98,0,1.34.41,1.84,3.463.233,4.743Z" transform="translate(599.142 145.535)"/><path class="ac" d="M3.744,1.583C3.348,3.356,1.671,4.05,0,4.745.453,7.534,3.225,8.353,7.491,7.914,4.482,5.009,9.224,2.555,3.744,0Z" transform="translate(935.822 77.718)"/><path class="ac" d="M0,1.66C.595,3.8,2.665,4.681,1.872,7.993c1.143-.092,2.22-.238,1.882-1.587C3.19,2.246,11.011,5.159,9.369.08,4.852-.569,5.285,2.967,0,1.66Z" transform="translate(956.024 219.611)"/><path class="ac" d="M3.74.063C.278.3,2.588,5.426,0,6.388,5.94,8.752,11.168-.865,3.74.063Z" transform="translate(1065.725 73.703)"/><path class="ac" d="M1.606,0c-.21,3.938-3.506,4.9,0,7.916,4.76-.161,4.42-5.9,1.868-7.916Z" transform="translate(1072.832 139.006)"/><path class="ac" d="M5.622,12.667C12.69,10.941,7.034-.42.007.012-.271,2.118,7.622,4.781,1.879,6.338-.435,11.458,7.945,7.542,5.622,12.667Z" transform="translate(1108.513 212.498)"/><path class="ac" d="M1.18,0c-.725,2.259-2.248,2.669,0,4.749v1.58c3.725-2.634,2.383.142,7.5,0C10.32,1.247,3.815,3.045,3.059,0Z" transform="translate(1178.762 209.223)"/><path class="ac" d="M3.751.151C3.536,2.077,3.191,3.895,0,3.309c.859,5.035,8.094,3.137,9.366,0C9.611.473,7.506-.386,3.751.151Z" transform="translate(1238.731 57.207)"/><path class="ac" d="M0,9.493c2.171-.258,3.325.352,3.747,1.58,1.813-.039,1.442-1.93,1.871-3.161,1.818.043,1.447,1.937,1.868,3.161,5.352-.219,3.43-6.6,3.744-11.073Q.125.115,0,9.493Z" transform="translate(1323.834 66.388)"/><path class="ac" d="M1.97,9.5C6.1,9.293,2.763,2.783,3.842,0-1.291.034-.6,7.467,1.97,9.5Z" transform="translate(1373.381 165.66)"/><path class="ac" d="M0,9.488c6.009-1.312,3.886-1.346,7.493,1.585C8.572,5.937,6.211,3.719,5.615,0,3.651,3.087,1.863,6.317,0,9.488Z" transform="translate(1375.491 298.865)"/><path class="ac" d="M3.751,6.326c.1.964.278,1.875,1.868,1.582C5.13,10.139,1.515,9.71,0,11.071c.405,4.736,1.215,12.8,3.751,6.328-1.4-5.932,2.109-7.71,7.486-7.91C8.541,7.024,3.7,6.371,5.619,0,2.849.29,3.9,3.822,3.751,6.326Z" transform="translate(1388.752 1149.355)"/><path class="ac" d="M1.589,0H0V6.326A4.194,4.194,0,0,1,1.589,6.9Z" transform="translate(1405.968 1173.037)"/><path class="ac" d="M0,6.328H3.111V0H1.245C.823.146.406.3,0,.458Z" transform="translate(0 570.834)"/><path class="ac" d="M0,.144V4.889c3.818.883,3.672,4.76,7.493,1.582Q8.793-.953,0,.144Z" transform="translate(18.65 48.204)"/><path class="ac" d="M0,9.494C5.68,9.544,4.668,3.94,5.615,0,3.224.084,3.021,2.029,0,1.582V6.328C2.259,6.663,1.149,8.082,0,9.494Z" transform="translate(32.877 259.3)"/><path class="ac" d="M6.027,0C3.086.15-.469-.206.41,3.165-1.908,8.288,6.47,4.372,4.161,9.493H6.027C6.021,7.908,7.539,7.607,7.9,6.33A6.767,6.767,0,0,0,6.027,1.58Z" transform="translate(63.805 462.705)"/><path class="ac" d="M5.749,3.214C3.838,2.19,3.813-.415.132.057V1.634C-1.17,7.7,7.647,16.025,5.749,4.8Z" transform="translate(71.043 59.441)"/><path class="ac" d="M3.456,7.908C8.866,11.672,6.55.655,1.578,0-4.124.947,7.792,8.112,3.456,7.908Z" transform="translate(95.115 178.163)"/><path class="ac" d="M0,7.912c4.231.884-2.266,2.467,1.877,4.745,1.607,3.019,1.107-1.707,3.751-1.583C3.664,6.6,8.712.219,5.628,0,6.2,3.648.209,1.758,0,4.749Z" transform="translate(113.664 267.927)"/><path class="ac" d="M.408,0C-1.9,5.114,6.467,1.206,4.159,6.326V9.49H6.027c-1.6-5.041,1.632-6,3.743-7.908C3.893-.213,4.832,2.033.408,0Z" transform="translate(118.283 243.16)"/><path class="ac" d="M9.364,0H1.87C4.423,2.018,4.766,7.743,0,7.9v3.169C4.8,10.9,8.927,10.178,11.239,7.9,11.831,4.241,10.933,1.832,9.364,0Z" transform="translate(135.266 389.269)"/><path class="ac" d="M0,9.5c1.815.045,1.447,1.937,1.876,3.165C6.861,10.042,4.511,2.639,5.615,0,3.707,1.039,3.675,3.644,0,3.169V9.5Z" transform="translate(155.181 89.811)"/><path class="ac" d="M3.748,0C-4.09,3.831,7.9,7,0,9.49c.019,2.094,3.287,1.45,3.748,3.169H7.486C4.75,9.694,7.418,2.175,3.748,0Z" transform="translate(179.085 25.243)"/><path class="ac" d="M.916,15.858c-4.226,7,7.426.389,9.362-1.585.952-3.944,3.54-6.5,5.62-9.49V1.618C14.3,1.91,14.133,1,14.031.032,9.705-.449,11.947,4.609,8.4,4.782V6.361c-3.318,4.646-2.547,5.359-3.743,9.5Z" transform="translate(265.669 454.663)"/><path class="ac" d="M7.494,0C.3,2.029,8.741,8.1,0,9.493c.114.964.282,1.872,1.879,1.58C2.271,9.3,3.949,8.612,5.623,7.906V6.327C10.563,6.8,11.765,4.135,11.241,0Z" transform="translate(284.276 11.534)"/><path class="ac" d="M1.937,13.572c-1.14.09-2.217.236-1.872,1.582a9.942,9.942,0,0,0,5.619,1.587A8.876,8.876,0,0,1,11.3,11.992V8.821c3.51-2.789-2.228-4.616,1.872-7.9-.824-2.347-2.4.617-5.619,0V4.084C12.232,6.615,6.262,13.418,1.937,13.572Z" transform="translate(296.565 412.946)"/><path class="ac" d="M11.174.468c-4.646-2.053-9.087,3.526-9.368,0C-6,6.173,14.208,10.349,11.174.468Z" transform="translate(299.771 473.065)"/><path class="ac" d="M1.876,9.587C6.1,8.322,8.054-1.022,0,.092-.043,3.822,3.23,4.751,1.876,9.587Z" transform="translate(350.051 265.615)"/><path class="ac" d="M1.81,8.176c-5.462,2.218,3.318,5.451,1.875,9.494,2.193.256,1.577,2.885,1.872,4.745,6.383-.663-2.838-8.676,1.872-7.912C8.5,11.721,5.162,5.207,9.3,5.009Q10.97-1.154,3.685.268V3.425c1.509-.3,1.861-1.585,3.744-1.582C6.225,5.752,4.408,18.993,1.81,8.176Z" transform="translate(379.06 168.621)"/><path class="ac" d="M11.237,2.474C8.837,1.684.032-1.534,0,.887,3.437,3.26,4.668,7.494,9.362,8.8c.108-.962.276-1.875,1.875-1.583Z" transform="translate(410.346 337.834)"/><path class="ac" d="M11.238,3.161C9.593-2.278,9.548,5.029,3.751,0,7.7,8.6,7.146,2.989,0,6.326,6.658,3.867,1.129,11.7,5.623,11.069c1.446-.355,3.689-.041,3.739-1.58V7.906c3.206-.073,4.855,1.177,5.615,3.163,3.545-.133-.445-6.768-5.615-4.743C9.72,5.041,11.245,4.752,11.238,3.161Z" transform="translate(412.993 360.229)"/><path class="ac" d="M7.483,1.643C7.172-.191,4.529-.064,1.864.067,1.448,1.293,1.817,3.185,0,3.234c4.138,2.278-2.363,3.86,1.864,4.745H11.23C13.377,3.008,8.3,4.136,7.483,1.643Z" transform="translate(422.091 423.032)"/><path class="ac" d="M11.234,18.981c1.039-3.861,7.246-3.367,5.615-9.488-6.177,2.7-11.563,1.952-9.366-6.328C4.747,5.432,1.552,4.375,1.868,0,.049.039.418,1.937,0,3.165c2.819,1.366-.518,2.37,1.868,6.328,1.821.043,1.449,1.937,1.876,3.161H9.362v6.326Z" transform="translate(463.102 415.986)"/><path class="ac" d="M0,1.582c.84,7.583,4.07,6,9.358,3.167-.3-1.836.415-2.819,1.877-3.167V0H9.358C7.811,1.136,2.29,9.222,1.867,1.582Z" transform="translate(521.19 187.011)"/><path class="ac" d="M0,0C.453,2.252,3.083,2.669,3.743,4.749,5.626,4.741,5.975,6.029,7.5,6.328c3.023-.442,3.222,1.5,5.611,1.583-2.247-2.078-.726-2.493,0-4.747C10.778-4.019,7.667,5.9,3.743,1.587,1.868,1.587,1.521.3,0,0Z" transform="translate(503.041 235.877)"/><path class="ac" d="M0,0C7.759,7.041,5.247,11.23,0,15.818c5.116,1.155,3.781-3.137,7.5-3.162-.246,2.84,1.855,3.7,5.618,3.162,0-1.583-1.52-1.879-1.875-3.162C11.561,8.17,4.9,9.57,7.5,3.169,2.385,4.318,3.722.026,0,0Z" transform="translate(537.441 94.793)"/><path class="ac" d="M7.57,6.336V4.752C5.724,2.609,2.573,1.587.075,0,1.648,1.838,2.546,4.243,1.95,7.91c-1.192,3.624-3.718,9.542,0,12.661H3.826C3.362,15,9.291,10.985,7.57,6.336Z" transform="translate(534.567 329.625)"/><path class="ac" d="M0,4.95V9.693H1.866c4.155.872,2.671-3.021,5.621-3.167C5.319,4.187,5.319,2.541,7.487.2.943-1.215,4.292,5.36,5.613,6.526,2.589,6.976,2.4,5.031,0,4.95Z" transform="translate(545.996 152.51)"/><path class="ac" d="M5.619,3.165c1.457.352,2.175,1.327,1.875,3.167C4.69,6.6.58,5.765,0,7.906,3.241,11.5-.722,21.181,5.619,22.15c3.278-1.445,6.506-2.942,5.618-7.912-3.5,3.111-9.021.917-7.49-4.745,5.885-1.81,4.549,2.482,7.49,3.163,1.572-1.833,2.467-4.238,1.872-7.912V3.165C9.91,3.234,8.258,1.988,7.494,0H5.619Z" transform="translate(560.47 172.248)"/><path class="ac" d="M3.224,15.818c.511,4.64-7.5,5.879,0,7.916a8.835,8.835,0,0,1,5.611-4.747c-2.86-2.881-2.86-12.941,0-15.829C6.166,2.781,5.684.563,3.224,0V7.91C4.333,12.96-.294,12.806,3.224,15.818Z" transform="translate(608.907 370.025)"/><path class="ac" d="M1.9,9.5c.732,2.259,2.251,2.671,0,4.749C8.2,17.654-.559,21.5.029,25.317v3.158H3.772c3.478-2.858,4.271-7.99,5.615-12.653V12.657C10.5,6.869,12.027,5.3,7.515,0,4.53,1.17,7.944,7.751,1.9,6.332Z" transform="translate(616.33 291.773)"/><path class="ac" d="M15.1,7.908c-2.209.247-5.315-.271-5.618,1.578-.418,1.233-.056,3.122-1.872,3.167C6.531,7.764,3.686,4.365,1.99,0-3.878,4.833,5.653,12.85.115,17.4c1.14.088,2.226.238,1.875,1.58H7.609c-.084-2.707,1.393-4.1,3.747-4.743V11.073c7.261-.863,4.4,6.828,9.362,7.908,1.593-.29,1.762.621,1.876,1.585,1.585-.292,1.765.617,1.871,1.583,2.756-1.619,1.4-9.757-1.871-14.242C19.816,6.076,17.87,6.076,15.1,7.908Z" transform="translate(635.609 162.568)"/><path class="ac" d="M2.057,0C1.464,2.14-.613,3.023.177,6.332h9.37C9.5,7.871,7.25,7.556,5.8,7.908c.3,1.86,3.406,1.338,5.619,1.589C12.236,3.536,7.46,2.286,3.932,0Z" transform="translate(647.08 352.923)"/><path class="ac" d="M7.483,0c-2.738,2.984-8.8,7.917-5.618,11.069H0V14.24c2.943.139,1.454,4.032,5.612,3.16-.87-6.692-1.386-9.452,3.747-11.079V3.161C6.423,2.6,10.993.376,7.483,0Z" transform="translate(653.988 418.457)"/><path class="ac" d="M0,4.747c1.642,2.8,5.93,4.616,1.872,7.914,1.752.893,2.841,4.4,3.747,1.58.813-2.347,2.385.625,5.611,0V11.077c1.913,1.024,1.936,3.631,5.623,3.163-.165-2.252-.314-4.483,1.875-4.749V4.747c-3.026.445-3.223-1.5-5.619-1.58H11.23C9.63,4.438,10.125,7.5,7.483,7.912,3.105,7.4,5.667,1.009,1.872,0,1.584,1.863,2.2,4.49,0,4.747Z" transform="translate(677.965 217.126)"/><path class="ac" d="M5.615,0H3.752C4.383,3.182,3.36,4.951,0,4.747V6.332C2.1,6.665,2.913,8.088,3.752,9.5,8.514,9.331,8.175,3.6,5.615,1.58Z" transform="translate(691.204 343.238)"/><path class="ac" d="M11.246,4.745c-2.787-.689.729-2.018,0-4.745H9.375C8.569,2.482,3.483,1.351,5.627,6.326,4.83,9.347.271,9.194,1.876,14.238H0C.427,15.47.056,17.36,1.876,17.4H3.755c-.348-1.348.73-1.492,1.872-1.582C7.55,12.172,12.071,10.725,11.246,4.745Z" transform="translate(735.256 121.346)"/><path class="ac" d="M2.815,3.167c-2.727,3.71-4.657,3.542,0,6.325,2.771-.823,4.718-2.34,7.5-3.159C5.608,3.543,8.987,3.712,6.566,0H2.815Z" transform="translate(855.099 107.544)"/><path class="ac" d="M3.52,12.653c-4.34-3.2-4.3.638-1.871,3.165H3.52c1.094-3.831,7.078-3.524,11.246-4.745V3.161C12.938,3.118,13.31,1.224,12.9,0,10.111,1.827,8.17,1.827,5.4,0H3.52V3.161H5.4c3.3,1.4,3.089,7.023,7.5,3.167C14.207,12.181,6.325,10.272,3.52,12.653Z" transform="translate(855.977 259.366)"/><path class="ac" d="M0,3.291V11.2C9.513,10.578,1.513,3.375,5.622.126,1.477-.741,2.961,3.149,0,3.291Z" transform="translate(900.438 33.912)"/><path class="ac" d="M10.523,9.489H8.655C8.21,4.591,3.438,3.348,1.161,0-2.231,3.672,2.668,8.129,4.9,7.91c-9.141,2.167,3.042,6.512-1.871,9.489C9.047,17.74,7.589,11.76,10.523,9.489Z" transform="translate(915.925 256.968)"/><path class="ac" d="M0,0C1.745,3.8,7.528,4.185,5.623,11.073c1.591-.29,1.768.614,1.868,1.578,8.5-2.957,2.55,6.289,9.366,4.747C17.371,5.731,14.192,1.673,0,0Z" transform="translate(925.431 102.069)"/><path class="ac" d="M.12,4.974C4.2,8.283-.82,9.485.12,14.458H2c.744-10.278,3.437.76,3.743-3.163,1.823.049,1.454,1.941,1.868,3.163,1.144-.084,2.218-.234,1.875-1.576s.73-1.492,1.872-1.587V4.974H9.482C8.436,8.732,3.849,3.209,7.607,1.809,4.12,3.321,1.352-2.932.12,1.809Z" transform="translate(926.124 377.656)"/><path class="ac" d="M.15,3.165c-.89,4.966,2.332,6.463,5.615,7.908C.771,7.526,8.416,3.148,3.893,0H2.022C.565.346-.157,1.327.15,3.165Z" transform="translate(934.62 237.522)"/><path class="ac" d="M2.1,4.8c-5.741,1.55,2.148,4.215,1.875,6.329v1.578a9.9,9.9,0,0,0,5.621-1.578c-3.088-2.458.636-6.167,1.872-9.492C11.047.4,9.9-.2,7.718.06Q8.23,5.234,2.1,4.8Z" transform="translate(945.072 254.404)"/><path class="ac" d="M5.654.391C-1.7-1.626-.633,4.715,1.9,6.712H5.654C2.535,3.575,5.817,4.706,5.654.391Z" transform="translate(953.917 382.974)"/><path class="ac" d="M0,0C.025,2.1,3.286,1.443,3.743,3.165,1.118,3.575,1.607,6.635,0,7.91c2.676-.38,3.159-2.6,5.619-3.165.1,2.723-1.441,4.05-3.751,4.749,2.642-1.378,6.339,8.522,9.369,1.583C8.763,6.306,6.562,1.316,0,0Z" transform="translate(983.632 290.476)"/><path class="ac" d="M7.491,6.328v4.745C15.128,13.512,14.356,7.437,14.975,0,11.111,1.5,4.562-.859,0,3.169V6.328H5.615C5.264,5.044,3.736,4.752,3.744,3.169c5.76-1.106,3.6-1.106,9.362,0C13.428,7.541,10.229,8.6,7.491,6.328Z" transform="translate(1000.873 354.031)"/><path class="ac" d="M0,7.916c3.915,3.33,7.03-2.089,9.358-4.751C4.256,4.322,5.6.026,1.875,0,1.554,2.37,2.542,5.842,0,6.332Z" transform="translate(1032.348 187.986)"/><path class="ac" d="M.017,7.662c-.325,6.667,4.191,1.082,5.611,0,4.794.069,2.29-1.177,1.883-3.163,1.416-8-4.9-3.221-7.494-1.583Z" transform="translate(1050.983 99.09)"/><path class="ac" d="M0,9.488c1.952,6.349,9.481,0,7.5-6.328C5.462,2.772,6.226.019,3.743,0c-4.135.195-.79,6.712-1.864,9.488Z" transform="translate(1054.47 121.831)"/><path class="ac" d="M5.294,4.749c-.665,1.81-3.3,4.011-3.748,1.583-3.337,1.155-.273,2.873,0,4.741C3.422,11.089,3.774,9.8,5.294,9.5c.179,2.488-.257,5.48,3.747,4.743-2.987-5.649.9-3.727,5.611-1.58,0-1.587,1.522-1.879,1.876-3.163-6.069-1.125-1.2-9.03-3.747-9.5C9.168.644,12.619,7.246,5.294,4.749Z" transform="translate(1120.822 319.933)"/><path class="ac" d="M7.487,1.37C4.712-.457,2.763-.457,0,1.37,1.041,6.953,6.44,6.953,7.487,1.37Z" transform="translate(1126.924 99.469)"/><path class="ac" d="M13.294,3.161C10.821,3.146,11.581.391,9.551,0,11.449,8.458-1.71,4.2.188,12.657v1.578C6.333,12.045,9.064,6.97,13.294,3.161Z" transform="translate(1156.304 61.581)"/><path class="ac" d="M7.49,8.279C7.073,5.288,9.6,4.788,9.366,1.951-2.534-4.528,2.954,6.258,0,17.772c1.45.352,3.691.045,3.743,1.58H9.366c1.309-5.32-3.854-5.185-5.623-7.908C4.573,10.033,5.4,8.612,7.49,8.279Z" transform="translate(1242.661 153.898)"/><path class="ac" d="M3.748,0H0V6.328C4.445,10.744,7.772,2.723,3.748,0Z" transform="translate(1271.136 184.07)"/><path class="ac" d="M0,11.073c2.479.011,1.707,2.772,3.751,3.163C3.18,11.126,6.269,11.1,7.5,9.492,5.366,3.536,9.282,2.285,3.751,0,7.238,2.8,1.235,4.582,0,7.908Z" transform="translate(1279.793 242.402)"/><path class="ac" d="M1.263,7.912c-1.685,4.635-1.685,4.861,0,9.486,1.668-1.224,4.226-1.7,7.494-1.576V12.661c-5.048-1.872,0-8.258,0-11.077V0c-2.8.271-6.92-.563-7.494,1.583Z" transform="translate(1323.737 366.727)"/><path class="ac" d="M0,12.653c1.592.294,1.764-.618,1.868-1.576,3.9.4.517,6.946,3.751,7.908C12.32,16.679,8.563.969,1.868,0,2.728,7.571,3.928,7.7,0,12.653Z" transform="translate(1368.562 125.402)"/><path class="ac" d="M7.486,0C6.336,2.188.271.236,0,3.161V7.906C7.57,11.386,5.441,3.721,7.486,0Z" transform="translate(1360.066 265.394)"/><path class="ac" d="M5.76,8.107c.1-2.023,2.4-2.192,1.875-4.745C3.915,3.34,5.251-.959.152.2-.745,5.169,2.481,6.664,5.76,8.107Z" transform="translate(1359.878 1029.847)"/><path class="ac" d="M5.558,1.3C1.12-3.119-2.221,4.9,1.813,7.629H5.558Z" transform="translate(1366.816 200.781)"/><path class="ac" d="M3.743,12.7c-4.138-.2-.789-6.712-1.871-9.493C10.6,1.818.61,8.422,5.622,7.946,5.274,6.6,6.349,6.456,7.49,6.374,9.936-.068,3.61-1.579,0,1.624V12.7c.35,1.281,1.883,1.574,1.872,3.164C3.7,15.817,3.322,13.925,3.743,12.7Z" transform="translate(1394.738 1198.87)"/><path class="ac" d="M3.582.021C3.422.013,3.259.006,3.09,0c-.153,2.5.9,6.033-1.868,6.329a9.893,9.893,0,0,0,2.36,12.348Z" transform="translate(1403.975 190.801)"/><path class="ac" d="M0,4.752C3.284,7.661,6.506,4.941,5.615,0H0V4.752Z" transform="translate(17.666 338.159)"/><path class="ac" d="M9.369,4.75C9.446,2.04,7.97.655,5.622,0H3.747C5.115,4.318.026,3.189,0,6.332c2.534-.5,3.582-2.259,7.5-1.582Z" transform="translate(371.152 373.877)"/><path class="ac" d="M9.358,0C2.526.032,3.179,6.374,0,9.49c.106.964.278,1.872,1.871,1.582,1.453-.352,3.7-.043,3.744-1.582C8.219,7.465,6.757,2.023,9.358,0Z" transform="translate(390.264 444.186)"/><path class="ac" d="M7.55,4.931C9.434-.344,4.958-.252.066.186-.5,4.359,2.652,5.375,7.55,4.931Z" transform="translate(484.969 20.892)"/><path class="ac" d="M9.363,0C9.041,1.842,6.405,1.718,3.744,1.574,1.86,1.574,1.519,2.862,0,3.158A11.233,11.233,0,0,0,3.744,7.91H5.619C9.6,4.43,11.031,6.521,13.11,0Z" transform="translate(625.353 400.54)"/><path class="ac" d="M1.868,9.494c6.657,2.458,1.138-5.378,5.623-4.749C7.382,2.723,5.082,2.555,5.611,0,2.077.18,4.322,5.231,0,4.745V9.494Z" transform="translate(633.895 127.165)"/><path class="ac" d="M7.494,1.6C3.947,1.955,3.363-.19,0,.014c1.714,2.77.646,7.9,3.747,9.493.552-3.23,5.066-3.1,5.615-6.332C8.224,3.087,7.149,2.938,7.494,1.6Z" transform="translate(730.408 201.163)"/><path class="ac" d="M1.875,9.488C3.754,9.5,4.1,8.211,5.622,7.908,4.254,3.594,9.341,4.725,9.362,1.58A9.892,9.892,0,0,1,3.747,0C4.266,3.605,3.3,5.948,0,6.328.416,7.554.054,9.45,1.875,9.488Z" transform="translate(764.809 59.112)"/><path class="ac" d="M.641,0C-1.591.966,2.27,10.119,8.125,9.489,8.173,5.761,4.9,4.833,6.256,0H.641Z" transform="translate(816.374 36.532)"/><path class="ac" d="M0,.011V7.925C8.427,8.726,6.163-.365,0,.011Z" transform="translate(999.753 187.449)"/><path class="ac" d="M5.683,9.5C5.4,5.554,8.629,4.6,9.434,1.587,6.169,1.7,3.613,1.228,1.94,0,.8.088-.277.238.065,1.587V6.332H1.94C.578,8.917,5.656,13.213,5.683,9.5Z" transform="translate(990.2 17.894)"/><path class="ac" d="M0,1.583V6.328c6.405.4,10.214,2.976,14.985,4.749-.11-2.021-2.4-2.19-1.879-4.749-3.083-.021-1.047-4.387-3.74-4.745V4.749C6.156,7.613,2,4.268,1.876,0H0Z" transform="translate(1031.446 169.71)"/><path class="ac" d="M5.04.011C-2.4-.4-.918,10.321,5.04,11.092,1.3,7.122,9.907,5.788,5.04.011Z" transform="translate(1055.004 227.811)"/><path class="ac" d="M.007,6.328c3.2.329,4.848-2.7,5.619,0C8.166,5.842,7.179,2.368,7.5,0H.007C3.125,3.141-.165,2.01.007,6.328Z" transform="translate(1092.513 312.549)"/><path class="ac" d="M1.868,0C1.876,1.585.351,1.877,0,3.165c1.443.35,3.688.043,3.74,1.58C6.9,10.3,9.26,1.056,5.612,0Z" transform="translate(1103.976 177.027)"/><path class="ac" d="M1.824,6.334H5.572c.774-2,2.408-3.24,5.619-3.165C10.423,1.183,8.774-.073,5.572,0,7.45,4.765-4.4.806,1.824,6.334Z" transform="translate(1346.793 977.662)"/><path class="ac" d="M6,.563c-5.177-2.5-8.415,4.107-3.75,4.747H7.878C11.587,1.658,7.4,3.548,6,.563Z" transform="translate(1344.972 1063.164)"/><path class="ac" d="M0,0V4.749C.209,6.678.56,8.492,3.743,7.91c3.115-3.139-.171-2.01,0-6.326V0Z" transform="translate(1354.988 110.005)"/><path class="ac" d="M7.569,1.3C3.129-3.118-.2,4.9,3.829,7.633c3.338,4.26-8.254,3.057-1.881,4.745C9.718,13.669,2.894,2.628,7.569,1.3Z" transform="translate(64.304 151.64)"/><path class="ac" d="M.067,1.658A15.76,15.76,0,0,0,7.55,7.986c.1-.97.279-1.876,1.876-1.584V1.658H7.55C6.5,6.234,4.63-.77,1.931.071.8.162-.283.308.067,1.658Z" transform="translate(699.746 374.593)"/><path class="ac" d="M9.37,9.5C8.891,4.1,5.554,1.119,0,0,.537,5.357,2.256,9.7,9.37,9.5Z" transform="translate(1192.858 42.968)"/><path class="ac" d="M11.307.3C5.671-1.295,7.985,3.828,7.562,6.63,2.665,8.478-.5,1.751.066,8.21c1.455.357,3.691.043,3.744,1.584h7.5c1.05-3.289,2.918-3.349,5.615-1.584C21.467,4.4,14.42,2.294,11.307.3Z" transform="translate(1323.556 1085.401)"/><path class="ac" d="M9.366,1.812C7.906,2.156,7.188,3.135,7.5,4.971,3.886,4.327,6.021-1.165,0,.224,1.913,2.306,1.838,6.053,3.747,8.136H9.366C12.488,4.988,9.2,6.122,9.366,1.812Z" transform="translate(36.387 421.079)"/><path class="ac" d="M5.707,9.5C4.349,4.663,7.619,3.73,7.575,0H.084c-1,2.282,7.3,3.865,1.876,4.751C2.056,6.78,4.355,6.943,3.828,9.5Z" transform="translate(420.603 389.948)"/><path class="ac" d="M14.986,1.587C12.77,1.338,9.666,1.862,9.362,0,4.534.14,7.393,6.778,0,4.749c1.888,6.164,6.443.245,13.11,1.58C13.213,4.311,15.508,4.138,14.986,1.587Z" transform="translate(439.957 62.863)"/><path class="ac" d="M1.289,6.328c1.455-.359,3.7-.045,3.743-1.584C7.821,6.087,7.745,9.838,8.78,12.653c1.462-.348,2.183-1.323,1.875-3.159V3.161C10.659,1.576,9.132,1.278,8.78,0,7.1,3.206-3.655,2.167,1.289,6.328Z" transform="translate(591.763 201.107)"/><path class="ac" d="M.232,7.912c-1.363,4.314,3.721,3.184,3.747,6.332,5.893-3.3,1.118-6.45,3.747-11.081C6.587,3.255,5.5,3.4,5.854,4.747,3.672,4.479,3.822,2.246,3.979,0,1.347.417,1.844,3.47.232,4.747Z" transform="translate(600.002 143.812)"/><path class="ac" d="M3.74,1.583C3.349,3.356,1.664,4.05,0,4.749.441,7.53,3.221,8.357,7.491,7.912,4.485,5.009,9.217,2.555,3.74,0Z" transform="translate(936.692 75.995)"/><path class="ac" d="M0,1.66C.588,3.8,2.669,4.681,1.876,7.988,3.02,7.9,4.089,7.754,3.751,6.408,3.191,2.246,11.016,5.162,9.366.082,4.852-.573,5.3,2.966,0,1.66Z" transform="translate(956.887 217.89)"/><path class="ac" d="M3.74.063C.279.3,2.593,5.426,0,6.393,5.944,8.752,11.165-.865,3.74.063Z" transform="translate(1066.588 71.985)"/><path class="ac" d="M1.6,0c-.2,3.938-3.51,4.9,0,7.912C6.376,7.751,6.032,2.021,3.484,0Z" transform="translate(1073.688 137.284)"/><path class="ac" d="M5.626,12.671C12.7,10.949,7.04-.424.007.012c-.275,2.11,7.622,4.777,1.88,6.332C-.432,11.466,7.947,7.55,5.626,12.671Z" transform="translate(1109.372 210.772)"/><path class="ac" d="M1.175,0c-.725,2.259-2.236,2.673,0,4.749V6.332c3.725-2.641,2.383.138,7.5,0C10.314,1.25,3.811,3.046,3.054,0Z" transform="translate(1179.631 207.501)"/><path class="ac" d="M3.751.151C3.535,2.081,3.191,3.894,0,3.314c.862,5.03,8.089,3.135,9.362,0C9.6.473,7.513-.386,3.751.151Z" transform="translate(1239.598 55.482)"/><path class="ac" d="M0,9.5c2.168-.258,3.334.345,3.743,1.584,1.823-.047,1.451-1.937,1.876-3.165,1.823.043,1.45,1.941,1.864,3.165,5.362-.223,3.433-6.6,3.751-11.081Q.135.115,0,9.5Z" transform="translate(1324.697 64.669)"/><path class="ac" d="M1.969,9.5c4.138-.2.8-6.716,1.871-9.5C-1.288.03-.6,7.463,1.969,9.5Z" transform="translate(1374.245 163.945)"/><path class="ac" d="M0,9.5c6.018-1.32,3.883-1.353,7.49,1.578C8.584,5.945,6.223,3.719,5.619,0,3.661,3.094,1.857,6.321,0,9.5Z" transform="translate(1376.352 297.136)"/><path class="ac" d="M3.751,6.328c.1.968.271,1.874,1.868,1.587C5.135,10.134,1.511,9.718,0,11.077c.409,4.736,1.207,12.8,3.751,6.325C2.344,11.474,5.853,9.7,11.234,9.5,8.533,7.03,3.693,6.369,5.619,0,2.842.294,3.908,3.822,3.751,6.328Z" transform="translate(1389.619 1147.632)"/><path class="ac" d="M.729,0H0V6.329A4.992,4.992,0,0,1,.729,6.5Z" transform="translate(1406.828 1171.317)"/><path class="ac" d="M0,6.325H3.983V0H2.113C1.385.251.673.521,0,.824Z" transform="translate(0 569.118)"/><path class="ac" d="M0,.143V4.888c3.828.884,3.671,4.76,7.487,1.58Q8.8-.959,0,.143Z" transform="translate(19.511 46.483)"/><path class="ac" d="M0,9.494C5.685,9.544,4.672,3.94,5.623,0,3.227.084,3.031,2.029,0,1.582V6.328C2.269,6.66,1.155,8.082,0,9.494Z" transform="translate(33.736 257.578)"/><path class="ac" d="M6.027,0C3.085.148-.468-.209.411,3.163c-2.322,5.123,6.057,1.211,3.748,6.33H6.027C6.022,7.9,7.538,7.609,7.9,6.33A6.782,6.782,0,0,0,6.027,1.578Z" transform="translate(64.671 460.986)"/><path class="ac" d="M5.744,3.221C3.838,2.194,3.807-.415.132.057V1.638C-1.17,7.7,7.651,16.02,5.744,4.809Z" transform="translate(71.906 57.716)"/><path class="ac" d="M3.448,7.912C8.863,11.668,6.542.651,1.58,0-4.125.951,7.787,8.116,3.448,7.912Z" transform="translate(95.985 176.445)"/><path class="ac" d="M0,7.912c4.232.887-2.272,2.47,1.875,4.741,1.605,3.023,1.106-1.7,3.74-1.576C3.657,6.6,8.708.223,5.615,0,6.191,3.652.214,1.76,0,4.745Z" transform="translate(114.534 266.205)"/><path class="ac" d="M.41,0C-1.908,5.117,6.468,1.205,4.148,6.328V9.49H6.029c-1.6-5.041,1.63-6.006,3.741-7.912C3.893-.213,4.829,2.036.41,0Z" transform="translate(119.149 241.438)"/><path class="ac" d="M9.369,0h-7.5C4.426,2.018,4.769,7.751,0,7.912v3.165c4.8-.168,8.926-.895,11.237-3.165C11.836,4.245,10.938,1.84,9.369,0Z" transform="translate(136.127 387.547)"/><path class="ac" d="M0,9.486c1.822.049,1.452,1.941,1.869,3.171C6.865,10.038,4.516,2.632,5.621,0,3.716,1.031,3.68,3.637,0,3.161V9.486Z" transform="translate(156.042 88.1)"/><path class="ac" d="M3.747,0C-4.083,3.835,7.895,7,0,9.494c.021,2.091,3.288,1.445,3.747,3.163H7.492C4.756,9.7,7.419,2.171,3.747,0Z" transform="translate(179.947 23.521)"/><path class="ac" d="M.914,15.855c-4.22,7,7.425.391,9.363-1.587.946-3.938,3.547-6.5,5.618-9.49V1.612C14.3,1.9,14.131.995,14.021.033,9.7-.452,11.945,4.6,8.406,4.777V6.359C5.087,11,5.85,11.714,4.659,15.855Z" transform="translate(266.538 452.952)"/><path class="ac" d="M7.5,0C.3,2.029,8.742,8.1,0,9.494c.11.966.278,1.872,1.872,1.58.4-1.771,2.084-2.465,3.747-3.167V6.327C10.555,6.8,11.771,4.138,11.242,0Z" transform="translate(285.146 9.812)"/><path class="ac" d="M1.936,13.57C.8,13.66-.279,13.808.065,15.156a9.883,9.883,0,0,0,5.622,1.58A8.858,8.858,0,0,1,11.3,11.99V8.827C14.82,6.027,9.076,4.2,13.175.917c-.816-2.347-2.4.625-5.615,0V4.083C12.231,6.613,6.271,13.417,1.936,13.57Z" transform="translate(297.428 411.23)"/><path class="ac" d="M11.169.468c-4.643-2.052-9.084,3.526-9.362,0C-6,6.173,14.2,10.346,11.169.468Z" transform="translate(300.636 471.345)"/><path class="ac" d="M1.872,9.586C6.1,8.324,8.055-1.023,0,.092-.037,3.817,3.224,4.745,1.872,9.586Z" transform="translate(350.922 263.898)"/><path class="ac" d="M1.809,8.174c-5.461,2.218,3.322,5.45,1.872,9.49,2.193.26,1.578,2.888,1.872,4.749,6.387-.659-2.826-8.672,1.875-7.912C8.5,11.719,5.165,5.206,9.3,5.011Q10.982-1.152,3.681.266V3.424c1.52-.3,1.864-1.585,3.747-1.578C6.229,5.75,4.412,18.991,1.809,8.174Z" transform="translate(379.923 166.901)"/><path class="ac" d="M11.238,2.472C8.827,1.686.035-1.539,0,.892,3.437,3.254,4.664,7.5,9.362,8.8c.108-.962.277-1.879,1.876-1.584Z" transform="translate(411.216 336.117)"/><path class="ac" d="M11.237,3.161C9.589-2.278,9.552,5.029,3.743,0,7.691,8.608,7.143,2.985,0,6.321,6.656,3.867,1.129,11.7,5.619,11.073c1.447-.355,3.684-.045,3.743-1.583V7.906c3.2-.069,4.851,1.174,5.615,3.167,3.545-.136-.454-6.779-5.615-4.752C9.712,5.044,11.242,4.752,11.237,3.161Z" transform="translate(413.867 358.51)"/><path class="ac" d="M7.491,1.652C7.173-.19,4.53-.066,1.872.068,1.453,1.3,1.821,3.187,0,3.232,4.143,5.51-2.361,7.091,1.872,7.981h9.362C13.378,3,8.3,4.134,7.491,1.652Z" transform="translate(422.954 421.315)"/><path class="ac" d="M11.23,18.987c1.046-3.867,7.249-3.371,5.622-9.494-6.186,2.7-11.566,1.952-9.362-6.328C4.748,5.432,1.55,4.376,1.871,0,.048.043.417,1.937,0,3.165c2.818,1.381-.519,2.37,1.871,6.328,1.818.043,1.456,1.937,1.872,3.161H9.362v6.332Z" transform="translate(463.968 414.268)"/><path class="ac" d="M0,1.58c.852,7.579,4.083,6,9.372,3.163-.3-1.84.41-2.815,1.87-3.163V0H9.372C7.815,1.13,2.3,9.22,1.88,1.58Z" transform="translate(522.041 185.298)"/><path class="ac" d="M0,0C.45,2.255,3.079,2.669,3.748,4.745c1.879-.007,2.228,1.281,3.743,1.584,3.026-.446,3.229,1.5,5.619,1.58-2.248-2.082-.725-2.486,0-4.745C10.785-4.017,7.663,5.892,3.748,1.58,1.864,1.587,1.521.3,0,0Z" transform="translate(503.911 234.155)"/><path class="ac" d="M0,0C7.747,7.034,5.235,11.223,0,15.814c5.11,1.155,3.766-3.145,7.487-3.165-.238,2.839,1.859,3.7,5.619,3.165,0-1.587-1.522-1.883-1.872-3.165.318-4.49-6.333-3.083-3.747-9.488C2.377,4.311,3.717.015,0,0Z" transform="translate(538.316 93.083)"/><path class="ac" d="M7.567,6.325V4.745C5.724,2.6,2.566,1.583.077,0,1.646,1.834,2.54,4.243,1.948,7.91c-1.192,3.616-3.713,9.542,0,12.653H3.82C3.357,15,9.289,10.978,7.567,6.325Z" transform="translate(535.439 327.914)"/><path class="ac" d="M0,4.95V9.7H1.874c4.149.867,2.657-3.029,5.615-3.167C5.321,4.187,5.321,2.538,7.489.2.952-1.215,4.294,5.36,5.617,6.53,2.594,6.977,2.4,5.031,0,4.95Z" transform="translate(546.853 150.791)"/><path class="ac" d="M5.615,3.165c1.458.348,2.175,1.32,1.875,3.163C4.683,6.594.58,5.761,0,7.91,3.241,11.5-.721,21.173,5.615,22.15c3.282-1.449,6.514-2.942,5.622-7.912-3.506,3.111-9.023.915-7.5-4.745,5.893-1.814,4.559,2.486,7.5,3.163,1.575-1.836,2.464-4.241,1.872-7.912V3.165C9.9,3.231,8.255,1.988,7.49,0H5.615Z" transform="translate(561.34 170.53)"/><path class="ac" d="M3.223,15.814c.517,4.647-7.5,5.883,0,7.916a8.884,8.884,0,0,1,5.619-4.745C5.981,16.1,5.981,6.042,8.842,3.161,6.171,2.781,5.677.56,3.223,0V7.91C4.339,12.96-.293,12.8,3.223,15.814Z" transform="translate(609.775 368.307)"/><path class="ac" d="M1.9,9.5c.735,2.252,2.252,2.667,0,4.745C8.194,17.651-.559,21.5.029,25.31v3.165H3.772c3.478-2.862,4.273-7.983,5.619-12.66V12.657C10.5,6.869,12.034,5.3,7.516,0,4.531,1.166,7.945,7.74,1.9,6.332Z" transform="translate(617.193 290.059)"/><path class="ac" d="M15.1,7.916c-2.208.243-5.313-.279-5.619,1.578-.422,1.23-.052,3.122-1.872,3.167C6.535,7.771,3.689,4.369,1.989,0-3.878,4.833,5.656,12.85.121,17.406c1.137.092,2.211.23,1.868,1.583H7.608c-.084-2.71,1.393-4.1,3.747-4.747V11.077c7.269-.866,4.4,6.836,9.362,7.912,1.594-.29,1.762.618,1.876,1.578,1.593-.288,1.762.618,1.871,1.587,2.756-1.619,1.4-9.761-1.871-14.239C19.818,6.08,17.869,6.08,15.1,7.916Z" transform="translate(636.476 160.842)"/><path class="ac" d="M2.054,0C1.459,2.136-.616,3.019.179,6.324H9.548C9.5,7.863,7.248,7.556,5.8,7.908c.3,1.853,3.413,1.334,5.622,1.58C12.231,3.536,7.461,2.289,3.926,0Z" transform="translate(647.945 351.209)"/><path class="ac" d="M7.494,0c-2.741,2.987-8.8,7.917-5.622,11.07H0v3.165c2.947.144,1.47,4.039,5.623,3.167C4.749,10.7,4.234,7.948,9.366,6.328V3.161C6.43,2.605,11,.38,7.494,0Z" transform="translate(654.844 416.742)"/><path class="ac" d="M0,4.75c1.645,2.8,5.933,4.616,1.867,7.91,1.753.893,2.842,4.4,3.748,1.58.815-2.351,2.4.622,5.618,0V11.077c1.906,1.028,1.938,3.639,5.619,3.163C16.691,12,16.546,9.757,18.725,9.5V4.75c-3.026.442-3.227-1.5-5.619-1.583H11.233C9.626,4.44,10.122,7.5,7.49,7.912,3.1,7.4,5.672,1.011,1.867,0,1.576,1.862,2.2,4.49,0,4.75Z" transform="translate(678.828 215.404)"/><path class="ac" d="M5.623,0H3.748C4.386,3.178,3.37,4.951,0,4.749V6.332c2.105.33,2.916,1.756,3.748,3.163,4.769-.161,4.426-5.9,1.875-7.912Z" transform="translate(692.063 341.52)"/><path class="ac" d="M11.235,4.749c-2.781-.691.732-2.021,0-4.749H9.36c-.807,2.49-5.889,1.352-3.743,6.326C4.817,9.348.258,9.19,1.873,14.242H0c.415,1.224.047,3.122,1.873,3.161h1.87c-.345-1.348.729-1.49,1.874-1.582C7.537,12.176,12.063,10.718,11.235,4.749Z" transform="translate(736.134 119.624)"/><path class="ac" d="M2.819,3.169C.085,6.882-1.842,6.708,2.819,9.5c2.771-.82,4.716-2.34,7.5-3.163C5.608,3.545,9,3.718,6.563,0H2.819Z" transform="translate(855.966 105.82)"/><path class="ac" d="M3.527,12.657c-4.345-3.2-4.307.638-1.88,3.165h1.88C4.6,11.987,10.6,12.3,14.763,11.073V3.165C12.936,3.118,13.308,1.224,12.889,0,10.113,1.827,8.169,1.827,5.4,0H3.527V3.165H5.4c3.3,1.4,3.092,7.015,7.49,3.159C14.2,12.185,6.323,10.272,3.527,12.657Z" transform="translate(856.841 257.643)"/><path class="ac" d="M0,3.292V11.2C9.511,10.575,1.5,3.372,5.615.127,1.467-.744,2.951,3.149,0,3.292Z" transform="translate(901.318 32.189)"/><path class="ac" d="M10.523,9.49H8.645C8.207,4.591,3.436,3.345,1.161,0-2.23,3.676,2.668,8.133,4.9,7.906c-9.133,2.171,3.049,6.519-1.868,9.5C9.044,17.737,7.585,11.76,10.523,9.49Z" transform="translate(916.794 255.246)"/><path class="ac" d="M0,0C1.744,3.794,7.527,4.185,5.615,11.073c1.6-.3,1.768.614,1.875,1.576,8.5-2.959,2.548,6.287,9.358,4.749C17.368,5.728,14.188,1.669,0,0Z" transform="translate(926.298 100.351)"/><path class="ac" d="M.118,4.965c4.084,3.317-.933,4.518,0,9.5H1.993c.745-10.278,3.448.76,3.748-3.163,1.823.049,1.442,1.937,1.871,3.163,1.14-.084,2.215-.234,1.872-1.58s.73-1.492,1.872-1.584V4.965H9.484C8.438,8.734,3.851,3.207,7.612,1.807,4.128,3.32,1.354-2.93.118,1.807Z" transform="translate(926.985 375.939)"/><path class="ac" d="M.152,3.165c-.9,4.966,2.335,6.461,5.615,7.908C.781,7.526,8.418,3.145,3.9,0H2.024C.562.348-.148,1.323.152,3.165Z" transform="translate(935.482 235.8)"/><path class="ac" d="M2.1,4.8c-5.737,1.55,2.148,4.219,1.877,6.328v1.582a9.96,9.96,0,0,0,5.619-1.582c-3.089-2.458.636-6.164,1.868-9.5C11.048.406,9.894-.2,7.717.059Q8.222,5.231,2.1,4.8Z" transform="translate(945.937 252.682)"/><path class="ac" d="M5.647.391C-1.7-1.627-.63,4.718,1.9,6.72H5.647C2.525,3.582,5.814,4.709,5.647.391Z" transform="translate(954.778 381.252)"/><path class="ac" d="M0,0C.029,2.094,3.287,1.447,3.747,3.165,1.111,3.579,1.611,6.635,0,7.91c2.68-.38,3.158-2.6,5.627-3.169C5.722,7.468,4.182,8.8,1.876,9.49c2.635-1.378,6.335,8.522,9.362,1.583C8.771,6.306,6.566,1.308,0,0Z" transform="translate(984.495 288.758)"/><path class="ac" d="M7.487,6.325v4.749C15.128,13.5,14.35,7.433,14.979,0,11.109,1.5,4.562-.867,0,3.162V6.325H5.615C5.257,5.041,3.74,4.752,3.744,3.162c5.765-1.1,3.6-1.1,9.362,0C13.425,7.545,10.226,8.6,7.487,6.325Z" transform="translate(1001.739 352.316)"/><path class="ac" d="M0,7.908c3.916,3.333,7.034-2.085,9.359-4.747C4.253,4.314,5.591.019,1.868,0,1.551,2.366,2.546,5.838,0,6.328Z" transform="translate(1033.211 186.272)"/><path class="ac" d="M.017,7.664c-.325,6.664,4.193,1.086,5.624,0,4.781.069,2.277-1.177,1.868-3.171,1.422-8-4.9-3.212-7.492-1.578Z" transform="translate(1051.85 97.366)"/><path class="ac" d="M0,9.488c1.947,6.353,9.479,0,7.492-6.325C5.457,2.772,6.217.015,3.749,0c-4.142.195-.8,6.7-1.878,9.488Z" transform="translate(1055.341 120.112)"/><path class="ac" d="M5.294,4.745C4.63,6.562,2,8.76,1.543,6.324c-3.334,1.162-.268,2.884,0,4.752,1.883.008,2.228-1.282,3.751-1.584.172,2.491-.249,5.484,3.736,4.747-2.977-5.653.917-3.734,5.626-1.583,0-1.591,1.521-1.875,1.876-3.164C10.463,8.368,15.321.464,12.781,0,9.165.64,12.62,7.249,5.294,4.745Z" transform="translate(1121.688 318.219)"/><path class="ac" d="M7.483,1.373C4.711-.458,2.77-.458,0,1.373,1.044,6.96,6.441,6.96,7.483,1.373Z" transform="translate(1127.786 97.748)"/><path class="ac" d="M13.3,3.161C10.822,3.145,11.586.387,9.554,0,11.443,8.455-1.7,4.2.185,12.661v1.578C6.334,12.045,9.064,6.969,13.3,3.161Z" transform="translate(1157.166 59.863)"/><path class="ac" d="M7.491,8.283C7.074,5.288,9.6,4.788,9.362,1.951-2.534-4.528,2.95,6.258,0,17.772c1.451.356,3.691.045,3.747,1.583H9.362c1.306-5.323-3.853-5.185-5.615-7.908C4.573,10.031,5.39,8.616,7.491,8.283Z" transform="translate(1243.524 152.179)"/><path class="ac" d="M3.743,0H0V6.325C4.445,10.751,7.77,2.731,3.743,0Z" transform="translate(1272.005 182.348)"/><path class="ac" d="M0,11.077c2.479.019,1.716,2.776,3.743,3.163C3.178,11.129,6.274,11.1,7.49,9.492,5.367,3.536,9.285,2.289,3.743,0,7.239,2.808,1.232,4.59,0,7.912Z" transform="translate(1280.659 240.672)"/><path class="ac" d="M1.259,7.912c-1.679,4.631-1.679,4.857,0,9.49,1.672-1.228,4.23-1.7,7.491-1.587V12.657c-5.04-1.872.011-8.247,0-11.077V0c-2.8.268-6.91-.567-7.491,1.58Z" transform="translate(1324.6 365.013)"/><path class="ac" d="M0,12.651c1.595.29,1.771-.618,1.875-1.578,3.887.4.51,6.948,3.74,7.91C12.327,16.681,8.565.964,1.875,0,2.724,7.566,3.938,7.695,0,12.651Z" transform="translate(1369.424 123.686)"/><path class="ac" d="M7.487,0C6.348,2.192.279.238,0,3.165V7.91C7.568,11.388,5.441,3.725,7.487,0Z" transform="translate(1360.921 263.672)"/><path class="ac" d="M5.771,8.1c.1-2.021,2.395-2.188,1.868-4.749C3.923,3.336,5.261-.962.152.2-.745,5.161,2.484,6.658,5.771,8.1Z" transform="translate(1360.734 1028.135)"/><path class="ac" d="M5.551,1.3C1.11-3.116-2.212,4.9,1.808,7.631H5.551Z" transform="translate(1367.69 199.058)"/><path class="ac" d="M3.739,12.694C-.392,12.5,2.95,5.986,1.868,3.2,10.594,1.812.606,8.417,5.611,7.947c-.348-1.342.73-1.492,1.872-1.582C9.932-.066,3.61-1.58,0,1.625V12.694c.358,1.28,1.88,1.578,1.868,3.167C3.684,15.812,3.315,13.916,3.739,12.694Z" transform="translate(1395.608 1197.156)"/><path class="ac" d="M2.727,0a1.868,1.868,0,0,1-1.5.855,9.853,9.853,0,0,0,1.5,11.536Z" transform="translate(1404.83 194.548)"/><path class="ac" d="M0,4.751C3.287,7.663,6.506,4.94,5.619,0H0V4.751Z" transform="translate(18.528 336.446)"/><path class="ac" d="M9.358,4.745C9.442,2.042,7.967.649,5.615,0H3.743C5.111,4.316.026,3.187,0,6.33c2.534-.5,3.575-2.252,7.486-1.585Z" transform="translate(372.022 372.161)"/><path class="ac" d="M9.366,0C2.527.026,3.179,6.374,0,9.49c.11.964.279,1.877,1.876,1.58,1.452-.354,3.693-.039,3.743-1.58C8.223,7.465,6.767,2.021,9.366,0Z" transform="translate(391.127 442.467)"/><path class="ac" d="M7.556,4.932C9.439-.35,4.963-.251.065.187-.5,4.359,2.657,5.38,7.556,4.932Z" transform="translate(485.83 19.169)"/><path class="ac" d="M9.362,0C9.052,1.842,6.408,1.718,3.743,1.578,1.872,1.576,1.517,2.865,0,3.165A11.258,11.258,0,0,0,3.743,7.91H5.619C9.607,4.434,11.028,6.521,13.109,0Z" transform="translate(626.215 398.818)"/><path class="ac" d="M1.875,9.493C8.525,11.951,3,4.119,7.49,4.745,7.385,2.719,5.093,2.551,5.615,0,2.081.176,4.318,5.231,0,4.745V9.493Z" transform="translate(634.758 125.447)"/><path class="ac" d="M7.5,1.59C3.948,1.944,3.356-.194,0,.014,1.711,2.781.645,7.907,3.751,9.5,4.3,6.281,8.814,6.4,9.363,3.172,8.225,3.086,7.143,2.938,7.5,1.59Z" transform="translate(731.278 199.444)"/><path class="ac" d="M1.88,9.49C3.755,9.5,4.1,8.213,5.619,7.91,4.255,3.594,9.345,4.726,9.362,1.582A9.878,9.878,0,0,1,3.744,0C4.274,3.607,3.3,5.95,0,6.331.424,7.56.056,9.445,1.88,9.49Z" transform="translate(765.672 57.388)"/><path class="ac" d="M.641,0C-1.591.969,2.268,10.115,8.133,9.49,8.174,5.765,4.9,4.837,6.257,0H.641Z" transform="translate(817.241 34.806)"/><path class="ac" d="M0,.011v7.9C8.423,8.719,6.164-.365,0,.011Z" transform="translate(1000.62 185.734)"/><path class="ac" d="M5.681,9.494C5.4,5.557,8.627,4.6,9.428,1.58,6.166,1.7,3.607,1.228,1.944,0,.793.092-.279.234.066,1.58V6.332H1.944C.572,8.914,5.662,13.213,5.681,9.494Z" transform="translate(991.068 16.172)"/><path class="ac" d="M0,1.587V6.332C6.4,6.72,10.218,9.3,14.98,11.077c-.1-2.025-2.4-2.2-1.871-4.745-3.09-.024-1.047-4.393-3.74-4.745V4.75C6.156,7.609,2.006,4.264,1.875,0H0Z" transform="translate(1032.309 167.992)"/><path class="ac" d="M5.04.011C-2.406-.4-.913,10.325,5.04,11.092,1.293,7.122,9.906,5.791,5.04.011Z" transform="translate(1055.87 226.089)"/><path class="ac" d="M.006,6.332c3.2.335,4.854-2.7,5.622,0C8.164,5.842,7.179,2.37,7.494,0H.006C3.128,3.148-.162,2.018.006,6.332Z" transform="translate(1093.372 310.823)"/><path class="ac" d="M1.865,0C1.876,1.589.354,1.881,0,3.165c1.447.352,3.693.039,3.744,1.583C6.905,10.3,9.264,1.052,5.619,0Z" transform="translate(1104.843 175.309)"/><path class="ac" d="M1.828,6.335h3.74c.771-1.988,2.42-3.236,5.618-3.171C10.427,1.184,8.774-.065,5.568,0,7.443,4.766-4.4.809,1.828,6.335Z" transform="translate(1347.655 975.938)"/><path class="ac" d="M5.992.565c-5.17-2.506-8.4,4.107-3.744,4.743H7.867C11.581,1.661,7.393,3.548,5.992.565Z" transform="translate(1345.846 1061.442)"/><path class="ac" d="M0,0V4.752c.209,1.93.563,3.74,3.747,3.163,3.118-3.145-.175-2.012,0-6.328V0Z" transform="translate(1355.847 108.283)"/><path class="ac" d="M7.571,1.3C3.131-3.117-.2,4.9,3.829,7.635c3.337,4.252-8.256,3.053-1.879,4.741C9.717,13.667,2.889,2.622,7.571,1.3Z" transform="translate(65.17 149.921)"/><path class="ac" d="M.064,1.655A15.8,15.8,0,0,0,7.556,7.98c.11-.958.282-1.868,1.872-1.576V1.655H7.556C6.507,6.239,4.636-.773,1.94.071.8.159-.277.309.064,1.655Z" transform="translate(700.599 372.874)"/><path class="ac" d="M9.362,9.49C8.879,4.1,5.542,1.114,0,0,.521,5.351,2.239,9.7,9.362,9.49Z" transform="translate(1193.736 41.252)"/><path class="ac" d="M11.3.3C5.67-1.293,7.985,3.824,7.556,6.626,2.653,8.474-.5,1.741.065,8.21c1.453.358,3.7.043,3.742,1.58H11.3c1.054-3.289,2.922-3.351,5.627-1.58C21.462,4.4,14.414,2.289,11.3.3Z" transform="translate(1324.426 1083.688)"/><path class="ad" d="M0,1.817V3.633C.445,4.773,1.383,5.49,3.224,5.445A5.185,5.185,0,0,1,2.148.911V0C.724.019,1.172,1.594,0,1.817Z" transform="translate(19.341 440.051)"/><path class="ad" d="M8.588.912C7.321.763,5.545,1.069,5.369,0,2.595.08,4.236,3.886,0,2.727c1.08,3.536,3.7.138,7.52.9C7.578,2.473,8.894,2.377,8.588.912Z" transform="translate(81.354 133.924)"/><path class="ad" d="M.134,4.541C-.65,7.012,2.262,6.364,2.278,8.166c3.382-1.894.644-3.7,2.152-6.349-.657.054-1.271.127-1.078.906C2.1,2.57,2.189,1.29,2.278,0,.763.241,1.061,1.988.134,2.723Z" transform="translate(173.153 180.353)"/><path class="ad" d="M3.276.945C1.9.895,1.789-.221.056.039c-.446,2.186,1.96,1.971,1.07,4.533C2.253,9.658,1.807,1.235,3.276.945Z" transform="translate(234.093 66.287)"/><path class="ad" d="M0,.907c.013,1.2,1.889.829,2.148,1.816H5.377V0C3.234,1.514,4-.081,1.081,0,1.017.552.917,1.072,0,.907Z" transform="translate(355.854 425.677)"/><path class="ad" d="M2.148.909C1.914,1.926.95,2.324,0,2.727c.256,1.6,1.841,2.065,4.291,1.812C2.565,2.877,5.285,1.465,2.148,0Z" transform="translate(366.265 141.456)"/><path class="ad" d="M2.258.8H.106c-1.043,3.291,6,1.933,5.374,0C5.2-.623,3.116.163,2.258.8Z" transform="translate(458.746 0)"/><path class="ad" d="M3.229,7.263c4.054-.99.8-7.5-3.225-7.257C-.153,1.218,4.376,2.749,1.078,3.638-.253,6.573,4.552,4.329,3.229,7.263Z" transform="translate(465.31 218.76)"/><path class="ad" d="M2.154.086C2.029,1.194,1.829,2.233,0,1.9c.5,2.888,4.647,1.8,5.378,0C5.514.273,4.314-.221,2.154.086Z" transform="translate(539.997 129.692)"/><path class="ad" d="M0,0C2.212.855.91,4.676,4.3,4.533,4.569,1.58,3.022.172,0,0Z" transform="translate(730.167 274.763)"/><path class="ad" d="M3.006.958V.049C.4-.537-1.018,4.369.858,4.582,4.476,3.766.985,2.555,3.006.958Z" transform="translate(898.714 252.466)"/><path class="ad" d="M1.181.037C.838,1.265-.352,1.77.1,3.675c2.691.148,3.356-1.4,4.3-2.731C4.216-.106,2.705-.036,1.181.037Z" transform="translate(1352.557 1189.086)"/><path class="ad" d="M0,8.888A5.341,5.341,0,0,0,2.863,9.6,5.1,5.1,0,0,1,6.085,6.875V5.065C8.1,3.461,4.806,2.411,7.165.528,6.7-.823,5.783.888,3.942.528V2.342C6.619,3.794,3.2,7.7.72,7.781A2.9,2.9,0,0,0,0,7.9Z" transform="translate(0 333.735)"/><path class="ad" d="M6.447,1.417C5.065.964.021-.878,0,.507,1.973,1.872,2.675,4.3,5.374,5.045c.055-.552.157-1.067,1.073-.906Z" transform="translate(64.865 290.655)"/><path class="ad" d="M4.163,3c-2.577.358.6-4.139-3.221-2.725C-1.107,2.937.622,7.731,2.016,12.07c.868.176,1.069.915,2.147.912C4,10.14.478,4.459,4.163,3.907Z" transform="translate(81.488 58.215)"/><path class="ad" d="M0,.913C.48,5.256,2.336,4.35,5.367,2.727,5.192,1.67,5.6,1.112,6.444.913V0H5.367C4.479.651,1.31,5.293,1.074.913Z" transform="translate(128.44 204.141)"/><path class="ad" d="M3.219,1.818c.837.206,1.246.76,1.074,1.817C2.686,3.789.325,3.309,0,4.537,1.853,6.6-.422,12.146,3.219,12.709c1.879-.831,3.729-1.69,3.222-4.537-2.007,1.784-5.178.522-4.3-2.723C5.519,4.41,4.752,6.869,6.44,7.264A5.22,5.22,0,0,0,7.516,2.725V1.818C5.676,1.855,4.731,1.138,4.293,0H3.219Z" transform="translate(150.978 195.673)"/><path class="ad" d="M.678.54c-.416,1.3-1.292,1.535,0,2.72a8.005,8.005,0,0,1,5.373.914C5.272,1.695,8.187,2.344,8.2.54,5.05,3.582,3.85-1.614,1.753.54Z" transform="translate(178.376 423.478)"/><path class="ad" d="M1.091,5.445c.416,1.3,1.287,1.535,0,2.724C4.7,10.124-.32,12.335.016,14.514v1.817H2.166c1.994-1.638,2.45-4.58,3.221-7.253V7.261C6.023,3.942,6.9,3.042,4.313,0,2.6.674,4.556,4.446,1.091,3.631Z" transform="translate(183.007 264.234)"/><path class="ad" d="M1.175,0C.842,1.228-.354,1.731.1,3.633H5.476c-.031.882-1.323.7-2.148.906.168,1.069,1.956.766,3.225.9C7.013,2.029,4.279,1.312,2.253,0Z" transform="translate(200.646 299.309)"/><path class="ad" d="M4.3,0C2.731,1.718-.748,4.55,1.074,6.353H0V8.17c1.688.081.84,2.31,3.225,1.814-.5-3.839-.793-5.422,2.146-6.351V1.815C3.689,1.5,6.311.219,4.3,0Z" transform="translate(204.6 336.893)"/><path class="ad" d="M8.565,0C7.487,0,7.285.74,6.415.9c-.544,2.2-3.056,4.7-5.371,2.731-3.476,2.851,2.8.672,3.225,2.716h4.3C9.519,3.04,6.67,1.518,8.565,0Z" transform="translate(219.581 386.826)"/><path class="ad" d="M6.443,2.716c-1.591-.4.423-1.162,0-2.716H5.363C4.91,1.417,1.994.771,3.218,3.622,2.769,5.355.153,5.263,1.071,8.163H0c.234.7.026,1.787,1.071,1.814H2.146c-.2-.775.424-.852,1.071-.908C4.329,6.978,6.921,6.145,6.443,2.716Z" transform="translate(251.224 166.491)"/><path class="ad" d="M0,0C.11,2.325.607,4.326,2.146,5.443c-.187-3.586,1.649.3,3.221-1.813.14-2.248-1.316-1.546-1.075,0C1.537,3.54,2.761.08,0,0Z" transform="translate(276.95 47.451)"/><path class="ad" d="M4.343.943C2.97.9,2.86-.217,1.122.038,1.061.594.965,1.112.048.943v.915C.236,4.2-.876,9.069,2.2,6.394c.063-.556.157-1.078,1.074-.912A5.193,5.193,0,0,0,4.343.943Z" transform="translate(296.09 459.397)"/><path class="ad" d="M1.613,1.814c-1.561,2.132-2.67,2.033,0,3.627,1.594-.466,2.7-1.338,4.3-1.81-2.7-1.606-.761-1.5-2.15-3.631H1.613Z" transform="translate(319.963 158.564)"/><path class="ad" d="M2.02,7.257C-.466,5.425-.451,7.629.949,9.065H2.02c.623-2.188,4.052-2.014,6.442-2.716V1.812C7.424,1.792,7.636.7,7.4,0A3.338,3.338,0,0,1,3.1,0H2.02V1.812H3.1c1.886.8,1.77,4.026,4.3,1.817C8.141,6.986,3.622,5.889,2.02,7.257Z" transform="translate(320.459 245.645)"/><path class="ad" d="M.067,2.848c2.352,1.906-.531,2.592,0,5.447H1.145c.427-5.9,1.978.436,2.152-1.815,1.043.024.832,1.11,1.069,1.815.657-.047,1.271-.135,1.078-.906s.419-.855,1.07-.91V2.848H5.445c-.6,2.162-3.233-1.005-1.078-1.81-2,.866-3.59-2.72-4.3,0Z" transform="translate(360.692 313.496)"/><path class="ad" d="M0,0C.015,1.2,1.887.829,2.15,1.821.636,2.055.922,3.805,0,4.541c1.532-.223,1.813-1.5,3.221-1.817A2.558,2.558,0,0,1,1.075,5.447c1.513-.786,3.634,4.887,5.371.908C5.023,3.62,3.766.749,0,0Z" transform="translate(393.682 263.485)"/><path class="ad" d="M4.292,3.631V6.351C8.67,7.743,8.225,4.26,8.588,0,6.372.859,2.617-.5,0,1.814V3.631H3.22c-.211-.74-1.078-.9-1.078-1.818,3.309-.636,2.066-.636,5.37,0C7.691,4.326,5.861,4.925,4.292,3.631Z" transform="translate(403.576 299.947)"/><path class="ad" d="M.526.78c-1,2.667-.717,5.892,2.154,3.625V2.592C2.474,1.858,1.594,1.69,1.6.78,6.149.681,1.619-.925.526.78Z" transform="translate(417.426 397.585)"/><path class="ad" d="M3.788,2.72C2.738,1.795,1.668.887.568,0c-.757,2.789-.757,1.743,0,4.541.873.165,1.073.906,2.152.906,1.825.333,2.028-.713,2.146-1.817C3.946,3.8,3.854,3.276,3.788,2.72Z" transform="translate(545.151 384.535)"/><path class="ad" d="M.01,0C-.131,1.625,1.322,1.913,1.084,3.624c-1.327,2.529,3.476,2.529,2.148,0C4.012,1.151,1.1,1.8,1.084,0Z" transform="translate(652.978 432.693)"/><path class="ad" d="M4.344,1.877C4.221.772,4.015-.27,2.2.063,5.127,2.519-.583,2.322.049,5.506H2.2C1.406,3.032,4.323,3.681,4.344,1.877Z" transform="translate(673.09 414.033)"/><path class="ad" d="M0,.059C4.143,3.112,1.934,6.013,7.521,7.32V3.688c-1.463-.281-.9-2.274-1.075-3.629H5.374C5.129.761,5.351,1.85,4.3,1.871,5.381-.853,1.9.263,0,.059Z" transform="translate(764.71 422.394)"/><path class="ad" d="M2.146,3.625C5.673,5.237.888,7.307,0,8.166c.6,2.052,1.674-1.1,3.222.91C3.13,7.786,3.042,6.5,4.3,6.349A4.524,4.524,0,0,1,5.37,9.984H6.44C7.358,6.555,2.885,5.72,5.37,3.625V1.815C4.324,1.787,4.533.706,4.3,0,3.13.223,3.563,1.8,2.146,1.815v1.81Z" transform="translate(775.18 340.564)"/><path class="ad" d="M4.414,2.723c-2.808,5.542-7.1,1.76-2.145,8.168,2.409-1.649,2.05-4.986,4.3-4.537-.6,0-1.219-.74,0-.906.028-.882,1.312-.7,2.148-.908C8.074,2.926,11.866.773,8.714,0a.909.909,0,1,0,0,1.817C7.786,3.189,7.107,1.565,4.414,2.723Z" transform="translate(785.472 222.507)"/><path class="ad" d="M3.232,1.881C3.108.773,2.9-.27,1.078.063-.752,2.184-.39,11.144,3.232,8.23V7.324C1.17,6.165,2.874,3,3.232,2.783Z" transform="translate(821.655 258.336)"/><path class="ad" d="M3.6,6.345C.432,5.559,6.1,4.994,4.681,2.719A5.079,5.079,0,0,0,1.459,0C.869,1.312,2.713,4.687.385,4.535-1.32,7.04,3.17,8.6,3.6,6.345Z" transform="translate(843.682 252.204)"/><path class="ad" d="M0,0C.655,2.167,1.547,4.135,1.082,7.253,3.518,6.21,4.588.094,0,0Z" transform="translate(863.276 228.036)"/><path class="ad" d="M2.2.2c.233,4-2.626,2.611-2.15,8.165H4.348C3.055,4.542,6.083,4.385,6.5,2.008,3.021,3.135,5.672-.923,2.2.2Z" transform="translate(871.485 281.909)"/><path class="ad" d="M5.47,4.545H4.4C5.278,1.074,2.114,1.028.1,0-.613,3.931,2.6,4.548,5.47,5.451Z" transform="translate(930.037 295.604)"/><path class="ad" d="M6.651,1.814C6.37-.069,1.932,1.565,1.273,0c-.836.633-2.39,5.067,0,5.447H3.428C3.245,3.176,5.077,2.607,6.651,1.814Z" transform="translate(939.213 17.818)"/><path class="ad" d="M3.226,3.626C2.983,5.34,4.438,5.63,4.3,7.253H0V9.071c1.269-.129,2.441-1.617,3.226,0-1.3.193-.663,1.009,0,1.812,1.416-.009.982-1.585,2.152-1.812,1.779,1.557,6.854,5.037,3.221,8.17v.906c1.766-2.635,5.267,2.462,3.223,2.72.2.736,1.077.9,1.077,1.814a5.628,5.628,0,0,0,3.219.91c.59-2.014-2.049-1.293-2.148-2.723C19,20.443,12.023,17.409,12.9,12.7v-.906c-1.05-.026-.843-1.115-1.077-1.817-1.044.022-.832,1.112-1.074,1.817-2.375-.114-.46-3.85-1.074-5.445,4.219-1.454.372,3.916,3.226,3.627-1.237-2.847,1.677-2.2,2.145-3.627.322-2.39-1.492-2.978-4.3-2.723C10.655,2.19,11.261.168,9.673,0V.9C10.582,4.964,4.484,6.654,3.226,3.626Z" transform="translate(999.396 86.531)"/><path class="ad" d="M2.2,0C-.877.129.234,3.788.052,6.354v.9C3.813,6.628,2.588,1.788,2.2,0Z" transform="translate(1071.187 320.624)"/><path class="ad" d="M1.114,0C1.06,1.161-.263,1.258.047,2.727c1.366.049,1.48,1.164,3.217.9.1,1.98-2.939,5.875-1.077,6.356A3.017,3.017,0,0,0,4.343,8.176c.23-.709.021-1.791,1.066-1.817C5.232,3.788,6.334.133,3.264,0Z" transform="translate(1136.213 97.958)"/><path class="ad" d="M4.293,5.467c-3.152-.768.644-2.918,0-4.537C2.37,1.047,2.03-.183,0,.023V4.561C1.592,5.328,1.547,7.48,2.148,9.1c1.043.026.832,1.112,1.077,1.818,1.25-.15.9-1.656,1.067-2.724Z" transform="translate(1148.887 194.697)"/><path class="ad" d="M2.134.1C-1.438-.525.407,1.976,1.058,2.822c.228,1.1,1.193.558,2.149,0C2.075,5.3,6.843,9.328,6.433,5.549V2.822c-1.254.15-1.918-.2-2.148-.908C2.97,1.813,1.742,1.645,2.134.1Z" transform="translate(1178.497 216.63)"/><path class="ad" d="M3.22,8.166C1.425,6.881,5.856,3.176,6.44.9a6.871,6.871,0,0,1-4.3-.9C4.219,1.66,1.229,3.072,0,4.533c.1,3.4,1.2,2.589,0,5.447v.908Q1.651,9.56,3.22,8.166Z" transform="translate(1242.033 257.702)"/><path class="ad" d="M3.222,3.7C.3,4.337,3.993-.584,1.075.058.908,1.134,1.263,2.635,0,2.787,3.816,5.607-2.394,6.01,2.147,8.23c.242-.706.028-1.791,1.074-1.814Z" transform="translate(1282.008 239.521)"/><path class="ad" d="M1.124,0C3.748,2.136-.481,1.687.046,4.533c.208.736,1.078.909,1.078,1.817C3.28,5.7,5.08.092,4.344,0,2.935,1.091,2.655.354,1.124,0Z" transform="translate(1337.381 1101.669)"/><path class="ad" d="M3.219,3.635C3.673,1.737,2.484,1.226,2.144,0c-2.386.386-.844,4.816,0,5.445C.824,4.429-.058,4.659,0,6.355c2.105-.271,2.123,1.224,3.216,1.818Z" transform="translate(1339.054 184.055)"/><path class="ad" d="M2.148,0C-1.338,4.5,3.682,5.655,0,9.988v.9H1.078C6,10.652,2.57,6.8,4.3,5.447A3.828,3.828,0,0,1,3.222,2.724C2.65,1.415,7.406.5,4.3,0Z" transform="translate(1346.69 94.728)"/><path class="ad" d="M0,.592V2.41C2.051,2.793,1.948,5,5.378,4.22c1.077-2.727-2.4-1.608-4.3-1.81V.592C.874-.437,0,.085,0,.592Z" transform="translate(1377.49 27.172)"/><path class="ad" d="M1.781,6.445c1.89-.221,2.446-1.567,2.141-3.633V1.9C4.259.805.826-1.224.71.995c.6,0,1.209.739,0,.909C1.251,4.753-1.824,5.616,1.781,6.445Z" transform="translate(1377.423 1105.232)"/><path class="ad" d="M3.537,0C5.353,4.262-1.516,1.185.313,5.447H1.387c1.895,1.679,3.324-.238,4.3-1.821A4.537,4.537,0,0,1,4.6,0Z" transform="translate(1383.491 355.208)"/><path class="ad" d="M0,0C.169,1.067-.186,2.575,1.072,2.718c.957-.554,1.923-1.091,2.148,0C4.271,2.7,4.055,1.612,4.292.908,3.428.73,3.229-.008,2.154,0Z" transform="translate(1396.554 888.658)"/><path class="ad" d="M5.371,0C1.451.015,1.82,3.657,0,5.441c.058.56.157,1.078,1.079.917.827-.212,2.114-.03,2.145-.917C4.712,4.283,3.883,1.164,5.371,0Z" transform="translate(53.347 351.654)"/><path class="ad" d="M0,.031V5.475c2.926-.081,2.163,1.514,4.3,0-.242-.706-.9-1.048-2.151-.9V.937C1.909.236,1.245-.111,0,.031Z" transform="translate(111.972 62.554)"/><path class="ad" d="M.075,4.537c.232.706.9,1.056,2.148.906,1.307-.1,2.548-.268,2.149-1.814C4.249,2.521,4.049,1.48,2.224,1.817V0C.91.1-.321.27.075,1.817Z" transform="translate(125.053 62.283)"/><path class="ad" d="M3.315.236C-.911-.912.12,2.379.09,4.773H3.315Z" transform="translate(198.959 92.916)"/><path class="ad" d="M.365,0c-1.272.55.937,5.8,4.3,5.443C4.689,3.3,2.813,2.774,3.585,0H.365Z" transform="translate(297.749 117.837)"/><path class="ad" d="M1.757,0c-3.913.687.1,2.9-1.071,6.351a5.694,5.694,0,0,1,3.222-.9C2.417,4.288,3.249,1.162,1.757,0Z" transform="translate(360.27 368.3)"/><path class="ad" d="M0,3.622c1.838.2,2.786-1.542,3.228,0C4.687,3.349,4.117,1.351,4.3,0H0C1.792,1.8-.091,1.151,0,3.622Z" transform="translate(456.127 276.153)"/><path class="ad" d="M3.609,4.818c1.922.112,2.513-.9,2.148-2.723C2.443,2.774,4.443-1.035.384.277v.91C-1.319,4.734,3.17,3.062,3.609,4.818Z" transform="translate(583.311 98.413)"/><path class="ad" d="M0,0V2.727c.118,1.1.314,2.147,2.144,1.81,1.791-1.8-.088-1.151,0-3.629V0Z" transform="translate(606.685 159.975)"/><path class="ad" d="M1.069,4.2c.817,1.421,3.409,1.355,3.223,3.633,3.375.427,4.388-1.136,5.374-2.723-2.019-1.78-3.94-.284-6.444,0A3.9,3.9,0,0,0,2.14,2.38V.567C.939.658.472-.753,0,.567.18,1.927-.392,3.915,1.069,4.2Z" transform="translate(610.199 17.942)"/><path class="ad" d="M0,1.814V7.257c1.452-.281,2.052-1.293,4.295-.906V9.977c3.609.936,1.676-2.823,2.147-4.533-1.932.118-2.516-.9-2.147-2.723C2.516,2.707,3.689.2,2.15,0,2.446,2.643,1.886,3.115,0,1.814Z" transform="translate(748.862 373.976)"/><path class="ad" d="M4.3,3.627C2.71,3.459,3.31,1.437,3.221,0H1.076A3.884,3.884,0,0,1,0,2.719c.834.2,1.25.758,1.076,1.818,2.21,1.8,1.016,1.8,3.22,0Z" transform="translate(787.141 397.695)"/><path class="ad" d="M2.834,1.35c-4.05-3.3-3.148.174-1.074,2.723.653.051,1.271.127,1.074.9H3.9C6.439,4.731,3.8,1.6,2.834,1.35Z" transform="translate(1079.847 251.866)"/><path class="ad" d="M3.22,0C3,1.1,2.026.56,1.069,0,1.23,2.682-2.05,6.405,2.145,7.264c.009-.915-.877-1.083-1.075-1.821H4.294C3.734,4.1,2.707,3.157,2.145,1.812H4.294C4.049,1.11,4.264.028,3.22,0Z" transform="translate(1157.619 265.069)"/><path class="ad" d="M4.6,4.2c.834-.2,2.124-.026,2.15-.906V.573C5.213.218,4.932-.516,3.525.573,3.356,1.644,3.712,3.147,2.45,3.3,1.99,4.719-.929,4.068.3,6.926,3.13,7.194,1.15,3.4,4.6,4.2Z" transform="translate(1208.691 39.651)"/><path class="ad" d="M1.083,0C-.139,2.847,1.388,2.4,0,4.535c.959,1.99,4.59,2.634,4.3-.906C1.083,3.034,5.328,1.688,4.3,0,2.769.354,2.49,1.089,1.083,0Z" transform="translate(1337.447 203.381)"/><path class="ad" d="M1.276,0c-2.394.38-.841,4.816,0,5.443C4.97,4.947,1.9,1.937,1.276,0Z" transform="translate(1338.511 49.301)"/><path class="ad" d="M3.325.939C3.08.229,2.412-.115,1.173.034.839,1.262-.358,1.762.105,3.664c.23.7.895,1.054,2.141.908C2.588,3.346,3.776,2.833,3.325.939Z" transform="translate(1393.708 872.902)"/><path class="ad" d="M.039.947A9,9,0,0,0,4.334,4.578c.059-.552.157-1.073,1.075-.908V.947H4.334C3.728,3.578,2.655-.442,1.113.041.454.091-.163.175.039.947Z" transform="translate(230.853 311.741)"/><path class="ad" d="M0,.9V3.631c.245.7.037,1.788,1.076,1.812V1.81C2.61,2.167,2.892,2.9,4.3,1.81,4.284.61,2.42.984,2.15,0H1.076C1.02.552.919,1.07,0,.9Z" transform="translate(973.472 19.674)"/><path class="ad" d="M3.228,1.819c.838.2,1.244.754,1.072,1.81-1.61.157-3.963-.322-4.3.91C1.861,6.6-.414,12.148,3.228,12.707c1.879-.831,3.733-1.69,3.219-4.537-2.008,1.784-5.174.518-4.294-2.724C5.529,4.4,4.764,6.875,6.446,7.259A5.189,5.189,0,0,0,7.524,2.727V1.819C5.688,1.853,4.737,1.136,4.3,0H3.228Z" transform="translate(104.932 364.202)"/><path class="ad" d="M1.088,5.439c.416,1.3,1.287,1.533,0,2.723C4.7,10.123-.321,12.333.016,14.521v1.808H2.161c1.993-1.641,2.452-4.582,3.226-7.257V7.257C6.022,3.936,6.9,3.038,4.311,0c-1.72.667.238,4.44-3.224,3.627Z" transform="translate(136.977 432.763)"/><path class="ad" d="M1.179,0C.836,1.229-.356,1.735.1,3.633H5.474c-.028.882-1.319.706-2.146.908C3.5,5.6,5.283,5.3,6.547,5.448,7.017,2.029,4.278,1.314,2.253,0Z" transform="translate(154.613 467.834)"/><path class="ad" d="M.068,2.852c2.34,1.9-.533,2.591,0,5.445H1.143c.425-5.9,1.974.432,2.146-1.818C4.338,6.506,4.118,7.6,4.363,8.3c.653-.051,1.274-.133,1.074-.9s.426-.857,1.074-.913V2.852H5.438c-.6,2.16-3.229-1.013-1.074-1.816-2,.87-3.59-2.718-4.3,0Z" transform="translate(314.665 482.016)"/><path class="ad" d="M0,0C.015,1.2,1.887.827,2.148,1.814.645,2.05.925,3.807,0,4.531c1.534-.213,1.814-1.486,3.228-1.808a2.565,2.565,0,0,1-2.152,2.72c1.51-.786,3.633,4.893,5.365.906C5.029,3.616,3.763.754,0,0Z" transform="translate(347.646 432.016)"/><path class="ad" d="M4.42,2.727C1.612,8.267-2.686,4.485,2.267,10.89c2.408-1.649,2.047-4.983,4.3-4.533-.595,0-1.22-.74,0-.91.026-.882,1.313-.706,2.148-.908C8.072,2.92,11.863.767,8.715,0a.908.908,0,1,0,0,1.815C7.775,3.187,7.1,1.563,4.42,2.727Z" transform="translate(739.441 391.035)"/><path class="ad" d="M3.223,1.687H2.146C2.468.21.7-.761.005.785c1.557.395-.107.79,0,1.814C.738,5.442-.128,6.3,1.079,7.136,2.441,5.165,1.324,5.114,3.223,2.6Z" transform="translate(782.198 111.552)"/><path class="ad" d="M0,0C.65,2.171,1.547,4.138,1.075,7.26,3.513,6.214,4.585.1,0,0Z" transform="translate(817.246 396.559)"/><path class="ad" d="M6.644,1.821C6.364-.066,1.923,1.572,1.275,0c-.844.629-2.39,5.067,0,5.443H3.423C3.239,3.173,5.071,2.607,6.644,1.821Z" transform="translate(893.184 186.341)"/><path class="ad" d="M3.213,3.624c-.241,1.718,1.213,2,1.071,3.629H0V9.067c1.261-.133,2.428-1.617,3.213,0-1.3.193-.658,1.009,0,1.815,1.424,0,.986-1.589,2.149-1.815,1.791,1.561,6.854,5.041,3.222,8.17v.91c1.769-2.639,5.271,2.458,3.229,2.714.2.741,1.081.906,1.07,1.815a5.645,5.645,0,0,0,3.222.912c.6-2.012-2.052-1.3-2.151-2.727,5.039-.421-1.94-3.448-1.07-8.161V11.79c-1.05-.026-.833-1.108-1.07-1.814-1.047.022-.835,1.112-1.076,1.814-2.376-.114-.457-3.85-1.075-5.443,4.227-1.456.373,3.914,3.222,3.629-1.232-2.851,1.685-2.209,2.145-3.629.329-2.4-1.487-2.98-4.291-2.723C10.646,2.186,11.256.165,9.661,0V.9C10.575,4.968,4.475,6.647,3.213,3.624Z" transform="translate(953.374 255.058)"/><path class="ad" d="M2.14.1C-1.439-.529.407,1.972,1.055,2.82c.229,1.1,1.2.56,2.15,0C2.079,5.3,6.846,9.326,6.436,5.543V2.82c-1.254.146-1.915-.2-2.156-.912C2.971,1.811,1.738,1.643,2.14.1Z" transform="translate(1132.464 385.159)"/><path class="ad" d="M.014,16.363c4.019.7,8.108-3.1,4.292-6.347a5.728,5.728,0,0,0,3.226-.91c0,.91.866,1.078,1.077,1.814,2.622-.1.227-3-1.077-2.719H6.456c-.3-2.765,3.44-3.532,1.075-5.441.954.395,1.918.793,2.146,1.81,3.893-1.645-1.9-2.5-1.069-4.539C5.777-.237,5.081,1.29,5.382,3.663,3.392,3.521,4.728.592,3.234.03,2.364.2,2.161.944,1.09.936A3.861,3.861,0,0,0,2.161,3.663c8.162,1.842-2.6,8.764-2.147,11.8Z" transform="translate(1281.665 27.183)"/><path class="ad" d="M5.37,1.924C5.129,1.222,5.337.132,4.3.114c-4.708-.665.859,1.8-2.15,1.81C2.134,1.01.27.782,0,1.924c2.113-.271,2.131,1.224,3.224,1.814A2.978,2.978,0,0,1,5.37,1.924Z" transform="translate(1326.964 40.783)"/><path class="ad" d="M3.347,0C3.668,2.426-.813-2.415.131,1.812V4.53C1.3,4.76.842,6.34,2.279,6.353c-.4-1.542.829-1.713,2.144-1.823V0Z" transform="translate(1389.786 999.81)"/><path class="ad" d="M0,3.633c1.83.191,2.777-1.55,3.217,0C4.679,3.349,4.108,1.361,4.3,0H0C1.783,1.808-.093,1.151,0,3.633Z" transform="translate(410.101 444.676)"/><path class="ad" d="M0,0V2.716C.127,3.827.326,4.87,2.152,4.533c1.788-1.8-.1-1.151,0-3.625V0Z" transform="translate(560.638 328.506)"/><path class="ad" d="M2.144,0C1.306.2.03.026,0,.908V5.443c1.3-.1,2.538-.27,2.144-1.815,3.287-.651,3.918.932,6.44.91v-.91C6.4,3.364,6.482,1.174,4.3.908c-.245.709-.029,1.791-1.074,1.816C3.159,1.565,1.845,1.466,2.144,0Z" transform="translate(962.563 49.301)"/><path class="ad" d="M.036,1.814c6.8-.3,1.769,5.625,7.519,7.258V1.814C5.87,1.726,3.834,1.933,4.334,0,2.957.05,2.846,1.162,1.114.906.459.955-.158,1.041.036,1.814Z" transform="translate(986.053 151.195)"/><path class="ad" d="M.1,6.351H1.178C4.025,8.887,2.921,1.346,1.178,0,.837,1.226-.355,1.729.1,3.627Z" transform="translate(1301.373 90.786)"/><path class="ad" d="M.037.95a9.008,9.008,0,0,0,4.3,3.629c.062-.552.157-1.071,1.07-.908V.95H4.333C3.728,3.578,2.656-.439,1.111.04.454.094-.158.177.037.95Z" transform="translate(184.818 480.261)"/></g></g></g><circle class="ae" cx="434.5" cy="434.5" r="434.5" transform="translate(781 -112)"/><circle class="af" cx="434.5" cy="434.5" r="434.5" transform="translate(7 597)"/><circle class="af" cx="434.5" cy="434.5" r="434.5" transform="translate(7 597)"/></g></svg>