<svg xmlns="http://www.w3.org/2000/svg" width="448.312" height="416.498" viewBox="0 0 448.312 416.498"><defs><style>.a{fill:#d3e3f4;}.b{fill:#eff4f4;}.c{fill:#289cde;}.d{fill:#cdf7f9;}.e{fill:#2727ff;}.f{fill:#e8e8e8;}.g{fill:#b6d4ff;}.h{fill:#eff1f4;}.i{fill:#fff;}.j{fill:#597def;}.k{fill:#395bc9;}.l{fill:#f7f7f7;}.m{fill:#e89c82;}.n{fill:#99beff;}.o{fill:#001087;}.p{fill:#0000af;}.q{fill:#f4ae92;}.r{fill:#002496;}.s{fill:#000e77;}</style></defs><g transform="translate(-152.897 -149.989)"><g transform="translate(450.733 303.998)"><path class="a" d="M674.993,405.906c6.416-16.715,24.343-43.861,11.538-52.813-7.582-5.3-38.189-4.677-57.366,21.245-15.231,20.587-10.609,42.171-24.5,51.184-20.394,13.232-42.676-6.527-56.933,6.219-7.675,6.862-6.4,17.223-6.219,51.191.138,25.968-.465,46.828-.956,59.8l23.921,14.353c4.206-10.763,12.1-25.671,27.271-33.011,20.327-9.838,39.236.923,47.364-9.569,8.468-10.93-9.052-26.484-1.435-42.579,9.2-19.45,42.327-12.667,48.321-30.141C689.716,430.946,667.793,424.665,674.993,405.906Z" transform="translate(-540.556 -350.445)"/><path class="b" d="M556.462,548.723l-.686-.345a899.352,899.352,0,0,1,76.477-125.286c2.087-2.86,4.238-5.837,6.44-8.883,16.244-22.478,34.656-47.955,51.129-60.714l.471.608c-16.385,12.691-34.764,38.12-50.978,60.556-2.2,3.047-4.354,6.023-6.441,8.886A898.508,898.508,0,0,0,556.462,548.723Z" transform="translate(-544.083 -351.151)"/><path class="b" d="M708.6,468.21c-16.846-3.258-31.342-4.8-43.051-4.572-4.947.094-12.656,1.442-18.849,2.525-3.118.545-6.062,1.059-8.182,1.334l-.1-.763c2.1-.271,5.04-.784,8.148-1.328,6.544-1.143,13.961-2.44,18.967-2.536,11.771-.226,26.314,1.318,43.212,4.586Z" transform="translate(-563.232 -376.489)"/><path class="b" d="M647.82,560.921c-6.607-4.216-19.773-11.224-33.673-10.782-14.742.47-30.558,7.684-34.669,10.614l-.446-.626c4.167-2.97,20.183-10.282,35.091-10.756,14.087-.444,27.427,6.639,34.109,10.9Z" transform="translate(-549.471 -396.533)"/></g><g transform="translate(152.897 280.391)"><path class="a" d="M305.241,440.413c-5.642-18.71-46.749-13.088-55.407-34.542-8.92-22.1,15.85-68.836-8.3-74.113-13.205-2.886-18.077,20.656-29.9,14.7-11.855-5.979-32.506-35.72-49.108-24.045-14.544,10.228,6.837,34.707,4.985,53.569-1.4,14.237-16.823,13.433-14.353,25.6,4.652,22.921,50.1,23.083,57.958,37.074,7.178,12.78-31.663,18.421-25.325,35.2,4.229,11.2,53.385,28.763,95.7,26.784l3.073.174C297.443,489.6,309,452.876,305.241,440.413Z" transform="translate(-152.897 -319.718)"/><path class="b" d="M284.456,496.216c-15.616-25.709-32.122-51.349-49.06-76.208-21.76-31.936-48.059-68.058-70.352-96.624l.605-.473c22.3,28.579,48.613,64.715,70.382,96.664,16.945,24.87,33.458,50.521,49.082,76.241Z" transform="translate(-155.712 -320.458)"/><path class="b" d="M250.049,408.362a143.608,143.608,0,0,1,3.3-36.451c2.788-12.567,8.942-28.586,12.422-35.948l.694.329c-3.464,7.329-9.591,23.276-12.366,35.785a142.822,142.822,0,0,0-3.283,36.256Z" transform="translate(-175.385 -323.482)"/><path class="b" d="M226.544,433.569c-9.278-3.3-29.446-8.208-42.55-9.845l-2.617-.329c-9.448-1.189-21.208-2.671-28.265-2.36l-.034-.768c7.123-.313,18.917,1.172,28.4,2.366l2.615.329c13.152,1.643,33.4,6.573,42.712,9.883Z" transform="translate(-152.939 -343.006)"/><path class="b" d="M194.883,516.229l-.108-.761a185.261,185.261,0,0,1,34.113-1.608,153.51,153.51,0,0,1,47.624,10.75l-.285.714a152.873,152.873,0,0,0-47.386-10.7A184.388,184.388,0,0,0,194.883,516.229Z" transform="translate(-162.601 -364.649)"/></g><g transform="translate(210.707 311.233)"><path class="c" d="M278.918,385.391c-3.157-1.782-8.993-30.367-25.38-24.814-15.3,5.185,10.2,32.5,6.877,36.74-4.6,5.867-18.981-8.752-24.313-1.318-9.29,12.951,20.595,20.794,18.636,26.454-2.429,7.02-16.982-7.468-24.847,3.254-10.705,14.593,31.041,16.2,35.31,23.437,3.978,6.74-20.215-.833-21.811,5.961-2.2,9.347,43.6,24.889,62.722,13.31,26.093-15.8,28.421-45.634,25.3-49.581-3.019-3.822-14.873,9.212-17.989,6.449-6.067-5.381,9.737-30.851,4.033-33.722-8.358-4.206-17.673,20.462-21.833,17.353-3.778-2.823,12.99-38.287.1-42.41C285.916,363.367,282.386,387.349,278.918,385.391Z" transform="translate(-228.142 -359.862)"/><path class="d" d="M310.085,469.4c-.762-2.16-1.581-4.51-2.446-6.992-4.125-11.836-9.26-26.568-14.233-37.771-10.145-22.851-22.346-46.666-32.637-63.705l.658-.4c10.307,17.066,22.524,40.913,32.682,63.793,4.986,11.229,10.126,25.978,14.256,37.829.864,2.48,1.683,4.829,2.445,6.988Z" transform="translate(-235.702 -360.018)"/><path class="d" d="M325.233,485.75l-.748-.176c1.548-6.6,6.088-20.477,11.68-29.634a104.781,104.781,0,0,1,16.688-20.354l.517.568a103.872,103.872,0,0,0-16.549,20.187C331.275,465.421,326.77,479.2,325.233,485.75Z" transform="translate(-250.465 -377.408)"/><path class="d" d="M294.973,465.118c-11.58-5.723-46.262-16.082-62.738-17.02l.043-.767c16.553.933,51.4,11.349,63.035,17.1Z" transform="translate(-229.09 -380.129)"/><path class="d" d="M285.325,431.05l-.117-.066c-6.975-3.894-19.956-11.14-28.478-14.716-6.338-2.66-13.568-5.54-19.137-6.739l.161-.751c5.632,1.211,12.9,4.108,19.273,6.781,8.562,3.592,21.568,10.853,28.556,14.754l.118.065Z" transform="translate(-230.331 -371.197)"/></g><g transform="translate(209.376 396.014)"><path class="e" d="M291.633,555.16l.546-.078c-3.1-21.571-17.5-51.113-42.7-68.488l-.313.454C274.226,504.328,288.552,533.708,291.633,555.16Z" transform="translate(-231.683 -474.008)"/><path class="e" d="M226.765,472.725c-1.369,2.21,1.34,6.367,6.051,9.286s9.64,3.494,11.009,1.285-1.34-6.367-6.051-9.286S228.134,470.515,226.765,472.725Z" transform="translate(-226.41 -470.483)"/><ellipse class="e" cx="4.707" cy="10.035" rx="4.707" ry="10.035" transform="matrix(0.111, -0.994, 0.994, 0.111, 3.202, 25.125)"/><path class="e" d="M265.235,470.214c-2.6.11-4.513,4.688-4.279,10.225s2.529,9.936,5.126,9.827,4.513-4.687,4.279-10.225S267.832,470.1,265.235,470.214Z" transform="translate(-234.41 -470.212)"/><path class="e" d="M285.332,488.021c-2.553-.489-5.468,3.527-6.511,8.969s.18,10.252,2.734,10.742,5.468-3.526,6.511-8.969S287.885,488.51,285.332,488.021Z" transform="translate(-238.467 -474.329)"/><path class="e" d="M298.354,507.711c-2.553-.489-5.468,3.526-6.511,8.97s.181,10.252,2.734,10.741,5.468-3.527,6.511-8.969S300.907,508.2,298.354,507.711Z" transform="translate(-241.485 -478.892)"/><path class="e" d="M250.282,514.827c-.289,2.583,3.942,5.177,9.449,5.792s10.207-.979,10.5-3.562-3.941-5.177-9.449-5.793S250.571,512.243,250.282,514.827Z" transform="translate(-231.938 -479.694)"/><path class="e" d="M261.386,533.055c-.289,2.583,3.942,5.177,9.449,5.792s10.207-.979,10.5-3.562-3.941-5.177-9.449-5.793S261.675,530.472,261.386,533.055Z" transform="translate(-234.511 -483.917)"/></g><g transform="translate(453.721 335.664)"><path class="c" d="M625.165,422.953c-.615-3.659,14.848-25.749,4.15-30.742C619,387.395,609.27,415.828,603.76,415.917c-7.628.121-5.961-18.2-11.247-19.1-16.085-2.727-6.64,28.683-12.4,30.771-7.149,2.589-5-18.319-18.592-17.669-18.5.884,7.1,35.129,4.1,43.183-2.8,7.506-12.358-16.617-18.791-13.51-8.85,4.273,8.281,50.71,29.812,58.466,29.373,10.582,54.607-6.785,55.739-11.807,1.1-4.862-16.907-5.9-16.717-10.155.373-8.293,30.813-12.126,29.423-18.513-2.037-9.359-27.66-.879-27.867-6.19-.187-4.823,31.577-12.853,26.552-25.765C639.945,415.809,625.841,426.974,625.165,422.953Z" transform="translate(-544.445 -391.661)"/><path class="d" d="M581.854,496.571l-.731-.235c10.851-33.566,48.312-93.81,56.387-104.266l.608.47C630.06,402.974,592.679,463.086,581.854,496.571Z" transform="translate(-552.944 -391.756)"/><path class="d" d="M607.261,452.857l-.768,0c.051-9.036-.327-22.615-1.284-32.582-.784-8.188-1.784-15.977-2.813-21.934l.758-.131c1.032,5.975,2.034,13.785,2.82,21.991C606.933,430.191,607.312,443.8,607.261,452.857Z" transform="translate(-557.873 -393.177)"/><path class="d" d="M608.4,460.519l-.486-.595c5.143-4.213,17.153-12.647,27.482-17.34,7.5-3.407,16.645-5.794,23-7.2l.165.75c-6.315,1.394-15.406,3.765-22.844,7.145C625.449,447.947,613.512,456.33,608.4,460.519Z" transform="translate(-559.151 -401.793)"/><path class="d" d="M587.4,477.209a240.23,240.23,0,0,0-13.308-39.773c-.721-1.643-1.453-3.35-2.193-5.075a168.414,168.414,0,0,0-7.775-16.562l.665-.384a168.885,168.885,0,0,1,7.817,16.643c.738,1.722,1.47,3.427,2.19,5.068a240.988,240.988,0,0,1,13.353,39.912Z" transform="translate(-549.005 -397.165)"/><path class="d" d="M595.012,491.448l-.3-.705c4.117-1.78,18.579-7.827,31.807-10.925a185.433,185.433,0,0,1,28.873-4.107l.051.767a184.482,184.482,0,0,0-28.748,4.09C613.524,483.649,599.115,489.674,595.012,491.448Z" transform="translate(-556.092 -411.136)"/><path class="d" d="M574.055,508.5l-.979-2.528c-2.993-7.741-7.091-18.344-11.111-26.335-3.385-6.728-9.486-16.69-13.523-23.281l-1.325-2.167.655-.4,1.325,2.167c4.044,6.6,10.154,16.581,13.553,23.337,4.037,8.024,8.143,18.647,11.141,26.4l.979,2.528Z" transform="translate(-545.064 -406.057)"/></g><g transform="translate(480.526 411.529)"><path class="e" d="M579.869,572.06l-.534-.139c5.476-21.093,23.075-48.852,50.046-63.318l.26.486C602.817,523.476,585.315,551.083,579.869,572.06Z" transform="translate(-579.335 -494.623)"/><path class="e" d="M663,497.219c1.116,2.348-2.039,6.179-7.045,8.556s-9.968,2.4-11.083.053,2.039-6.179,7.045-8.556S661.881,494.871,663,497.219Z" transform="translate(-594.467 -491.58)"/><path class="e" d="M655.487,519.388c0,2.6-4.493,4.706-10.035,4.706s-10.035-2.107-10.035-4.706,4.492-4.707,10.035-4.707S655.487,516.788,655.487,519.388Z" transform="translate(-592.33 -496.031)"/><path class="e" d="M627.5,490.433c2.568.4,3.964,5.16,3.115,10.637s-3.618,9.594-6.187,9.2-3.964-5.16-3.115-10.636S624.933,490.035,627.5,490.433Z" transform="translate(-589.005 -490.406)"/><ellipse class="e" cx="4.707" cy="10.035" rx="4.707" ry="10.035" transform="matrix(0.997, -0.078, 0.078, 0.997, 16.343, 12.215)"/><ellipse class="e" cx="4.706" cy="10.035" rx="4.706" ry="10.035" transform="translate(4.719 26.138) rotate(-4.469)"/><path class="e" d="M634.452,536.269c0,2.6-4.493,4.707-10.035,4.707s-10.035-2.107-10.035-4.707,4.493-4.707,10.035-4.707S634.452,533.669,634.452,536.269Z" transform="translate(-587.456 -499.942)"/><ellipse class="e" cx="10.035" cy="4.706" rx="10.035" ry="4.706" transform="translate(16.892 44.59)"/></g><ellipse class="a" cx="123.311" cy="19.956" rx="123.311" ry="19.956" transform="translate(257.848 511.422)"/><rect class="f" width="222.805" height="384.146" rx="29.75" transform="translate(266.901 149.989)"/><rect class="g" width="207.439" height="290.818" transform="translate(277.44 189.545)"/><path class="h" d="M465.024,178.841c0,2.113-1.4,3.841-3.118,3.841H425.118c-1.715,0-3.118-1.729-3.118-3.841h0c0-2.113,1.4-3.841,3.118-3.841h36.789c1.715,0,3.118,1.729,3.118,3.841Z" transform="translate(-62.353 -5.795)"/><path class="i" d="M235.268,224.386a16.419,16.419,0,0,0-32.3-3c-.167-.005-.333-.012-.5-.012a13.683,13.683,0,0,0,0,27.366h31.943a12.192,12.192,0,0,0,.86-24.354Z" transform="translate(-8.315 -13.673)"/><path class="i" d="M679.272,292.915a5.941,5.941,0,0,0-1.407.174,15.268,15.268,0,0,0-29.548,1.144,7.1,7.1,0,1,0-4.111,12.878h35.066c3.278,0,6.57-3.419,6.57-6.7C685.842,295.861,682.549,292.915,679.272,292.915Z" transform="translate(-112.195 -30.634)"/><g transform="translate(304.964 293.718)"><path class="c" d="M506.235,505.6H385.581a4.31,4.31,0,0,1-4.3-4.53l4.677-91.428a1.831,1.831,0,0,1,1.828-1.736H504.233a1.829,1.829,0,0,1,1.827,1.736l4.667,91.231A4.5,4.5,0,0,1,506.235,505.6Z" transform="translate(-357.88 -353.48)"/><path class="h" d="M423.022,403.563a.768.768,0,0,1-.768-.768c0-38.7,14.7-65.73,35.747-65.73,5.313,0,10.774,2.665,15.791,7.708,11.745,11.8,18.966,33.932,18.845,57.748a.768.768,0,0,1-.768.764h0a.769.769,0,0,1-.764-.772c.118-23.422-6.931-45.132-18.4-56.657-4.723-4.746-9.807-7.255-14.7-7.255-20.143,0-34.211,26.4-34.211,64.193A.768.768,0,0,1,423.022,403.563Z" transform="translate(-367.376 -337.065)"/><path class="i" d="M443.994,513.1H354.039a3.214,3.214,0,0,1-3.209-3.377l3.487-68.165a1.364,1.364,0,0,1,1.362-1.294H442.5a1.365,1.365,0,0,1,1.363,1.294l3.479,68.018A3.353,3.353,0,0,1,443.994,513.1Z" transform="translate(-350.825 -360.977)"/><path class="h" d="M381.894,437.158a.768.768,0,0,1-.768-.768c0-28.969,11.04-49.2,26.848-49.2,4.014,0,8.134,2.007,11.912,5.8,8.792,8.837,14.2,25.387,14.108,43.194a.768.768,0,0,1-.768.764h0a.768.768,0,0,1-.764-.772c.087-17.413-5.147-33.545-13.661-42.1-3.483-3.5-7.226-5.351-10.822-5.351-14.9,0-25.311,19.6-25.311,47.664A.768.768,0,0,1,381.894,437.158Z" transform="translate(-357.846 -348.679)"/></g><path class="i" d="M579.033,201.475H559.25l24.611,69.806a10.756,10.756,0,0,0,21.512,0C605.373,268.034,579.033,201.475,579.033,201.475Z" transform="translate(-94.155 -11.93)"/><path class="j" d="M307.651,201.475l-23.4,65.369a10.667,10.667,0,0,0-.582,1.623l-.384,2.813a10.756,10.756,0,0,0,21.512,0l20.014-69.806Z" transform="translate(-30.211 -11.93)"/><path class="j" d="M354.944,201.475,340.3,266.728a10.752,10.752,0,1,0,20.491,4.552l12.588-69.806Z" transform="translate(-43.187 -11.93)"/><path class="j" d="M406.039,201.475l-10.257,66.563a10.756,10.756,0,1,0,21.013,3.242l6.7-69.806Z" transform="translate(-56.163 -11.93)"/><path class="i" d="M331.293,201.475,312.9,265.618c-.688,2.781-1.636,4.093-1.636,6.173,0,5.94,4.829,10.245,10.769,10.245s9.258-5.006,10.756-10.756l15.661-69.806Z" transform="translate(-36.695 -11.93)"/><path class="i" d="M379.871,201.475,367.95,267.58a10.752,10.752,0,1,0,20.845,3.7l10.756-69.806Z" transform="translate(-49.675 -11.93)"/><path class="j" d="M524.884,267.58,509.89,201.475H493.283l10.756,69.806a10.756,10.756,0,1,0,20.845-3.7Z" transform="translate(-78.87 -11.93)"/><path class="j" d="M554.391,201.475H537.232l20.015,69.806a10.756,10.756,0,0,0,21.512,0C578.759,268.627,554.391,201.475,554.391,201.475Z" transform="translate(-89.053 -11.93)"/><path class="i" d="M550.449,265.618l-18.391-64.143H514.9l15.661,69.806a10.756,10.756,0,0,0,10.756,10.756,10.065,10.065,0,0,0,10.25-10.436A20.7,20.7,0,0,0,550.449,265.618Z" transform="translate(-83.878 -11.93)"/><path class="i" d="M497.954,267.972l-10.527-66.5H469.283l7.683,69.806a10.756,10.756,0,1,0,20.988-3.308Z" transform="translate(-73.309 -11.93)"/><path class="i" d="M444.114,201.475H429.98L423.473,269.3a10.753,10.753,0,1,0,21.322,1.981Z" transform="translate(-62.65 -11.93)"/><path class="j" d="M465.073,201.475H450.4l.794,68.331a10.751,10.751,0,1,0,21.4,1.474Z" transform="translate(-68.933 -11.93)"/><path class="k" d="M283.475,290.5l-.192,1.408a10.756,10.756,0,1,0,21.512,0l.214-1.408Z" transform="translate(-30.211 -32.558)"/><path class="k" d="M339.6,290.5l-.316,2.881c0,5.94,4.047,9.283,9.988,9.283s11.159-4.3,11.159-10.244l.467-1.921Z" transform="translate(-43.187 -32.558)"/><path class="l" d="M367.306,290.5l-.227,1.919a10.035,10.035,0,0,0,10.4,10.245c5.94,0,9.558-2.956,11.095-8.847l.342-3.318Z" transform="translate(-49.628 -32.558)"/><path class="l" d="M311.915,290.5l-.228,1.919a10.036,10.036,0,0,0,10.405,10.245c5.94,0,9.557-2.956,11.095-8.847l.341-3.318Z" transform="translate(-36.793 -32.558)"/><path class="l" d="M423.3,290.5l-.227,1.919a10.035,10.035,0,0,0,10.4,10.245c5.94,0,9.558-2.956,11.1-8.847l.341-3.318Z" transform="translate(-62.601 -32.558)"/><path class="l" d="M479.078,290.5l-.009,1.919a10.035,10.035,0,0,0,10.4,10.245c5.94,0,9.558-2.956,11.1-8.847l.083-3.318Z" transform="translate(-75.576 -32.558)"/><path class="l" d="M534.75,290.5l.409,1.919a10.035,10.035,0,0,0,10.4,10.245c5.94,0,9.558-2.956,11.1-8.847l-.392-3.318Z" transform="translate(-88.478 -32.558)"/><path class="l" d="M590.808,290.5l.546,1.919a10.036,10.036,0,0,0,10.405,10.245c5.94,0,9.557-2.956,11.095-8.847l-.492-3.318Z" transform="translate(-101.467 -32.558)"/><path class="k" d="M395.475,290.5l-.192,1.408a10.756,10.756,0,1,0,21.512,0V290.5Z" transform="translate(-56.163 -32.558)"/><path class="k" d="M451.271,290.5l.08,1.825a10.178,10.178,0,0,0,10.483,10.34c5.94,0,10.932-4.077,10.932-10.018l-.129-2.147Z" transform="translate(-69.135 -32.558)"/><path class="k" d="M507.161,290.5l.094,1.408a10.756,10.756,0,1,0,21.512,0l-.409-1.408Z" transform="translate(-82.086 -32.558)"/><path class="k" d="M562.757,290.5l.4,1.408a10.433,10.433,0,0,0,10.377,10.749c5.94,0,11.132-4.583,11.132-10.523l-.362-1.634Z" transform="translate(-94.967 -32.558)"/><g transform="translate(339.727 378.882)"><g transform="translate(0)"><path class="m" d="M431.248,549.576c.162,6.294.65,40.979,4.2,47.254,2.366,4.179,5.076-4.757,8.861-1.8,2.11-1.259,1.722-3.472,3.832-4.73-2.06-8.676.562-31.685-1.5-40.36C441.926,549.761,435.967,549.756,431.248,549.576Z" transform="translate(-404.222 -471.469)"/><path class="m" d="M532.189,549.356c.2,6.626-1.623,38.068-4.787,46.117-1.757,4.471-5.232,6.372-8.755,4.373-2.035-1.376-1.855-38.3-3.89-39.681,2.546-8.546.1-2.583,2.646-11.129C522.124,549.124,527.468,549.269,532.189,549.356Z" transform="translate(-423.572 -471.344)"/><path class="n" d="M500.713,568.923c1.914-1.991,3.1-6.068,3.1-9.047,0-2.374-.754-6.23-2.025-8.033.221-2.705.363-4.339.363-4.339l-6.069.148a10.992,10.992,0,0,0-7.177.176l-23.252.569a11.138,11.138,0,0,0-13.683.335l-2.628.064s.056,1.03.146,2.809c-1.023,1.687-1.623,5.23-1.623,7.347,0,2.482.819,7.747,2.187,9.6.531,13.025,1.059,26.451.39,35.083-.943,12.163,49.492,12.179,48.8,0C498.795,595.944,499.774,582.159,500.713,568.923Z" transform="translate(-408.072 -470.69)"/><path class="o" d="M423.84,614.687a202.342,202.342,0,0,0,42.608,3.924c28.083-.4,42.906-6.515,44.519-1.623,1.824,5.529-14.071,22.552-32.6,26.254-7.918,1.582-18.132-2.058-38.561-9.338-5.914-2.107-13.152-5-15.4-12.315A17.164,17.164,0,0,1,423.84,614.687Z" transform="translate(-402.478 -486.556)"/><path class="n" d="M430.5,542.511c-.237-2.14,1.173-10.825,4.67-15.721,4.122-2.988,8.532-4.885,17.908-7.472a71.44,71.44,0,0,1,23.706-2.061c15.038,1.312,25.653,5.936,30.92,9.663,3.274,4.217,5.006,10.732,5.38,14.877C513.649,548.092,430.931,546.421,430.5,542.511Z" transform="translate(-404.043 -463.927)"/><rect class="p" width="37.365" height="28.898" transform="translate(48.101 27.216)"/><path class="m" d="M491.126,505.818c-.687,4.9-2.448,10.565-.644,15.718-4.295.343-10.393-.73-14.687-.386a41.614,41.614,0,0,0-2.319-16.233C479.574,505.431,485.028,505.3,491.126,505.818Z" transform="translate(-414.007 -461.121)"/><path class="q" d="M495.915,482.379c0,11.114-7.075,20.124-15.8,20.124s-15.8-9.01-15.8-20.124,7.074-20.125,15.8-20.125S495.915,471.264,495.915,482.379Z" transform="translate(-411.884 -451.236)"/><path class="m" d="M480.583,516.894c-3.754-.327-13.978,4.175-17.5,1.773.08,5.685,7.4,10.278,16.422,10.278,8.739,0,15.882-4.309,16.395-9.747C491.191,520.3,484.743,517.256,480.583,516.894Z" transform="translate(-411.599 -463.892)"/><path class="e" d="M480.891,460.036a12.818,12.818,0,0,1-3.745,7.194c-5.861,5.971-10.937,6.983-14.3,11.209-2.935,3.687-2.8,14.624,4.7,30.65-6.729,3.831-12.837-.213-14.357-1.289-5.983-4.233-4.363-25.086-.006-37.736,2.6-7.557,5.622-16.322,14.3-20.228.9-.4,9.113-3.954,16.877-.257,7.7,3.669,10.668,12.221,13.924,24.261,1.983,7.336,4.051,26.044,1.749,30.739-2.653,5.409-8.9,5.831-13.354,4.65,6.911-6.675,6.359-27.148,5.531-33.18C491.649,471.956,489.45,463.809,480.891,460.036Z" transform="translate(-408.402 -447.913)"/><path class="m" d="M485.25,665.679a6.884,6.884,0,0,0,1.782,3.733c2.022,2.447,5.509,2.708,6.348,3.341,2.746,2.071,8.51,5.949,22.257,11,1.521.559,9.148,2.846,11.569-2.858,2.332-5.494-3.332-9.734-9.855-12.466-6.256-2.621-9.5-2-13.582-4.6-1.835-1.167-3.118-3.214-4.268-3.365a2.78,2.78,0,0,0-2.969,1.2" transform="translate(-416.735 -497.153)"/><path class="r" d="M445.527,626.274c-4.97-4.37-12.334-11.177-22.759-15.372-7.568-3.045-13.346-3.932-19.066-3.574-3.694,1.549-7.5,6.023-7.627,10.843-.238,9.057,13.225,22.092,25.858,27.288,18.338,7.541,47.355,16.32,50.763,15.491,4.409-1.073,7.388-10.009,7.388-10.009C464.593,641.05,453.2,633.023,445.527,626.274Z" transform="translate(-396.072 -484.834)"/><path class="m" d="M462.663,669.252a6.881,6.881,0,0,1-2.089,3.57c-2.221,2.268-5.717,2.234-6.608,2.795-2.91,1.833-8.981,5.211-23.1,9.087-1.563.429-9.355,2.067-11.287-3.821-1.861-5.671,4.14-9.419,10.869-11.593,6.454-2.086,9.634-1.2,13.921-3.44,1.926-1.008,3.377-2.94,4.536-2.993a2.779,2.779,0,0,1,2.857,1.445" transform="translate(-401.438 -497.716)"/><path class="r" d="M537.621,607.328c-5.72-.358-11.5.529-19.066,3.574-10.426,4.195-17.789,11-22.76,15.372-7.676,6.749-17.442,15.615-33.962,25.262,0,0,1.2,11.2,6.2,10.367,7.763-1.294,33.017-8.9,51.355-16.445,12.634-5.2,26.1-18.232,25.858-27.288C545.121,613.352,541.315,608.877,537.621,607.328Z" transform="translate(-411.31 -484.834)"/><path class="s" d="M430.861,686.568c1.264-.347,2.46-.689,3.6-1.027a10.556,10.556,0,0,1-4.9-8.891,10.449,10.449,0,0,1,1.727-5.755c-.278.082-.555.164-.847.258-6.729,2.174-12.73,5.922-10.869,11.593C421.507,688.635,429.3,687,430.861,686.568Z" transform="translate(-401.438 -499.58)"/><path class="s" d="M529.127,673.123q-1.733-.927-3.318-1.729a10.556,10.556,0,0,1-2.562,9.821,10.447,10.447,0,0,1-5.212,2.989c.259.131.517.263.793.4,6.381,3.05,13.314,4.458,15.864-.939C537.339,678.058,530.557,673.887,529.127,673.123Z" transform="translate(-424.332 -499.695)"/><path class="i" d="M474.408,582.611l16.31-.111c.257-1.281.482-24.992.482-24.992l-17.45.111S474.163,581.448,474.408,582.611Z" transform="translate(-414.071 -473.307)"/><path class="m" d="M514.486,596.148a17.559,17.559,0,0,0-3.294-4.985l-.652-1.534c-5.545-.239-14.718-3.516-18.188-7.846-1.652-2.062.864-9.031-1.388-10.41-2.216-1.357-1.665,4.785-4.262,4.759-1.827-.018-11.891-5.747-13.583-5.056s-.892,7.634,0,8.626c.97,1.076,12.229,7.991,13.136,9.12a51.572,51.572,0,0,0,20.671,15.466c6.1,2.528,8.528-1.134,10.6-3.72C518.776,599,515.182,598.025,514.486,596.148Z" transform="translate(-413.695 -476.437)"/><path class="m" d="M448.008,596.787c5.794-4.406,17.623-4.379,21.923-7.987,2.148-1.8,6.14-5.829,8.931-5.549,2.024.2,3.318,3.228,3.652,5.236a3.5,3.5,0,0,1-.569,2.516c-.791,1.158-5.841,3.86-8.444,5.1-3.908,1.87-8.45,5.2-14.445,7.988-3.9,1.81-9.68,3.9-13.953,4.339s-8.423-.771-8.649-5.076" transform="translate(-405.428 -479.269)"/></g></g></g></svg>