<svg xmlns="http://www.w3.org/2000/svg" width="575.525" height="424" viewBox="0 0 575.525 424"><defs><style>.a{fill:#a6b3dd;}.b{fill:#7994d1;}.c{fill:#4e62bd;}.d{fill:#ffb6b6;}.e{fill:#f7a1a1;}.f{fill:#384fa0;}.g{fill:#eff1f9;}.h{fill:#ffc7c7;}.i{fill:#f28f8f;}.j{fill:#5b3e3e;}.k,.m{fill:#fff;}.l{fill:#f99595;}.m{opacity:0.5;mix-blend-mode:overlay;isolation:isolate;}.n{fill:#f4c7ab;}</style></defs><g transform="translate(-250.445 -449.301)"><path class="a" d="M731.906,1561.775H610.756v-57.3l120.846.762C732.21,1524.079,731.906,1561.775,731.906,1561.775Z" transform="translate(-238.265 -697.76)"/><path class="b" d="M615.5,1504.5l-4.743-.03v56.485l10.851.819h.016c-13.317-27.779-11.667-44.458-7.3-54.715C614.682,1506.226,615.08,1505.377,615.5,1504.5Z" transform="translate(-238.265 -697.76)"/><path class="c" d="M760.574,1613.3h-60.5c0-8.563,14.592-24.015,40.735-24.015C760.574,1589.287,760.574,1604.74,760.574,1613.3Z" transform="translate(-297.333 -753.848)"/><path class="d" d="M504.321,917.6c1.818,8.215,1.8,32.224-3.719,41.245-10.9,17.833-20.349,24.242-33.117,29.41-18.784,7.6-30.357,10.4-38.977,25.1-16.832,28.713-61.487,136.945-51,150.6,10.032,13.072,45.615,3.138,68.7-2.128,24.828-5.663,37.47-7.9,48.649-12.656.743,1.281,2.208,3.827,7.337,5.968,5.354,2.236,11.112,1.755,12.525,2.061,1.712.371,6.72,1.227,7.083,1.992,0,0-.108,3.545-1.267,4.763-1.662,1.746-1.216,4.56.253,4.762.5.069,1.789-1.584,3-3.669,1.4-2.4,2.7-5.387,2.619-7.072-.1-2.027-6.412-4.9-6.485-5.421,3.53,1.251,8.411,3.5,8.208,5.016-.042.318.152,4.357-.861,6.08-1.3,2.216-1.211,4.876.811,4.763.447-.025,2.3-1.847,3.243-4.256.948-2.425,1.645-6.653,1.382-8.234-.253-1.52-5.333-5.4-6.853-7.017,2.253.982,8.353,5.771,8.512,6.992a49.351,49.351,0,0,1-.405,6.637c-1.283,2.792-1.9,5.67,0,5.675.6,0,2.862-2.636,3.952-5.979a24.4,24.4,0,0,0,.811-7.093c-.03-1.826-4.441-8.036-7.494-9.686,3.9,2.238,8.753,7.577,9.014,9.179.308,1.887,1.013,4.763-.1,7.093-1.422,2.974-1.775,6.02.405,6.08.9.025,2.553-3.16,4.154-5.979.976-1.717.357-6.452.3-8.613.048-3.145-8.482-12.234-10-13.593-6.108-5.457-20.458-3.035-44.625-4.4-19.666-1.107-18.526-2.024-36.569-.758-17.328,1.216-29.224.858-38,3.04,7.525-6.439,12.431-21.2,21.491-36.427,9.358-15.732,16.923-29.7,18.932-39.555,1.014,35.273.761,26.68,1.775,61.952,37.977,1.8,77.306-1.127,115.283.676-.563-38.54,1.1-28.482-2.451-71.08,17.918,52.57,39.724,108.86,45.3,114.945,8.961,9.775,73.381,4.642,79.278,2.2,4.057-9.353,3.888-13.974,7.945-23.327-22.513-2.264-31.885-6.854-56.215-4.214-2.424-10.161-11.459-30.121-16.112-51.679-12-55.613-22.334-79.336-29.433-85.252-14.338-11.948-29.244-14.706-46.654-28.736-8.093-6.521-9.511-13.616-10.818-18.256-4.676-16.6,3.032-31.446,5.747-36.174Z" transform="translate(-82.98 -309.675)"/><path class="e" d="M1121.008,1559.8c.4-.932.766-1.816,1.094-2.664-21.017-.341-54.106-2.373-70.886-7.442-6.919-2.09-22.06-25.547-31.7-42.966,10.252,26.855,18.971,47.339,22.212,50.875C1050.691,1567.381,1115.111,1562.248,1121.008,1559.8Z" transform="translate(-508.571 -699.255)"/><path class="e" d="M455.52,1396.035a85.721,85.721,0,0,0,20.92,8.007q.868-1.54,1.787-3.091c1.874-3.151,3.674-6.229,5.374-9.219a77.267,77.267,0,0,1-40.939-20.672c-1.636,4.03-3.256,8.111-4.841,12.2A85.531,85.531,0,0,0,455.52,1396.035Z" transform="translate(-123.908 -609.539)"/><path class="a" d="M520.7,1099.377c1.331,1.723,14.9,20.671,42.559,18.847,27.3-1.8,33.229-20.549,34.416-22.469,8.447,3.317,34.894,15.477,43.442,23.327,7.853,7.212,25.622,67.194,24.933,72.77-2.451,4.649-12.407,7.223-22.313,9.8a76.977,76.977,0,0,1-23.665,2.366c-1.916-4.846-2.307-11.035-4.223-15.88,1.828,16.592.3,32.224,1.18,56.534-40.343-.338-80.686-.169-121.03-.507-.451-32.23-.228-36.875.93-56.965-2.592,7.438-8.453,20.394-13.016,26.2-6.307-.137-14.913-2.3-25.693-6.592-13.432-5.349-16.394-11.622-21.13-16.566,1.952-11.175,24.521-55.941,34.822-66.431C481.123,1114.434,505.653,1104.786,520.7,1099.377Z" transform="translate(-123.423 -427.486)"/><rect class="c" width="264.71" height="192.025" rx="7.77" transform="translate(494.281 614.6)"/><path class="b" d="M1058.082,1642.592H919.015l4.742-9.013h139.067Z" transform="translate(-442.11 -783.137)"/><path class="f" d="M962.413,1120.893V945.753a8.442,8.442,0,0,1,8.442-8.443H966.3a8.442,8.442,0,0,0-8.442,8.443v175.14a8.442,8.442,0,0,0,8.442,8.443h4.56A8.442,8.442,0,0,1,962.413,1120.893Z" transform="translate(-467.793 -322.71)"/><path class="a" d="M1151.936,1234.275c.062.031,58.733-.273,58.553-.2-.085.084,10.7,48.057,17.713,85.16,7.744,40.958,7.09,63.811-27.806,63.811,0,0-95.129.675-106.07,1.437,23.073-1.606,70.184-.911,78.04-24.015C1177.534,1345.263,1161.487,1294.029,1151.936,1234.275Z" transform="translate(-558.04 -518.944)"/><path class="e" d="M754.2,972.232c8.725,5.11,31.306,5.951,33.1,4.452-4.48-.928-13.611-5.443-21.938-12.16a49.784,49.784,0,0,1-9.823-10.636A93.363,93.363,0,0,1,754.2,972.232Z" transform="translate(-333.119 -333.672)"/><rect class="g" width="538.981" height="13.68" transform="translate(250.445 859.454)"/><path class="h" d="M770.744,795.323c1.186,7.708-.427,18.145-3.1,34.286-2.965,17.894-9.5,30.9-18.264,35.974-4.08-.329-19.024-2.028-30.439-14.39a44.667,44.667,0,0,1-9.962-17.71c-1.014,3.6-3.475,4.583-6.365,3.413-3.53-1.429-5.982-9.625-5.521-16.359.233-3.4,2.654-8.626,8.1-7.992,4.439.516,6.826,6.088,8.671,11.622-.8-2.1-6.01-22.012,3.463-32.162C721.974,787.029,767.426,777.74,770.744,795.323Z" transform="translate(-295.32 -222.033)"/><g transform="translate(425.45 586.208)"><path class="i" d="M842.96,900.818a.678.678,0,0,1-.121-1.344c2.932-.537,4.785-1.582,5.51-3.108.521-1.1.32-2.192.017-3.851-.085-.466-.182-.994-.268-1.563a34.2,34.2,0,0,1,0-9.872.677.677,0,1,1,1.342.188,32.846,32.846,0,0,0,0,9.481c.083.549.174,1.044.262,1.523.326,1.779.583,3.185-.126,4.676-.922,1.941-3.105,3.239-6.49,3.859A.7.7,0,0,1,842.96,900.818Z" transform="translate(-816.82 -871.349)"/><path class="i" d="M780.111,880.854a.677.677,0,0,1-.592-1.006,7.86,7.86,0,0,1,12.915-1.271.677.677,0,1,1-1.033.876,6.942,6.942,0,0,0-5.787-2.281,6.841,6.841,0,0,0-4.909,3.333A.678.678,0,0,1,780.111,880.854Z" transform="translate(-775.259 -868.222)"/><path class="i" d="M883.5,885.205a.676.676,0,0,1-.558-.293,6.226,6.226,0,0,0-3.31-2.444,6.887,6.887,0,0,0-5.949,1.413.678.678,0,0,1-.882-1.029,8.164,8.164,0,0,1,7.212-1.684,7.589,7.589,0,0,1,4.044,2.975.678.678,0,0,1-.557,1.063Z" transform="translate(-836.845 -871.606)"/><circle class="j" cx="2.654" cy="2.654" r="2.654" transform="translate(7.61 12.825) rotate(-45)"/><circle class="j" cx="2.654" cy="2.654" r="2.654" transform="translate(38.388 12.751) rotate(-22.614)"/><path class="k" d="M799.718,952.2a28.031,28.031,0,0,0,17.224,4.838,12.554,12.554,0,0,0,6.276-1.925c-.756,1.637-3.361,6.635-7.133,7.3C810.746,963.354,803.884,959.547,799.718,952.2Z" transform="translate(-788.672 -918.767)"/><path class="j" d="M788.506,856.772a15.2,15.2,0,0,0-5.429-2.688,14.818,14.818,0,0,0-8.85.172,14.027,14.027,0,0,0-7.119,5.2l.768.034c.857-.427,2.307-2.968,6.526-4.48a13.836,13.836,0,0,1,2.788-.476l.7-.043.7.02a11.824,11.824,0,0,1,1.4.108,13.716,13.716,0,0,1,2.709.662,18.689,18.689,0,0,1,5.283,3.277c.171.1.444-.152.644-.567a.931.931,0,0,0-.078-1.176Z" transform="translate(-767.108 -853.49)"/><path class="j" d="M880.361,862.162a11.963,11.963,0,0,0-3.989-2.612,11.663,11.663,0,0,0-6.932-.7,11.037,11.037,0,0,0-6.052,3.39l.6.1c.71-.253,2.082-2.1,5.521-2.887a10.912,10.912,0,0,1,2.224-.11l.554.033.548.082a9.3,9.3,0,0,1,1.082.216,10.787,10.787,0,0,1,2.054.772,14.7,14.7,0,0,1,3.82,3.058c.125.091.361-.076.557-.382a.732.732,0,0,0,.05-.926C880.385,862.185,880.372,862.173,880.361,862.162Z" transform="translate(-830.777 -856.877)"/></g><path class="c" d="M739.648,743.743c1,2.322-.525,15.571-.525,15.571,14.629-1.987,29.044-20.148,21.324-38.851-6.5-15.751-26.259-20.686-39.587-7.686-1.85-6.71-13.461-11.377-26.332-7.049a22.657,22.657,0,0,0-14.035,14.565c-10.2.088-19.474.71-27.436,15.751-6.038,11.405-3.87,35.709,13.572,38.7-1.855-8.208,1.044-14.5,4.428-15.127s8.338,3.158,9.593,11.438c1.66.062,2.121-.461,2.121-.461-.664-6.967-1.035-15.866,1.8-23.868C697.845,726.823,738.321,732.463,739.648,743.743Z" transform="translate(-264.225 -168.462)"/><path class="c" d="M708.123,1131.791c-17.134,0-38.386-7.342-49.277-24.708l.574-.36c11.861,18.913,36.2,25.784,53.793,24.162,22.519-2.074,33.957-21.651,36.189-28.345l.643.214a46.633,46.633,0,0,1-10.454,16.013,41.989,41.989,0,0,1-26.316,12.792C711.612,1131.713,709.889,1131.791,708.123,1131.791Z" transform="translate(-270.066 -431.973)"/><path class="b" d="M471.911,1157.653c-10.3,10.49-32.869,55.256-34.822,66.431,2.689,2.807,4.809,6.043,8.6,9.3.077-13.7,3.871-22.491,7.526-28.119,6.221-9.577,10.95-7.938,17.632-20.063,5.675-10.3,4.152-20.537,7.9-27.36,3.344-6.08,6.646-7.647,9.261-10.912C481.31,1150.369,475.468,1154.031,471.911,1157.653Z" transform="translate(-123.423 -461.324)"/><path class="b" d="M613.261,1337.6a.338.338,0,0,1-.323-.441,120.616,120.616,0,0,0,3.331-14.23.339.339,0,0,1,.672.089,121.488,121.488,0,0,1-3.357,14.345A.339.339,0,0,1,613.261,1337.6Z" transform="translate(-239.698 -577.517)"/><path class="b" d="M617.649,1399.822c.479-12.008-1.841-20-6.29-26.254-1.024,17.917-1.208,23.551-.777,54.313l1.2.008C612.346,1425.11,617.284,1408.961,617.649,1399.822Z" transform="translate(-238.006 -611.198)"/><path class="e" d="M456.158,1570.676a19.3,19.3,0,0,1-4.522-.539.338.338,0,1,1,.159-.658,18.27,18.27,0,0,0,8.655,0,17.789,17.789,0,0,0,4.475-1.79.339.339,0,0,1,.334.59,18.309,18.309,0,0,1-9.1,2.4Z" transform="translate(-132.871 -739.536)"/><path class="e" d="M384.929,1617.905c-3.093-.644-5.988-2.756-8.8-5.771a9.731,9.731,0,0,0,1.509,5.163c10.032,13.072,45.615,3.138,68.7-2.128,23.634-5.391,36.226-7.674,47.025-11.986l.094-.04C458.343,1608.159,399.521,1620.945,384.929,1617.905Z" transform="translate(-83.108 -763.01)"/><path class="c" d="M1682.266,1576.7h-35.227l-9.484-42.763h52.829Z" transform="translate(-917.265 -717.247)"/><g transform="translate(736.805 727.433)"><path class="l" d="M1698.178,1359.59c3.184-11.859-17.058-18.766-10.576-30.408,3.866-6.943,11.922-4.722,18.823-13.57,7.112-9.118,2.8-17.685,7.76-23.4,6.465-7.445,14.964-.423,21.641-3.788,6.387-3.219,5.059-10.218,14.269-15.281,8.613-4.735,20.536-2.878,23.648,2.357,4.32,7.265-.2,21.8-5.156,26.974-8.753,9.127-17.623,7.6-19.7,14.448-2.775,9.152,4.228,15.37-1.691,24.193-5.355,7.981-36.114,2.673-41.989,18.319Z" transform="translate(-1686.313 -1270.422)"/><path class="m" d="M1731.442,1368.632l-.869-.11c.017-.136,1.836-13.842,11.622-30.99a119.325,119.325,0,0,1,21.777-27.561,142.141,142.141,0,0,1,38.858-25.727l.363.8c-33.552,15.3-51.277,37.224-60.238,52.926C1733.255,1354.965,1731.459,1368.5,1731.442,1368.632Z" transform="translate(-1715.581 -1279.562)"/><rect class="m" width="18.112" height="0.876" transform="matrix(0.227, -0.974, 0.974, 0.227, 62.405, 18.865)"/><rect class="m" width="0.876" height="26.565" transform="matrix(0.087, -0.996, 0.996, 0.087, 40.434, 39.709)"/><rect class="m" width="0.876" height="20.891" transform="matrix(0.99, -0.141, 0.141, 0.99, 18.893, 46.811)"/><rect class="m" width="43.223" height="0.876" transform="translate(20.866 71.818) rotate(-11.438)"/></g><g transform="translate(698.398 700.297)"><path class="n" d="M1624.475,1247.533c-5.183-6.78-10.257-7.226-17.384-19.283-2.709-4.582-1.463-16.389-4.094-24.783-2.82-9-12.873-14.332-19.955-12.936-7.663,1.51-11.063,14.27-9.89,25.185,1.346,12.522,10.316,15.389,15.055,30.214,3.131,9.8,1.015,18.7,1.516,24.625,1.416,16.745,15.737,27.772,23.061,36.15h6.591C1641.491,1278.336,1629.718,1254.391,1624.475,1247.533Z" transform="translate(-1572.925 -1190.31)"/><path class="m" d="M1636.168,1306.906h.63c-.965-20.8-4.473-32.86-7.309-42.918-1.854-6.578-3.828-11.775-8.6-24.33-1.575-4.147-3.36-8.847-5.555-14.686-1.8-4.781-3.32-8.99-4.793-13.061-2.473-6.837-4.809-13.294-8.031-21.3l-.584.235c3.217,7.991,5.552,14.444,8.023,21.275,1.473,4.072,3,8.284,4.8,13.068,2.2,5.84,3.981,10.54,5.556,14.687,4.761,12.537,6.732,17.726,8.579,24.277C1631.71,1274.185,1635.206,1286.179,1636.168,1306.906Z" transform="translate(-1592.105 -1190.512)"/><rect class="m" width="23.132" height="0.629" transform="matrix(0.263, -0.965, 0.965, 0.263, 21.699, 31.987)"/><rect class="m" width="0.629" height="23.655" transform="matrix(0.544, -0.839, 0.839, 0.544, 13.941, 51.282)"/><rect class="m" width="34.41" height="0.629" transform="translate(41.358 92.257) rotate(-71.209)"/></g><g transform="translate(524.925 449.301)"><rect class="g" width="119.525" height="37.582" rx="18.791" transform="translate(0 0)"/><rect class="g" width="119.525" height="37.582" rx="18.791" transform="translate(39.829 46.172)"/><rect class="g" width="119.525" height="37.582" rx="18.791" transform="translate(71.388 92.208)"/></g><g transform="translate(535.609 453.941)"><path class="c" d="M1103.843,494.033a11.517,11.517,0,1,1,11.517-11.517A11.529,11.529,0,0,1,1103.843,494.033Zm0-21.678A10.162,10.162,0,1,0,1114,482.517,10.173,10.173,0,0,0,1103.843,472.355Z" transform="translate(-1092.326 -468.29)"/><path class="c" d="M1113.554,483.847l-6.434-9.283a.677.677,0,1,1,1.114-.772l5.3,7.653,12.207-18.145a.677.677,0,1,1,1.124.756Z" transform="translate(-1102.029 -463)"/><g transform="translate(34.1 7.452)"><path class="c" d="M1251.938,486.355h-58.26a.677.677,0,1,1,0-1.355h58.26a.677.677,0,0,1,0,1.355Z" transform="translate(-1193 -485)"/><path class="c" d="M1251.938,506.355h-58.26a.677.677,0,1,1,0-1.355h58.26a.677.677,0,0,1,0,1.355Z" transform="translate(-1193 -498.226)"/><path class="c" d="M1239.744,526.355h-46.066a.677.677,0,1,1,0-1.355h46.066a.677.677,0,1,1,0,1.355Z" transform="translate(-1193 -511.451)"/></g></g><g transform="translate(576.255 501.023)"><path class="c" d="M1223.843,633.033a11.517,11.517,0,1,1,11.517-11.517A11.529,11.529,0,0,1,1223.843,633.033Zm0-21.678A10.162,10.162,0,1,0,1234,621.516,10.173,10.173,0,0,0,1223.843,611.355Z" transform="translate(-1212.326 -607.29)"/><path class="c" d="M1233.554,622.847l-6.434-9.283a.677.677,0,1,1,1.114-.772l5.3,7.653,12.207-18.145a.677.677,0,1,1,1.124.756Z" transform="translate(-1222.029 -602)"/><g transform="translate(34.1 7.452)"><path class="c" d="M1371.938,625.355h-58.26a.677.677,0,1,1,0-1.355h58.26a.677.677,0,0,1,0,1.355Z" transform="translate(-1313 -624)"/><path class="c" d="M1371.938,645.355h-58.26a.677.677,0,1,1,0-1.355h58.26a.677.677,0,0,1,0,1.355Z" transform="translate(-1313 -637.226)"/><path class="c" d="M1359.744,665.355h-46.066a.677.677,0,1,1,0-1.355h46.066a.677.677,0,1,1,0,1.355Z" transform="translate(-1313 -650.451)"/></g></g><g transform="translate(607.079 545.735)"><path class="c" d="M1314.843,765.033a11.517,11.517,0,1,1,11.516-11.516A11.529,11.529,0,0,1,1314.843,765.033Zm0-21.678A10.162,10.162,0,1,0,1325,753.517,10.173,10.173,0,0,0,1314.843,743.355Z" transform="translate(-1303.326 -739.29)"/><path class="c" d="M1324.554,754.847l-6.434-9.283a.677.677,0,1,1,1.114-.772l5.3,7.653,12.207-18.145a.677.677,0,0,1,1.124.756Z" transform="translate(-1313.029 -733.999)"/><g transform="translate(34.1 7.452)"><path class="c" d="M1462.938,757.355h-58.26a.677.677,0,0,1,0-1.355h58.26a.677.677,0,0,1,0,1.355Z" transform="translate(-1404 -756)"/><path class="c" d="M1462.938,777.355h-58.26a.677.677,0,0,1,0-1.355h58.26a.677.677,0,0,1,0,1.355Z" transform="translate(-1404 -769.225)"/><path class="c" d="M1450.744,797.355h-46.066a.677.677,0,0,1,0-1.355h46.066a.677.677,0,0,1,0,1.355Z" transform="translate(-1404 -782.451)"/></g></g><circle class="f" cx="4.078" cy="4.078" r="4.078" transform="translate(519.936 776.367)"/><circle class="f" cx="4.078" cy="4.078" r="4.078" transform="translate(533.485 776.367)"/><circle class="f" cx="4.078" cy="4.078" r="4.078" transform="translate(567.357 776.367)"/><circle class="f" cx="4.078" cy="4.078" r="4.078" transform="translate(699.458 776.367)"/><g transform="translate(534.041 778.751)"><path class="f" d="M1088.375,1518.462a.677.677,0,0,1-.129-1.342c31.35-6.105,50.707-24.672,51.78-49.665.877-20.45-10.6-35.765-15.581-41.4a.678.678,0,0,1,1.016-.9c5.086,5.758,16.817,21.412,15.919,42.355-1.1,25.662-20.868,44.7-52.875,50.937A.659.659,0,0,1,1088.375,1518.462Z" transform="translate(-1087.698 -1423.912)"/><path class="f" d="M1199.9,1432.516a1.691,1.691,0,0,1-1.412-.757,64.719,64.719,0,0,0-5.377-7.015,1.694,1.694,0,1,1,2.538-2.243,68.122,68.122,0,0,1,5.661,7.384,1.694,1.694,0,0,1-1.409,2.631Z" transform="translate(-1157.124 -1421.929)"/></g><path class="f" d="M1251.318,1231.128h2.427q-.216-1.32-.428-2.645s.059,0,.165,0c-.055-.34-.11-.678-.165-1.018.062.031,58.733-.273,58.553-.2-.014.014.283,1.4.818,3.865h.7a3.681,3.681,0,0,0,3.682-3.682h0a3.682,3.682,0,0,0-3.682-3.682h-62.075a3.682,3.682,0,0,0-3.682,3.682h0A3.681,3.681,0,0,0,1251.318,1231.128Z" transform="translate(-659.42 -512.136)"/><path class="c" d="M657.058,803.031a7.379,7.379,0,0,0-.742-.4c-2.893-1.463-11.7-5.914-11.565-23,.09-11.491,4.719-20.732,12.7-25.356,11.578-6.706,23.4-1.325,24.705-.689l-.3.609c-1.277-.62-12.795-5.864-24.07.666-7.77,4.5-12.276,13.53-12.364,24.775-.13,16.669,8.393,20.978,11.193,22.394a7.331,7.331,0,0,1,.829.455Z" transform="translate(-260.745 -199.464)"/><path class="c" d="M878.908,756.273l-.18-.653c16.2-4.475,19.965-19.689,16.516-32.782-2.721-10.329-11.889-19.6-26.241-17.028-7.288,1.306-13.051,5.343-17.131,12-.1.161-.178.291-.241.386l-.567-.37c.06-.091.136-.216.23-.37,4.185-6.828,10.1-10.97,17.589-12.311,14.776-2.649,24.216,6.892,27.015,17.522C899.432,736.08,895.548,751.674,878.908,756.273Z" transform="translate(-397.176 -168.887)"/></g></svg>