<svg xmlns="http://www.w3.org/2000/svg" xmlns:xlink="http://www.w3.org/1999/xlink" width="135.386" height="77.191" viewBox="0 0 135.386 77.191"><defs><style>.a,.b,.c{fill:#fff;}.a{font-size:9px;font-family:AlmoniNeueDL4.0AAA-Light, 'Almoni Neue DL 4.0 AAA';font-weight:300;letter-spacing:-0.02em;}.b{font-size:32px;font-family:Montserrat-Regular, Montserrat;letter-spacing:-0.06em;}.d{fill:url(#a);}</style><linearGradient id="a" x1="0.077" y1="0.08" x2="0.785" y2="0.94" gradientUnits="objectBoundingBox"><stop offset="0" stop-color="#fbb637"/><stop offset="0.5" stop-color="#fa6169"/><stop offset="1" stop-color="#ee0789"/></linearGradient></defs><g transform="translate(-1086.361 -1391.753)"><g transform="translate(1142.748 1406.632)"><text class="a" transform="translate(0.999 44.226)"><tspan x="0" y="0">חנות דיגיטלית בקליק</tspan></text><g transform="translate(0 0)"><text class="b" transform="translate(0 31)"><tspan x="0" y="0">Store</tspan></text></g></g><g transform="translate(1086.361 1391.753)"><path class="c" d="M1384.842,1550.5l-6.62,9.78-7.667-13.134h-12.037l6.319,37.361,2.1,1.05-1.162,2.145a1.9,1.9,0,0,0,.559,2.441l6.17,4.442.6-.15,8.125-12.338,15.347-31.3Z" transform="translate(-1353.775 -1517.624)"/><path class="d" d="M1382.019,1455.358q-.928-16.328-1.857-32.632c-.148-2.6-.3-5.218-.443-7.816a4.125,4.125,0,0,0-4.119-3.891h-6.33a44.3,44.3,0,0,0-.934-7.6c-1-4.454-2.777-7.689-5.291-9.615-2.688-2.06-5.337-2.575-7.874-1.531-2.742,1.129-4.662,3.842-5.789,5.919a24.607,24.607,0,0,0-2.679,8.058q-.344,2.513-.479,4.766h-6.245a4.125,4.125,0,0,0-4.12,3.891c-.148,2.6-.3,5.219-.443,7.816q-.929,16.317-1.857,32.632a4.127,4.127,0,0,0,4.119,4.361h9.016l6.569-12.324-14.068-25.126h10.277l8.674,16.36,6.5-12.839h10.142l-18.16,33.93h.028l-4.481,8.221a.674.674,0,0,0,1.131.728l6.726-8.948H1377.9A4.127,4.127,0,0,0,1382.019,1455.358Zm-35.21-39.85a1.4,1.4,0,0,1-.664-2.642q-.01.456-.012.9a.572.572,0,0,0,.573.573h.009a.572.572,0,0,0,.572-.571c0-.321.006-.648.014-.98a1.4,1.4,0,0,1-.491,2.719Zm.566-4.488c.088-1.464.24-3.008.46-4.611a23.749,23.749,0,0,1,2.551-7.666c1.039-1.914,2.788-4.407,5.219-5.407a5.564,5.564,0,0,1,2.136-.431,7.639,7.639,0,0,1,4.606,1.81c3.475,2.662,5.372,8,5.768,16.305Zm21.392,4.488a1.4,1.4,0,0,1-.589-2.678q.01.466.014.943a.572.572,0,0,0,1.145-.008c0-.3-.006-.623-.012-.95a1.4,1.4,0,0,1-.557,2.694Z" transform="translate(-1333.551 -1391.753)"/></g></g></svg>